<?xml version="1.0" standalone="no"?>
<!DOCTYPE svg PUBLIC "-//W3C//DTD SVG 1.1//EN" "http://www.w3.org/Graphics/SVG/1.1/DTD/svg11.dtd" >
<svg>
<metadata>
Created by FontForge 20120731 at Mon Sep  2 12:25:01 2024
 By fw_worker
Copyright 2017 Dalton Maag Ltd. All rights reserved. This font may not be altered in any way without prior permission of Dalton Maag Ltd.
</metadata>
<defs>
<font id="ADNOCSans-XBold" horiz-adv-x="0" >
  <font-face 
    font-family="ADNOC Sans XBold"
    font-weight="800"
    font-stretch="normal"
    units-per-em="1000"
    panose-1="2 11 8 4 2 2 2 2 2 4"
    ascent="714"
    descent="-286"
    x-height="525"
    cap-height="714"
    bbox="-252 -831 2523 1160"
    underline-thickness="68"
    underline-position="-65"
    unicode-range="U+0008-FEFF"
  />
<missing-glyph horiz-adv-x="500" 
d="M50 0v750h400v-750h-400zM400 700h-300v-650h300v650z" />
    <glyph glyph-name="f_f" unicode="ff" horiz-adv-x="838" 
d="M99 0v364h-84v141h84v16q0 95 55 148t153 53q62 0 120 -18l-23 -128q-37 8 -61 8q-63 0 -63 -61v-18h114v-141h-114v-364h-181zM525 0v364h-84v141h84v16q0 95 55 148t153 53q62 0 120 -18l-23 -128q-37 8 -61 8q-63 0 -63 -61v-18h114v-141h-114v-364h-181z" />
    <glyph glyph-name="f_i" unicode="fi" horiz-adv-x="712" 
d="M99 0v364h-84v141h84v16q0 95 55 148t153 53q62 0 120 -18l-23 -128q-37 8 -61 8q-63 0 -63 -61v-18h114v-141h-114v-364h-181zM476 0v525h181v-525h-181zM475 583v131h183v-131h-183z" />
    <glyph glyph-name="f_l" unicode="fl" horiz-adv-x="714" 
d="M99 0v364h-84v141h84v16q0 95 55 148t153 53q62 0 120 -18l-23 -128q-37 8 -61 8q-63 0 -63 -61v-18h114v-141h-114v-364h-181zM478 0v714h181v-714h-181z" />
    <glyph glyph-name="f_f_i" unicode="ffi" horiz-adv-x="1137" 
d="M99 0v364h-84v141h84v16q0 95 55 148t153 53q62 0 120 -18l-23 -128q-37 8 -61 8q-63 0 -63 -61v-18h114v-141h-114v-364h-181zM901 0v525h181v-525h-181zM900 583v131h183v-131h-183zM525 0v364h-84v141h84v16q0 95 55 148t153 53q62 0 120 -18l-23 -128q-37 8 -61 8
q-63 0 -63 -61v-18h114v-141h-114v-364h-181z" />
    <glyph glyph-name="f_f_l" unicode="ffl" horiz-adv-x="1134" 
d="M99 0v364h-84v141h84v16q0 95 55 148t153 53q62 0 120 -18l-23 -128q-37 8 -61 8q-63 0 -63 -61v-18h114v-141h-114v-364h-181zM525 0v364h-84v141h84v16q0 95 55 148t153 53q62 0 120 -18l-23 -128q-37 8 -61 8q-63 0 -63 -61v-18h114v-141h-114v-364h-181zM898 0v714
h181v-714h-181z" />
    <glyph glyph-name="aLam.init_aAlif.fina" unicode="&#xfedf;&#xfe8e;" horiz-adv-x="667" arabic-form="isolated" 
d="M30 0v152h122v340h169v-340h122v562h169v-714h-582z" />
    <glyph glyph-name="aLam.medi_aAlif.fina" unicode="&#xfee0;&#xfe8e;" horiz-adv-x="719" arabic-form="final" 
d="M30 0v152h122v340h169v-340h122v562h169v-562h122v-152h-704z" />
    <glyph glyph-name="aLam.init_aAlifMadda.fina" unicode="&#xfedf;&#xfe82;" horiz-adv-x="667" arabic-form="isolated" 
d="M30 0v152h122v340h169v-340h122v562h169v-714h-582zM337.5 588.5q-15.5 -21.5 -50.5 -21.5q-20 1 -37 8.5t-31 15t-24 8.5q-22 0 -22 -30h-56q0 46 15.5 67.5t48.5 21.5q21 -1 38.5 -8t31.5 -14t24 -8q20 0 20 30h58q0 -48 -15.5 -69.5z" />
    <glyph glyph-name="aLam.medi_aAlifMadda.fina" unicode="&#xfee0;&#xfe82;" horiz-adv-x="719" arabic-form="final" 
d="M30 0v152h122v340h169v-340h122v562h169v-562h122v-152h-704zM337.5 588.5q-15.5 -21.5 -50.5 -21.5q-20 1 -37 8.5t-31 15t-24 8.5q-22 0 -22 -30h-56q0 46 15.5 67.5t48.5 21.5q21 -1 38.5 -8t31.5 -14t24 -8q20 0 20 30h58q0 -48 -15.5 -69.5z" />
    <glyph glyph-name="aLam.init_aAlifHamza.fina" unicode="&#xfedf;&#xfe84;" horiz-adv-x="667" arabic-form="isolated" 
d="M30 0v152h122v340h169v-340h122v562h169v-714h-582zM144 614h21v44q0 36 20.5 56.5t58.5 20.5q36 0 55.5 -17t25.5 -55l-52 -7q-4 29 -26 29q-28 0 -28 -33v-38h105v-53h-180v53z" />
    <glyph glyph-name="aLam.medi_aAlifHamza.fina" unicode="&#xfee0;&#xfe84;" horiz-adv-x="719" arabic-form="final" 
d="M30 0v152h122v340h169v-340h122v562h169v-562h122v-152h-704zM144 614h21v44q0 36 20.5 56.5t58.5 20.5q36 0 55.5 -17t25.5 -55l-52 -7q-4 29 -26 29q-28 0 -28 -33v-38h105v-53h-180v53z" />
    <glyph glyph-name="aLam.init_aAlifHamzabelow.fina" unicode="&#xfedf;&#xfe88;" horiz-adv-x="667" arabic-form="isolated" 
d="M30 0v152h122v340h169v-340h122v562h169v-714h-582zM134 -187h21v44q0 36 20.5 56.5t58.5 20.5q36 0 55.5 -17t25.5 -55l-52 -7q-4 29 -26 29q-28 0 -28 -33v-38h105v-53h-180v53z" />
    <glyph glyph-name="aLam.medi_aAlifHamzabelow.fina" unicode="&#xfee0;&#xfe88;" horiz-adv-x="719" arabic-form="final" 
d="M30 0v152h122v340h169v-340h122v562h169v-562h122v-152h-704zM134 -187h21v44q0 36 20.5 56.5t58.5 20.5q36 0 55.5 -17t25.5 -55l-52 -7q-4 29 -26 29q-28 0 -28 -33v-38h105v-53h-180v53z" />
    <glyph glyph-name="aLam.init_aAlifWasla.fina" unicode="&#xfedf;&#xfb51;" horiz-adv-x="667" 
d="M30 0v152h122v340h169v-340h122v562h169v-714h-582zM119 610h19v106h49v-41q26 35 72 35q35 0 54.5 -21t19.5 -57v-71h-214v49zM281 624q0 36 -35 36q-18 0 -33 -13t-15 -30v-7h83v14z" />
    <glyph glyph-name="aLam.medi_aAlifWasla.fina" unicode="&#xfee0;&#xfb51;" horiz-adv-x="719" 
d="M30 0v152h122v340h169v-340h122v562h169v-562h122v-152h-704zM119 610h19v106h49v-41q26 35 72 35q35 0 54.5 -21t19.5 -57v-71h-214v49zM281 624q0 36 -35 36q-18 0 -33 -13t-15 -30v-7h83v14z" />
    <glyph glyph-name="aAllah" unicode="&#x627;&#xfedf;&#xfee0;&#xfeea;" horiz-adv-x="1638" arabic-form="isolated" 
d="M765 1131h68v-173h-68v173zM766 761q-41 0 -62.5 20t-21.5 58v76h52v-67q0 -35 26 -35h14v102h52v-102h40v102h53v-154h-153zM339 0q-142 0 -219.5 68.5t-77.5 194.5q0 73 29.5 128t85.5 86t130 31q116 0 177.5 -63t61.5 -183v-110h192v562h170v-562h207v562h170v-714
h-926zM361 280q0 46 -17.5 65.5t-57.5 19.5q-37 0 -57 -25.5t-20 -72.5q0 -60 29 -87.5t91 -27.5h32v128zM1414 714h169v-714h-169v714z" />
    <glyph glyph-name="aLam.init_aLam.medi_aHeh.fina" unicode="&#xfedf;&#xfee0;&#xfeea;" horiz-adv-x="1360" 
d="M765 1131h68v-173h-68v173zM766 761q-41 0 -62.5 20t-21.5 58v76h52v-67q0 -35 26 -35h14v102h52v-102h40v102h53v-154h-153zM339 0q-142 0 -219.5 68.5t-77.5 194.5q0 73 29.5 128t85.5 86t130 31q116 0 177.5 -63t61.5 -183v-110h192v562h170v-562h207v562h170v-714
h-926zM361 280q0 46 -17.5 65.5t-57.5 19.5q-37 0 -57 -25.5t-20 -72.5q0 -60 29 -87.5t91 -27.5h32v128z" />
    <glyph glyph-name="aKaf.init_aAlif.fina" unicode="&#xfedb;&#xfe8e;" horiz-adv-x="776" 
d="M55 714h169v-240l287 240h225l-270 -218l22 -2q230 -21 230 -241v-253h-663v714zM549 214q0 58 -14.5 87.5t-46 41t-88.5 11.5h-176v-202h325v62z" />
    <glyph glyph-name="aKaf.medi_aAlif.fina" unicode="&#xfedc;&#xfe8e;" horiz-adv-x="822" 
d="M55 714h169v-240l287 240h225l-270 -218l22 -2q230 -21 230 -241v-101h119v-152h-782v714zM549 214q0 58 -14.5 87.5t-46 41t-88.5 11.5h-176v-202h325v62z" />
    <glyph glyph-name="aKaf.init_aAlifMadda.fina" unicode="&#xfedb;&#xfe82;" horiz-adv-x="776" 
d="M55 714h169v-240l287 240h225l-270 -218l22 -2q230 -21 230 -241v-253h-663v714zM549 214q0 58 -14.5 87.5t-46 41t-88.5 11.5h-176v-202h325v62zM244.5 788.5q-15.5 -21.5 -50.5 -21.5q-20 1 -37 8.5t-31 15t-24 8.5q-22 0 -22 -30h-56q0 46 15.5 67.5t48.5 21.5
q21 -1 38.5 -8t31.5 -14t24 -8q20 0 20 30h58q0 -48 -15.5 -69.5z" />
    <glyph glyph-name="aKaf.medi_aAlifMadda.fina" unicode="&#xfedc;&#xfe82;" horiz-adv-x="822" 
d="M55 714h169v-240l287 240h225l-270 -218l22 -2q230 -21 230 -241v-101h119v-152h-782v714zM549 214q0 58 -14.5 87.5t-46 41t-88.5 11.5h-176v-202h325v62zM244.5 788.5q-15.5 -21.5 -50.5 -21.5q-20 1 -37 8.5t-31 15t-24 8.5q-22 0 -22 -30h-56q0 46 15.5 67.5
t48.5 21.5q21 -1 38.5 -8t31.5 -14t24 -8q20 0 20 30h58q0 -48 -15.5 -69.5z" />
    <glyph glyph-name="aKaf.init_aAlifHamza.fina" unicode="&#xfedb;&#xfe84;" horiz-adv-x="776" 
d="M55 714h169v-240l287 240h225l-270 -218l22 -2q230 -21 230 -241v-253h-663v714zM549 214q0 58 -14.5 87.5t-46 41t-88.5 11.5h-176v-202h325v62zM50 822h21v44q0 36 20.5 56.5t58.5 20.5q36 0 55.5 -17t25.5 -55l-52 -7q-4 29 -26 29q-28 0 -28 -33v-38h105v-53h-180v53
z" />
    <glyph glyph-name="aKaf.medi_aAlifHamza.fina" unicode="&#xfedc;&#xfe84;" horiz-adv-x="822" 
d="M55 714h169v-240l287 240h225l-270 -218l22 -2q230 -21 230 -241v-101h119v-152h-782v714zM549 214q0 58 -14.5 87.5t-46 41t-88.5 11.5h-176v-202h325v62zM50 822h21v44q0 36 20.5 56.5t58.5 20.5q36 0 55.5 -17t25.5 -55l-52 -7q-4 29 -26 29q-28 0 -28 -33v-38h105
v-53h-180v53z" />
    <glyph glyph-name="aKaf.init_aAlifHamzabelow.fina" unicode="&#xfedb;&#xfe88;" horiz-adv-x="776" 
d="M55 714h169v-240l287 240h225l-270 -218l22 -2q230 -21 230 -241v-253h-663v714zM549 214q0 58 -14.5 87.5t-46 41t-88.5 11.5h-176v-202h325v62zM40 -187h21v44q0 36 20.5 56.5t58.5 20.5q36 0 55.5 -17t25.5 -55l-52 -7q-4 29 -26 29q-28 0 -28 -33v-38h105v-53h-180
v53z" />
    <glyph glyph-name="aKaf.medi_aAlifHamzabelow.fina" unicode="&#xfedc;&#xfe88;" horiz-adv-x="822" 
d="M55 714h169v-240l287 240h225l-270 -218l22 -2q230 -21 230 -241v-101h119v-152h-782v714zM549 214q0 58 -14.5 87.5t-46 41t-88.5 11.5h-176v-202h325v62zM40 -187h21v44q0 36 20.5 56.5t58.5 20.5q36 0 55.5 -17t25.5 -55l-52 -7q-4 29 -26 29q-28 0 -28 -33v-38h105
v-53h-180v53z" />
    <glyph glyph-name="aKaf.init_aAlifWasla.fina" unicode="&#xfedb;&#xfb51;" horiz-adv-x="776" 
d="M55 714h169v-240l287 240h225l-270 -218l22 -2q230 -21 230 -241v-253h-663v714zM549 214q0 58 -14.5 87.5t-46 41t-88.5 11.5h-176v-202h325v62zM25 818h19v106h49v-41q26 35 72 35q35 0 54.5 -21t19.5 -57v-71h-214v49zM187 832q0 36 -35 36q-18 0 -33 -13t-15 -30v-7
h83v14z" />
    <glyph glyph-name="aKaf.medi_aAlifWasla.fina" unicode="&#xfedc;&#xfb51;" horiz-adv-x="822" 
d="M55 714h169v-240l287 240h225l-270 -218l22 -2q230 -21 230 -241v-101h119v-152h-782v714zM549 214q0 58 -14.5 87.5t-46 41t-88.5 11.5h-176v-202h325v62zM25 818h19v106h49v-41q26 35 72 35q35 0 54.5 -21t19.5 -57v-71h-214v49zM187 832q0 36 -35 36q-18 0 -33 -13
t-15 -30v-7h83v14z" />
    <glyph glyph-name="aKaf.init_aLam.fina" unicode="&#xfedb;&#xfede;" horiz-adv-x="1114" 
d="M562 0q0 -114 -66.5 -178t-185.5 -64q-270 0 -270 241q0 49 12 104.5t34 104.5l155 -39q-16 -33 -26.5 -76.5t-10.5 -77.5q0 -55 24.5 -83.5t73.5 -28.5q47 0 69 28.5t22 89.5v693h169v-240l287 240h225l-270 -218l22 -2q230 -21 230 -241v-253h-494zM887 214
q0 58 -14.5 87.5t-46 41t-88.5 11.5h-176v-202h325v62z" />
    <glyph glyph-name="aKaf.init_aLam.medi" unicode="&#xfedb;&#xfee0;" horiz-adv-x="828" 
d="M-15 152h122v562h169v-240l287 240h225l-270 -218l22 -2q230 -21 230 -241v-253h-785v152zM601 214q0 58 -14.5 87.5t-46 41t-88.5 11.5h-176v-202h325v62z" />
    <glyph glyph-name="aKaf.medi_aLam.fina" unicode="&#xfedc;&#xfede;" horiz-adv-x="1160" 
d="M562 0q0 -114 -66.5 -178t-185.5 -64q-270 0 -270 241q0 49 12 104.5t34 104.5l155 -39q-16 -33 -26.5 -76.5t-10.5 -77.5q0 -55 24.5 -83.5t73.5 -28.5q47 0 69 28.5t22 89.5v693h169v-240l287 240h225l-270 -218l22 -2q230 -21 230 -241v-101h119v-152h-613zM887 214
q0 58 -14.5 87.5t-46 41t-88.5 11.5h-176v-202h325v62z" />
    <glyph glyph-name="aKaf.medi_aLam.medi" unicode="&#xfedc;&#xfee0;" horiz-adv-x="877" 
d="M-15 152h122v562h169v-240l287 240h225l-270 -218l22 -2q230 -21 230 -241v-101h122v-152h-907v152zM601 214q0 58 -14.5 87.5t-46 41t-88.5 11.5h-176v-202h325v62z" />
    <glyph glyph-name="aAlifHamzabelow.fina" unicode="&#x625;" horiz-adv-x="331" arabic-form="final" 
d="M55 714h169v-562h122v-152h-291v714zM60 -187h21v44q0 36 20.5 56.5t58.5 20.5q36 0 55.5 -17t25.5 -55l-52 -7q-4 29 -26 29q-28 0 -28 -33v-38h105v-53h-180v53z" />
    <glyph glyph-name="aAlifHamzabelow.isol" unicode="&#x625;" horiz-adv-x="279" arabic-form="isolated" 
d="M55 714h169v-714h-169v714zM40 -187h21v44q0 36 20.5 56.5t58.5 20.5q36 0 55.5 -17t25.5 -55l-52 -7q-4 29 -26 29q-28 0 -28 -33v-38h105v-53h-180v53z" />
    <glyph glyph-name="aWawHamza.fina" unicode="&#x624;" horiz-adv-x="640" arabic-form="final" 
d="M288 -249q-212 0 -244 208h172q7 -36 23.5 -51.5t49.5 -15.5q44 0 62.5 24.5t18.5 83.5q-318 3 -318 263q0 72 29.5 127.5t85 86.5t130.5 31q116 0 177.5 -63t61.5 -183v-110h119v-152h-119q0 -126 -61.5 -187.5t-186.5 -61.5zM371 280q0 46 -17.5 65.5t-57.5 19.5
q-37 0 -57 -25.5t-20 -72.5q0 -59 29 -87t91 -28h32v128zM200 622h21v44q0 36 20.5 56.5t58.5 20.5q36 0 55.5 -17t25.5 -55l-52 -7q-4 29 -26 29q-28 0 -28 -33v-38h105v-53h-180v53z" />
    <glyph glyph-name="aWawHamza.isol" unicode="&#x624;" horiz-adv-x="591" arabic-form="isolated" 
d="M370 0q-318 3 -318 263q0 72 29.5 127.5t85 86.5t130.5 31q116 0 177.5 -63t61.5 -183v-262q0 -126 -61.5 -187.5t-186.5 -61.5q-212 0 -244 208h172q7 -36 23.5 -51.5t49.5 -15.5q44 0 62.5 24.5t18.5 83.5zM371 280q0 46 -17.5 65.5t-57.5 19.5q-37 0 -57 -25.5
t-20 -72.5q0 -59 29 -87t91 -28h32v128zM200 622h21v44q0 36 20.5 56.5t58.5 20.5q36 0 55.5 -17t25.5 -55l-52 -7q-4 29 -26 29q-28 0 -28 -33v-38h105v-53h-180v53z" />
    <glyph glyph-name="aAlifHamza.fina" unicode="&#x623;" horiz-adv-x="331" arabic-form="final" 
d="M55 714h169v-562h122v-152h-291v714zM50 822h21v44q0 36 20.5 56.5t58.5 20.5q36 0 55.5 -17t25.5 -55l-52 -7q-4 29 -26 29q-28 0 -28 -33v-38h105v-53h-180v53z" />
    <glyph glyph-name="aAlifHamza.isol" unicode="&#x623;" horiz-adv-x="279" arabic-form="isolated" 
d="M55 714h169v-714h-169v714zM50 822h21v44q0 36 20.5 56.5t58.5 20.5q36 0 55.5 -17t25.5 -55l-52 -7q-4 29 -26 29q-28 0 -28 -33v-38h105v-53h-180v53z" />
    <glyph glyph-name="aAlifMadda.fina" unicode="&#x622;" horiz-adv-x="331" arabic-form="final" 
d="M55 714h169v-562h122v-152h-291v714zM243.5 788.5q-15.5 -21.5 -50.5 -21.5q-20 1 -37 8.5t-31 15t-24 8.5q-22 0 -22 -30h-56q0 46 15.5 67.5t48.5 21.5q21 -1 38.5 -8t31.5 -14t24 -8q20 0 20 30h58q0 -48 -15.5 -69.5z" />
    <glyph glyph-name="aAlifMadda.isol" unicode="&#x622;" horiz-adv-x="279" arabic-form="isolated" 
d="M55 714h169v-714h-169v714zM243.5 788.5q-15.5 -21.5 -50.5 -21.5q-20 1 -37 8.5t-31 15t-24 8.5q-22 0 -22 -30h-56q0 46 15.5 67.5t48.5 21.5q21 -1 38.5 -8t31.5 -14t24 -8q20 0 20 30h58q0 -48 -15.5 -69.5z" />
    <glyph glyph-name="aHamza.isol" unicode="&#x621;" horiz-adv-x="460" arabic-form="isolated" 
d="M21 123h54v74q0 86 45.5 130t132.5 44q81 0 123.5 -36.5t53.5 -117.5l-141 -14q-3 28 -9.5 39t-21.5 11q-31 0 -31 -44v-86h200v-123h-406v123z" />
    <glyph glyph-name="aYehHamza.fina" unicode="&#x626;" horiz-adv-x="961" arabic-form="final" 
d="M684 340h-61q-28 0 -44.5 -11.5t-16.5 -31.5v-297q0 -114 -66.5 -178t-185.5 -64q-270 0 -270 257q0 45 14 97.5t38 94.5l150 -44q-18 -35 -28 -72t-10 -68q0 -120 98 -120q47 0 69 28.5t22 89.5v303q0 76 54 122t142 46h264v-340h122v-152h-291v340zM86 334h21v44
q0 36 20.5 56.5t58.5 20.5q36 0 55.5 -17t25.5 -55l-52 -7q-4 29 -26 29q-28 0 -28 -33v-38h105v-53h-180v53z" />
    <glyph glyph-name="aYehHamza.medi" unicode="&#x626;" horiz-adv-x="384" arabic-form="medial" 
d="M-15 152h122v340h169v-340h122v-152h-413v152zM78 614h21v44q0 36 20.5 56.5t58.5 20.5q36 0 55.5 -17t25.5 -55l-52 -7q-4 29 -26 29q-28 0 -28 -33v-38h105v-53h-180v53z" />
    <glyph glyph-name="aYehHamza.init" unicode="&#x626;" horiz-adv-x="332" arabic-form="initial" 
d="M-15 152h122v197q0 62 -25 109l155 57q21 -29 30 -65t9 -89v-361h-291v152zM78 614h21v44q0 36 20.5 56.5t58.5 20.5q36 0 55.5 -17t25.5 -55l-52 -7q-4 29 -26 29q-28 0 -28 -33v-38h105v-53h-180v53z" />
    <glyph glyph-name="aYehHamza.isol" unicode="&#x626;" horiz-adv-x="722" arabic-form="isolated" 
d="M447 446q54 46 142 46h107v-152h-73q-28 0 -44.5 -11.5t-16.5 -31.5v-297q0 -114 -66.5 -178t-185.5 -64q-270 0 -270 257q0 45 14 97.5t38 94.5l150 -44q-18 -35 -28 -72t-10 -68q0 -120 98 -120q47 0 69 28.5t22 89.5v303q0 76 54 122zM86 334h21v44q0 36 20.5 56.5
t58.5 20.5q36 0 55.5 -17t25.5 -55l-52 -7q-4 29 -26 29q-28 0 -28 -33v-38h105v-53h-180v53z" />
    <glyph glyph-name="aJim.fina" unicode="&#x62c;" horiz-adv-x="628" arabic-form="final" 
d="M214 -46h103v-94h-103v94zM197.5 -27q-26.5 -27 -26.5 -72q0 -40 25 -63t68 -23q47 0 71 22t29 68h180q-27 -230 -287 -230q-119 0 -185.5 62.5t-66.5 175.5q0 70 32.5 124t93 84.5t142.5 30.5h82v103q0 58 -15.5 82t-53.5 24q-33 0 -49.5 -15t-23.5 -57l-164 18
q18 101 74.5 147t160.5 46q122 0 181 -60.5t59 -186.5v-101h130v-152h-386q-44 0 -70.5 -27z" />
    <glyph glyph-name="aJim.medi" unicode="&#x62c;" horiz-adv-x="604" arabic-form="medial" 
d="M-15 152h346v103q0 58 -15.5 82t-53.5 24q-33 0 -49.5 -15t-23.5 -57l-164 18q18 101 74.5 147t160.5 46q122 0 181 -60.5t59 -186.5v-101h119v-152h-634v152zM206 -81h147v-130h-147v130z" />
    <glyph glyph-name="aJim.init" unicode="&#x62c;" horiz-adv-x="619" arabic-form="initial" 
d="M-15 152h346v103q0 58 -15.5 82t-53.5 24q-33 0 -49.5 -15t-23.5 -57l-164 18q18 101 74.5 147t160.5 46q122 0 181 -60.5t59 -186.5v-101h74v-152h-589v152zM206 -81h147v-130h-147v130z" />
    <glyph glyph-name="aJim.isol" unicode="&#x62c;" horiz-adv-x="628" arabic-form="isolated" 
d="M214 -46h103v-94h-103v94zM197.5 -27q-26.5 -27 -26.5 -72q0 -40 25 -63t68 -23q47 0 71 22t29 68h180q-27 -230 -287 -230q-119 0 -185.5 62.5t-66.5 175.5q0 70 32.5 124t93 84.5t142.5 30.5h82v103q0 58 -15.5 82t-53.5 24q-33 0 -49.5 -15t-23.5 -57l-164 18
q18 101 74.5 147t160.5 46q122 0 181 -60.5t59 -186.5v-101h74v-152h-330q-44 0 -70.5 -27z" />
    <glyph glyph-name="aTheh.fina" unicode="&#x62b;" horiz-adv-x="885" arabic-form="final" 
d="M110.5 61q-70.5 61 -70.5 192q0 70 30.5 124t90 86t142.5 37l20 -146q-62 -7 -88 -30.5t-26 -71.5q0 -100 112 -100h288v340h169v-340h122v-152h-568q-151 0 -221.5 61zM395 811h122v-114h-122v114zM306 671h122v-115h-122v115zM484 671h122v-115h-122v115z" />
    <glyph glyph-name="aTheh.medi" unicode="&#x62b;" horiz-adv-x="384" arabic-form="medial" 
d="M-15 152h122v340h169v-340h122v-152h-413v152zM67 811h122v-114h-122v114zM-22 671h122v-115h-122v115zM156 671h122v-115h-122v115z" />
    <glyph glyph-name="aTheh.init" unicode="&#x62b;" horiz-adv-x="332" arabic-form="initial" 
d="M-15 152h122v197q0 62 -25 109l155 57q21 -29 30 -65t9 -89v-361h-291v152zM67 811h122v-114h-122v114zM-22 671h122v-115h-122v115zM156 671h122v-115h-122v115z" />
    <glyph glyph-name="aTheh.isol" unicode="&#x62b;" horiz-adv-x="833" arabic-form="isolated" 
d="M110.5 61q-70.5 61 -70.5 192q0 70 30.5 124t90 86t142.5 37l20 -146q-62 -7 -88 -30.5t-26 -71.5q0 -100 112 -100h288v340h169v-492h-446q-151 0 -221.5 61zM395 811h122v-114h-122v114zM306 671h122v-115h-122v115zM484 671h122v-115h-122v115z" />
    <glyph glyph-name="aTeh.fina" unicode="&#x62a;" horiz-adv-x="888" arabic-form="final" 
d="M110.5 61q-70.5 61 -70.5 192q0 70 30.5 124t90 86t142.5 37l20 -146q-62 -7 -88 -30.5t-26 -71.5q0 -100 112 -100h288v340h169v-340h122v-152h-568q-151 0 -221.5 61zM284 700h131v-124h-131v124zM472 700h130v-124h-130v124z" />
    <glyph glyph-name="aTeh.medi" unicode="&#x62a;" horiz-adv-x="384" arabic-form="medial" 
d="M-15 152h122v340h169v-340h122v-152h-413v152zM-40 700h131v-124h-131v124zM148 700h130v-124h-130v124z" />
    <glyph glyph-name="aTeh.init" unicode="&#x62a;" horiz-adv-x="332" arabic-form="initial" 
d="M-15 152h122v197q0 62 -25 109l155 57q21 -29 30 -65t9 -89v-361h-291v152zM-40 700h131v-124h-131v124zM148 700h130v-124h-130v124z" />
    <glyph glyph-name="aTeh.isol" unicode="&#x62a;" horiz-adv-x="833" arabic-form="isolated" 
d="M110.5 61q-70.5 61 -70.5 192q0 70 30.5 124t90 86t142.5 37l20 -146q-62 -7 -88 -30.5t-26 -71.5q0 -100 112 -100h288v340h169v-492h-446q-151 0 -221.5 61zM284 700h131v-124h-131v124zM472 700h130v-124h-130v124z" />
    <glyph glyph-name="aBeh.fina" unicode="&#x628;" horiz-adv-x="888" arabic-form="final" 
d="M110.5 61q-70.5 61 -70.5 192q0 70 30.5 124t90 86t142.5 37l20 -146q-62 -7 -88 -30.5t-26 -71.5q0 -100 112 -100h288v340h169v-340h122v-152h-568q-151 0 -221.5 61zM394 -81h147v-130h-147v130z" />
    <glyph glyph-name="aBeh.medi" unicode="&#x628;" horiz-adv-x="383" arabic-form="medial" 
d="M-15 152h122v340h169v-340h122v-152h-413v152zM117 -81h147v-130h-147v130z" />
    <glyph glyph-name="aBeh.init" unicode="&#x628;" horiz-adv-x="332" arabic-form="initial" 
d="M-15 152h122v197q0 62 -25 109l155 57q21 -29 30 -65t9 -89v-361h-291v152zM117 -81h147v-130h-147v130z" />
    <glyph glyph-name="aBeh.isol" unicode="&#x628;" horiz-adv-x="833" arabic-form="isolated" 
d="M110.5 61q-70.5 61 -70.5 192q0 70 30.5 124t90 86t142.5 37l20 -146q-62 -7 -88 -30.5t-26 -71.5q0 -100 112 -100h288v340h169v-492h-446q-151 0 -221.5 61zM394 -81h147v-130h-147v130z" />
    <glyph glyph-name="aAlif.fina" unicode="&#x627;" horiz-adv-x="331" arabic-form="final" 
d="M55 714h169v-562h122v-152h-291v714z" />
    <glyph glyph-name="aAlif.isol" unicode="&#x627;" horiz-adv-x="279" arabic-form="isolated" 
d="M55 714h169v-714h-169v714z" />
    <glyph glyph-name="aReh.fina" unicode="&#x631;" horiz-adv-x="393" arabic-form="final" 
d="M293 -52q0 -94 -45 -142.5t-133 -48.5q-54 0 -125 20l24 129q37 -8 54 -8q56 0 56 53v541h169v-340h115v-152h-115v-52z" />
    <glyph glyph-name="aReh.isol" unicode="&#x631;" horiz-adv-x="343" arabic-form="isolated" 
d="M68 -102q56 0 56 53v541h169v-544q0 -94 -45 -142.5t-133 -48.5q-54 0 -125 20l24 129q37 -8 54 -8z" />
    <glyph glyph-name="aDhal.fina" unicode="&#x630;" horiz-adv-x="610" arabic-form="final" 
d="M204 707h141v-131h-141v131zM30 152h307v61q0 141 -122 141q-51 0 -115 -26l-43 139q38 16 84.5 25t92.5 9q79 0 140.5 -32t96.5 -92.5t35 -140.5v-84h119v-152h-595v152z" />
    <glyph glyph-name="aDhal.isol" unicode="&#x630;" horiz-adv-x="556" arabic-form="isolated" 
d="M204 707h141v-131h-141v131zM30 152h307v61q0 141 -122 141q-51 0 -115 -26l-43 139q38 16 84.5 25t92.5 9q79 0 140.5 -32t96.5 -92.5t35 -140.5v-236h-476v152z" />
    <glyph glyph-name="aDal.fina" unicode="&#x62f;" horiz-adv-x="610" arabic-form="final" 
d="M30 152h307v61q0 141 -122 141q-51 0 -115 -26l-43 139q38 16 84.5 25t92.5 9q79 0 140.5 -32t96.5 -92.5t35 -140.5v-84h119v-152h-595v152z" />
    <glyph glyph-name="aDal.isol" unicode="&#x62f;" horiz-adv-x="556" arabic-form="isolated" 
d="M30 152h307v61q0 141 -122 141q-51 0 -115 -26l-43 139q38 16 84.5 25t92.5 9q79 0 140.5 -32t96.5 -92.5t35 -140.5v-236h-476v152z" />
    <glyph glyph-name="aKhah.fina" unicode="&#x62e;" horiz-adv-x="628" arabic-form="final" 
d="M197.5 -27q-26.5 -27 -26.5 -72q0 -40 25 -63t68 -23q47 0 71 22t29 68h180q-27 -230 -287 -230q-119 0 -185.5 62.5t-66.5 175.5q0 70 32.5 124t93 84.5t142.5 30.5h82v103q0 58 -15.5 82t-53.5 24q-33 0 -49.5 -15t-23.5 -57l-164 18q18 101 74.5 147t160.5 46
q122 0 181 -60.5t59 -186.5v-101h130v-152h-386q-44 0 -70.5 -27zM216 707h141v-131h-141v131z" />
    <glyph glyph-name="aKhah.medi" unicode="&#x62e;" horiz-adv-x="604" arabic-form="medial" 
d="M-15 152h346v103q0 58 -15.5 82t-53.5 24q-33 0 -49.5 -15t-23.5 -57l-164 18q18 101 74.5 147t160.5 46q122 0 181 -60.5t59 -186.5v-101h119v-152h-634v152zM192 707h141v-131h-141v131z" />
    <glyph glyph-name="aKhah.init" unicode="&#x62e;" horiz-adv-x="604" arabic-form="initial" 
d="M-15 152h346v103q0 58 -15.5 82t-53.5 24q-33 0 -49.5 -15t-23.5 -57l-164 18q18 101 74.5 147t160.5 46q122 0 181 -60.5t59 -186.5v-101h74v-152h-589v152zM192 707h141v-131h-141v131z" />
    <glyph glyph-name="aKhah.isol" unicode="&#x62e;" horiz-adv-x="628" arabic-form="isolated" 
d="M197.5 -27q-26.5 -27 -26.5 -72q0 -40 25 -63t68 -23q47 0 71 22t29 68h180q-27 -230 -287 -230q-119 0 -185.5 62.5t-66.5 175.5q0 70 32.5 124t93 84.5t142.5 30.5h82v103q0 58 -15.5 82t-53.5 24q-33 0 -49.5 -15t-23.5 -57l-164 18q18 101 74.5 147t160.5 46
q122 0 181 -60.5t59 -186.5v-101h74v-152h-330q-44 0 -70.5 -27zM216 707h141v-131h-141v131z" />
    <glyph glyph-name="aHah.fina" unicode="&#x62d;" horiz-adv-x="639" arabic-form="final" 
d="M197.5 -27q-26.5 -27 -26.5 -72q0 -40 25 -63t68 -23q47 0 71 22t29 68h180q-27 -230 -287 -230q-119 0 -185.5 62.5t-66.5 175.5q0 70 32.5 124t93 84.5t142.5 30.5h82v103q0 58 -15.5 82t-53.5 24q-33 0 -49.5 -15t-23.5 -57l-164 18q18 101 74.5 147t160.5 46
q122 0 181 -60.5t59 -186.5v-101h130v-152h-386q-44 0 -70.5 -27z" />
    <glyph glyph-name="aHah.medi" unicode="&#x62d;" horiz-adv-x="604" arabic-form="medial" 
d="M-15 152h346v103q0 58 -15.5 82t-53.5 24q-33 0 -49.5 -15t-23.5 -57l-164 18q18 101 74.5 147t160.5 46q122 0 181 -60.5t59 -186.5v-101h119v-152h-634v152z" />
    <glyph glyph-name="aHah.init" unicode="&#x62d;" horiz-adv-x="619" arabic-form="initial" 
d="M-15 152h346v103q0 58 -15.5 82t-53.5 24q-33 0 -49.5 -15t-23.5 -57l-164 18q18 101 74.5 147t160.5 46q122 0 181 -60.5t59 -186.5v-101h74v-152h-589v152z" />
    <glyph glyph-name="aHah.isol" unicode="&#x62d;" horiz-adv-x="628" arabic-form="isolated" 
d="M197.5 -27q-26.5 -27 -26.5 -72q0 -40 25 -63t68 -23q47 0 71 22t29 68h180q-27 -230 -287 -230q-119 0 -185.5 62.5t-66.5 175.5q0 70 32.5 124t93 84.5t142.5 30.5h82v103q0 58 -15.5 82t-53.5 24q-33 0 -49.5 -15t-23.5 -57l-164 18q18 101 74.5 147t160.5 46
q122 0 181 -60.5t59 -186.5v-101h74v-152h-330q-44 0 -70.5 -27z" />
    <glyph glyph-name="aDad.fina" unicode="&#x636;" horiz-adv-x="1119" arabic-form="final" 
d="M562 0q-1 -115 -67 -178.5t-185 -63.5q-270 0 -270 257q0 45 14 97.5t38 94.5l150 -44q-18 -35 -28 -72t-10 -68q0 -120 98 -120q47 0 69 28.5t22 89.5v471h169v-96q35 55 92.5 83.5t131.5 28.5q109 0 168.5 -69.5t59.5 -194.5v-92h119v-152h-571zM845 213
q0 78 -30.5 115.5t-92.5 37.5q-46 0 -84.5 -23t-61.5 -65t-23 -95v-31h292v61zM669 707h141v-131h-141v131z" />
    <glyph glyph-name="aDad.medi" unicode="&#x636;" horiz-adv-x="832" arabic-form="medial" 
d="M-15 152h122v340h169v-96q35 55 92.5 83.5t131.5 28.5q109 0 168.5 -69.5t59.5 -194.5v-92h119v-152h-862v152zM559 213q0 78 -30.5 115.5t-92.5 37.5q-46 0 -84.5 -23t-61.5 -65t-23 -95v-31h292v61zM377 707h141v-131h-141v131z" />
    <glyph glyph-name="aDad.init" unicode="&#x636;" horiz-adv-x="778" arabic-form="initial" 
d="M-15 152h122v340h169v-96q35 55 92.5 83.5t131.5 28.5q109 0 168.5 -69.5t59.5 -194.5v-244h-743v152zM559 213q0 78 -30.5 115.5t-92.5 37.5q-46 0 -84.5 -23t-61.5 -65t-23 -95v-31h292v61zM377 707h141v-131h-141v131z" />
    <glyph glyph-name="aDad.isol" unicode="&#x636;" horiz-adv-x="1065" arabic-form="isolated" 
d="M562 0q-1 -115 -67 -178.5t-185 -63.5q-270 0 -270 257q0 45 14 97.5t38 94.5l150 -44q-18 -35 -28 -72t-10 -68q0 -120 98 -120q47 0 69 28.5t22 89.5v471h169v-96q35 55 92.5 83.5t131.5 28.5q109 0 168.5 -69.5t59.5 -194.5v-244h-452zM845 213q0 78 -30.5 115.5
t-92.5 37.5q-46 0 -84.5 -23t-61.5 -65t-23 -95v-31h292v61zM663 707h141v-131h-141v131z" />
    <glyph glyph-name="aSad.fina" unicode="&#x635;" horiz-adv-x="1118" arabic-form="final" 
d="M562 0q-1 -115 -67 -178.5t-185 -63.5q-270 0 -270 257q0 45 14 97.5t38 94.5l150 -44q-18 -35 -28 -72t-10 -68q0 -120 98 -120q47 0 69 28.5t22 89.5v471h169v-96q35 55 92.5 83.5t131.5 28.5q109 0 168.5 -69.5t59.5 -194.5v-92h119v-152h-571zM845 213
q0 78 -30.5 115.5t-92.5 37.5q-46 0 -84.5 -23t-61.5 -65t-23 -95v-31h292v61z" />
    <glyph glyph-name="aSad.medi" unicode="&#x635;" horiz-adv-x="832" arabic-form="medial" 
d="M-15 152h122v340h169v-96q35 55 92.5 83.5t131.5 28.5q109 0 168.5 -69.5t59.5 -194.5v-92h119v-152h-862v152zM559 213q0 78 -30.5 115.5t-92.5 37.5q-46 0 -84.5 -23t-61.5 -65t-23 -95v-31h292v61z" />
    <glyph glyph-name="aSad.init" unicode="&#x635;" horiz-adv-x="777" arabic-form="initial" 
d="M-15 152h122v340h169v-96q35 55 92.5 83.5t131.5 28.5q109 0 168.5 -69.5t59.5 -194.5v-244h-743v152zM559 213q0 78 -30.5 115.5t-92.5 37.5q-46 0 -84.5 -23t-61.5 -65t-23 -95v-31h292v61z" />
    <glyph glyph-name="aSad.isol" unicode="&#x635;" horiz-adv-x="1064" arabic-form="isolated" 
d="M562 0q-1 -115 -67 -178.5t-185 -63.5q-270 0 -270 257q0 45 14 97.5t38 94.5l150 -44q-18 -35 -28 -72t-10 -68q0 -120 98 -120q47 0 69 28.5t22 89.5v471h169v-96q35 55 92.5 83.5t131.5 28.5q109 0 168.5 -69.5t59.5 -194.5v-244h-452zM845 213q0 78 -30.5 115.5
t-92.5 37.5q-46 0 -84.5 -23t-61.5 -65t-23 -95v-31h292v61z" />
    <glyph glyph-name="aShin.fina" unicode="&#x634;" horiz-adv-x="1237" arabic-form="final" 
d="M495.5 -178q-66.5 -64 -185.5 -64q-270 0 -270 257q0 45 14 97.5t38 94.5l150 -44q-18 -35 -28 -72t-10 -68q0 -120 98 -120q47 0 69 28.5t22 89.5v471h169v-340h115v340h169v-340h115v197q0 62 -25 109l155 57q21 -29 30 -65t9 -89v-209h122v-152h-690
q0 -114 -66.5 -178zM703 811h122v-114h-122v114zM614 671h122v-115h-122v115zM792 671h122v-115h-122v115z" />
    <glyph glyph-name="aShin.medi" unicode="&#x634;" horiz-adv-x="951" arabic-form="medial" 
d="M-15 152h122v340h169v-340h115v340h169v-340h115v197q0 62 -25 109l155 57q21 -29 30 -65t9 -89v-209h122v-152h-981v152zM417 811h122v-114h-122v114zM328 671h122v-115h-122v115zM506 671h122v-115h-122v115z" />
    <glyph glyph-name="aShin.init" unicode="&#x634;" horiz-adv-x="899" arabic-form="initial" 
d="M-15 152h122v340h169v-340h115v340h169v-340h115v197q0 62 -25 109l155 57q21 -29 30 -65t9 -89v-361h-859v152zM417 811h122v-114h-122v114zM328 671h122v-115h-122v115zM506 671h122v-115h-122v115z" />
    <glyph glyph-name="aShin.isol" unicode="&#x634;" horiz-adv-x="1185" arabic-form="isolated" 
d="M495.5 -178q-66.5 -64 -185.5 -64q-270 0 -270 257q0 45 14 97.5t38 94.5l150 -44q-18 -35 -28 -72t-10 -68q0 -120 98 -120q47 0 69 28.5t22 89.5v471h169v-340h115v340h169v-340h115v197q0 62 -25 109l155 57q21 -29 30 -65t9 -89v-361h-568q0 -114 -66.5 -178z
M703 811h122v-114h-122v114zM614 671h122v-115h-122v115zM792 671h122v-115h-122v115z" />
    <glyph glyph-name="aSin.fina" unicode="&#x633;" horiz-adv-x="1237" arabic-form="final" 
d="M495.5 -178q-66.5 -64 -185.5 -64q-270 0 -270 257q0 45 14 97.5t38 94.5l150 -44q-18 -35 -28 -72t-10 -68q0 -120 98 -120q47 0 69 28.5t22 89.5v471h169v-340h115v340h169v-340h115v197q0 62 -25 109l155 57q21 -29 30 -65t9 -89v-209h122v-152h-690
q0 -114 -66.5 -178z" />
    <glyph glyph-name="aSin.medi" unicode="&#x633;" horiz-adv-x="951" arabic-form="medial" 
d="M-15 152h122v340h169v-340h115v340h169v-340h115v197q0 62 -25 109l155 57q21 -29 30 -65t9 -89v-209h122v-152h-981v152z" />
    <glyph glyph-name="aSin.init" unicode="&#x633;" horiz-adv-x="899" arabic-form="initial" 
d="M-15 152h122v340h169v-340h115v340h169v-340h115v197q0 62 -25 109l155 57q21 -29 30 -65t9 -89v-361h-859v152z" />
    <glyph glyph-name="aSin.isol" unicode="&#x633;" horiz-adv-x="1185" arabic-form="isolated" 
d="M495.5 -178q-66.5 -64 -185.5 -64q-270 0 -270 257q0 45 14 97.5t38 94.5l150 -44q-18 -35 -28 -72t-10 -68q0 -120 98 -120q47 0 69 28.5t22 89.5v471h169v-340h115v340h169v-340h115v197q0 62 -25 109l155 57q21 -29 30 -65t9 -89v-361h-568q0 -114 -66.5 -178z" />
    <glyph glyph-name="aZeh.fina" unicode="&#x632;" horiz-adv-x="393" arabic-form="final" 
d="M293 -52q0 -94 -45 -142.5t-133 -48.5q-54 0 -125 20l24 129q37 -8 54 -8q56 0 56 53v541h169v-340h115v-152h-115v-52zM138 707h141v-131h-141v131z" />
    <glyph glyph-name="aZeh.isol" unicode="&#x632;" horiz-adv-x="343" arabic-form="isolated" 
d="M68 -102q56 0 56 53v541h169v-544q0 -94 -45 -142.5t-133 -48.5q-54 0 -125 20l24 129q37 -8 54 -8zM138 707h141v-131h-141v131z" />
    <glyph glyph-name="aFeh.fina" unicode="&#x641;" horiz-adv-x="1055" arabic-form="final" 
d="M332 0q-151 0 -221.5 61t-70.5 192q0 70 30.5 124t90 86t142.5 37l20 -146q-62 -7 -88 -30.5t-26 -71.5q0 -100 112 -100h201q-55 55 -55 140q0 61 30 110.5t85 77.5t130 28q116 0 177.5 -62.5t61.5 -181.5v-112h119v-152h-738zM786 281q0 45 -17.5 64.5t-57.5 19.5
q-37 0 -57 -25.5t-20 -72.5q0 -60 29 -87.5t91 -27.5h32v129zM636 707h141v-131h-141v131z" />
    <glyph glyph-name="aFeh.medi" unicode="&#x641;" horiz-adv-x="641" arabic-form="medial" 
d="M-15 152h123q-55 55 -55 140q0 59 30 108.5t85.5 78.5t129.5 29q116 0 177.5 -62.5t61.5 -181.5v-112h119v-152h-671v152zM372 281q0 45 -17.5 64.5t-57.5 19.5q-37 0 -57 -25.5t-20 -72.5q0 -60 29 -87.5t91 -27.5h32v129zM231 707h141v-131h-141v131z" />
    <glyph glyph-name="aFeh.init" unicode="&#x641;" horiz-adv-x="587" arabic-form="initial" 
d="M-15 152h123q-55 55 -55 140q0 59 30 108.5t85.5 78.5t129.5 29q116 0 177.5 -62.5t61.5 -181.5v-264h-552v152zM372 281q0 45 -17.5 64.5t-57.5 19.5q-37 0 -57 -25.5t-20 -72.5q0 -60 29 -87.5t91 -27.5h32v129zM231 707h141v-131h-141v131z" />
    <glyph glyph-name="aFeh.isol" unicode="&#x641;" horiz-adv-x="1001" arabic-form="isolated" 
d="M522 152q-55 55 -55 140q0 61 30 110.5t85 77.5t130 28q116 0 177.5 -62.5t61.5 -181.5v-264h-619q-151 0 -221.5 61t-70.5 192q0 70 30.5 124t90 86t142.5 37l20 -146q-62 -7 -88 -30.5t-26 -71.5q0 -100 112 -100h201zM786 281q0 45 -17.5 64.5t-57.5 19.5
q-37 0 -57 -25.5t-20 -72.5q0 -60 29 -87.5t91 -27.5h32v129zM636 707h141v-131h-141v131z" />
    <glyph glyph-name="aGhayn.fina" unicode="&#x63a;" horiz-adv-x="674" arabic-form="final" 
d="M197.5 -27q-26.5 -27 -26.5 -72q0 -40 25 -63t68 -23q47 0 71 22t29 68h180q-27 -230 -287 -230q-119 0 -185.5 62.5t-66.5 175.5q0 87 50 148.5t139 81.5v110q0 126 59 186.5t181 60.5q104 0 160.5 -46t74.5 -147l-164 -18q-7 42 -23.5 57t-49.5 15q-38 0 -53.5 -24
t-15.5 -82v-103h326v-152h-421q-44 0 -70.5 -27zM361 707h141v-131h-141v131z" />
    <glyph glyph-name="aGhayn.medi" unicode="&#x63a;" horiz-adv-x="581" arabic-form="medial" 
d="M-15 152h116v101q0 126 59 186.5t181 60.5q104 0 160.5 -46t74.5 -147l-164 -18q-7 42 -23.5 57t-49.5 15q-38 0 -53.5 -24t-15.5 -82v-103h326v-152h-611v152zM267 707h141v-131h-141v131z" />
    <glyph glyph-name="aGhayn.init" unicode="&#x63a;" horiz-adv-x="623" arabic-form="initial" 
d="M-15 152h116v101q0 126 59 186.5t181 60.5q104 0 160.5 -46t74.5 -147l-164 -18q-7 42 -23.5 57t-49.5 15q-38 0 -53.5 -24t-15.5 -82v-103h323v-152h-608v152zM267 707h141v-131h-141v131z" />
    <glyph glyph-name="aGhayn.isol" unicode="&#x63a;" horiz-adv-x="716" arabic-form="isolated" 
d="M197.5 -27q-26.5 -27 -26.5 -72q0 -40 25 -63t68 -23q47 0 71 22t29 68h180q-27 -230 -287 -230q-119 0 -185.5 62.5t-66.5 175.5q0 87 50 148.5t139 81.5v110q0 126 59 186.5t181 60.5q104 0 160.5 -46t74.5 -147l-164 -18q-7 42 -23.5 57t-49.5 15q-38 0 -53.5 -24
t-15.5 -82v-103h323v-152h-418q-44 0 -70.5 -27zM361 707h141v-131h-141v131z" />
    <glyph glyph-name="aAyn.fina" unicode="&#x639;" horiz-adv-x="674" arabic-form="final" 
d="M197.5 -27q-26.5 -27 -26.5 -72q0 -40 25 -63t68 -23q47 0 71 22t29 68h180q-27 -230 -287 -230q-119 0 -185.5 62.5t-66.5 175.5q0 87 50 148.5t139 81.5v110q0 126 59 186.5t181 60.5q104 0 160.5 -46t74.5 -147l-164 -18q-7 42 -23.5 57t-49.5 15q-38 0 -53.5 -24
t-15.5 -82v-103h326v-152h-421q-44 0 -70.5 -27z" />
    <glyph glyph-name="aAyn.medi" unicode="&#x639;" horiz-adv-x="581" arabic-form="medial" 
d="M-15 152h116v101q0 126 59 186.5t181 60.5q104 0 160.5 -46t74.5 -147l-164 -18q-7 42 -23.5 57t-49.5 15q-38 0 -53.5 -24t-15.5 -82v-103h326v-152h-611v152z" />
    <glyph glyph-name="aAyn.init" unicode="&#x639;" horiz-adv-x="623" arabic-form="initial" 
d="M-15 152h116v101q0 126 59 186.5t181 60.5q104 0 160.5 -46t74.5 -147l-164 -18q-7 42 -23.5 57t-49.5 15q-38 0 -53.5 -24t-15.5 -82v-103h323v-152h-608v152z" />
    <glyph glyph-name="aAyn.isol" unicode="&#x639;" horiz-adv-x="716" arabic-form="isolated" 
d="M197.5 -27q-26.5 -27 -26.5 -72q0 -40 25 -63t68 -23q47 0 71 22t29 68h180q-27 -230 -287 -230q-119 0 -185.5 62.5t-66.5 175.5q0 87 50 148.5t139 81.5v110q0 126 59 186.5t181 60.5q104 0 160.5 -46t74.5 -147l-164 -18q-7 42 -23.5 57t-49.5 15q-38 0 -53.5 -24
t-15.5 -82v-103h323v-152h-418q-44 0 -70.5 -27z" />
    <glyph glyph-name="aZah.fina" unicode="&#x638;" horiz-adv-x="832" arabic-form="final" 
d="M397 707h141v-131h-141v131zM30 152h77v562h169v-319q35 55 92.5 84t130.5 29q109 0 169 -69.5t60 -194.5v-92h119v-152h-817v152zM559 213q0 78 -30.5 115.5t-92.5 37.5q-46 0 -84.5 -23t-61.5 -65t-23 -95v-31h292v61z" />
    <glyph glyph-name="aZah.medi" unicode="&#x638;" horiz-adv-x="832" arabic-form="medial" 
d="M-15 152h122v562h169v-319q35 55 92.5 84t130.5 29q109 0 169 -69.5t60 -194.5v-92h119v-152h-862v152zM559 213q0 78 -30.5 115.5t-92.5 37.5q-46 0 -84.5 -23t-61.5 -65t-23 -95v-31h292v61zM397 707h141v-131h-141v131z" />
    <glyph glyph-name="aZah.init" unicode="&#x638;" horiz-adv-x="777" arabic-form="initial" 
d="M397 707h141v-131h-141v131zM-15 152h122v562h169v-319q35 55 93 84t131 29q109 0 168.5 -69.5t59.5 -194.5v-244h-743v152zM559 213q0 78 -30.5 115.5t-92.5 37.5q-46 0 -84.5 -23t-61.5 -65t-23 -95v-31h292v61z" />
    <glyph glyph-name="aZah.isol" unicode="&#x638;" horiz-adv-x="779" arabic-form="isolated" 
d="M30 152h77v562h169v-319q35 55 93 84t131 29q109 0 168.5 -69.5t59.5 -194.5v-244h-698v152zM559 213q0 78 -30.5 115.5t-92.5 37.5q-46 0 -84.5 -23t-61.5 -65t-23 -95v-31h292v61zM397 707h141v-131h-141v131z" />
    <glyph glyph-name="aTah.fina" unicode="&#x637;" horiz-adv-x="832" arabic-form="final" 
d="M30 152h77v562h169v-319q35 55 92.5 84t130.5 29q109 0 169 -69.5t60 -194.5v-92h119v-152h-817v152zM559 213q0 78 -30.5 115.5t-92.5 37.5q-46 0 -84.5 -23t-61.5 -65t-23 -95v-31h292v61z" />
    <glyph glyph-name="aTah.medi" unicode="&#x637;" horiz-adv-x="832" arabic-form="medial" 
d="M-15 152h122v562h169v-319q35 55 92.5 84t130.5 29q109 0 169 -69.5t60 -194.5v-92h119v-152h-862v152zM559 213q0 78 -30.5 115.5t-92.5 37.5q-46 0 -84.5 -23t-61.5 -65t-23 -95v-31h292v61z" />
    <glyph glyph-name="aTah.init" unicode="&#x637;" horiz-adv-x="777" arabic-form="initial" 
d="M-15 152h122v562h169v-319q35 55 93 84t131 29q109 0 168.5 -69.5t59.5 -194.5v-244h-743v152zM559 213q0 78 -30.5 115.5t-92.5 37.5q-46 0 -84.5 -23t-61.5 -65t-23 -95v-31h292v61z" />
    <glyph glyph-name="aTah.isol" unicode="&#x637;" horiz-adv-x="778" arabic-form="isolated" 
d="M30 152h77v562h169v-319q35 55 93 84t131 29q109 0 168.5 -69.5t59.5 -194.5v-244h-698v152zM559 213q0 78 -30.5 115.5t-92.5 37.5q-46 0 -84.5 -23t-61.5 -65t-23 -95v-31h292v61z" />
    <glyph glyph-name="aNun.fina" unicode="&#x646;" horiz-adv-x="669" arabic-form="final" 
d="M495.5 -178q-66.5 -64 -185.5 -64q-270 0 -270 257q0 45 14 97.5t38 94.5l150 -44q-18 -35 -28 -72t-10 -68q0 -120 98 -120q47 0 69 28.5t22 89.5v471h169v-340h122v-152h-122q0 -114 -66.5 -178zM220 707h141v-131h-141v131z" />
    <glyph glyph-name="aNun.medi" unicode="&#x646;" horiz-adv-x="384" arabic-form="medial" 
d="M-15 152h122v340h169v-340h122v-152h-413v152zM122 707h141v-131h-141v131z" />
    <glyph glyph-name="aNun.init" unicode="&#x646;" horiz-adv-x="332" arabic-form="initial" 
d="M-15 152h122v197q0 62 -25 109l155 57q21 -29 30 -65t9 -89v-361h-291v152zM112 707h141v-131h-141v131z" />
    <glyph glyph-name="aNun.isol" unicode="&#x646;" horiz-adv-x="617" arabic-form="isolated" 
d="M562 492v-492q0 -114 -66.5 -178t-185.5 -64q-270 0 -270 257q0 45 14 97.5t38 94.5l150 -44q-18 -35 -28 -72t-10 -68q0 -120 98 -120q47 0 69 28.5t22 89.5v471h169zM220 707h141v-131h-141v131z" />
    <glyph glyph-name="aMim.fina" unicode="&#x645;" horiz-adv-x="722" arabic-form="final" 
d="M199 -277h-169v429h153v110q0 120 61.5 183t177.5 63q69 0 124.5 -28t88 -80t32.5 -119q0 -77 -56 -130h126v-151h-538v-277zM380 152q62 0 91 27.5t29 87.5q0 47 -20 72.5t-57 25.5q-40 0 -57.5 -19.5t-17.5 -65.5v-128h32z" />
    <glyph glyph-name="aMim.medi" unicode="&#x645;" horiz-adv-x="643" arabic-form="medial" 
d="M-15 152h119v110q0 120 61.5 183t177.5 63q69 0 124.5 -28t88 -80t32.5 -119q0 -77 -56 -130h126v-151h-673v152zM301 152q62 0 91 27.5t29 87.5q0 47 -20 72.5t-57 25.5q-40 0 -57.5 -19.5t-17.5 -65.5v-128h32z" />
    <glyph glyph-name="aMim.init" unicode="&#x645;" horiz-adv-x="628" arabic-form="initial" 
d="M-15 152h119v110q0 120 61.5 183t177.5 63q71 0 126.5 -29t87 -84.5t31.5 -131.5q0 -126 -77.5 -194.5t-219.5 -68.5h-306v152zM301 152q62 0 91 27.5t29 87.5q0 47 -20 72.5t-57 25.5q-40 0 -57.5 -19.5t-17.5 -65.5v-128h32z" />
    <glyph glyph-name="aMim.isol" unicode="&#x645;" horiz-adv-x="724" arabic-form="isolated" 
d="M183 262q0 120 61.5 183t177.5 63q71 0 126.5 -29t87 -84.5t31.5 -131.5q0 -126 -77.5 -194.5t-219.5 -68.5h-171v-277h-169v429h153v110zM380 152q62 0 91 27.5t29 87.5q0 47 -20 72.5t-57 25.5q-40 0 -57.5 -19.5t-17.5 -65.5v-128h32z" />
    <glyph glyph-name="aLam.fina" unicode="&#x644;" horiz-adv-x="669" arabic-form="final" 
d="M495.5 -178q-66.5 -64 -185.5 -64q-270 0 -270 241q0 49 12 104.5t34 104.5l155 -39q-16 -33 -26.5 -76.5t-10.5 -77.5q0 -55 24.5 -83.5t73.5 -28.5q47 0 69 28.5t22 89.5v693h169v-562h122v-152h-122q0 -114 -66.5 -178z" />
    <glyph glyph-name="aLam.medi" unicode="&#x644;" horiz-adv-x="383" arabic-form="medial" 
d="M-15 152h122v562h169v-562h122v-152h-413v152z" />
    <glyph glyph-name="aLam.init" unicode="&#x644;" horiz-adv-x="331" arabic-form="initial" 
d="M-15 152h122v562h169v-714h-291v152z" />
    <glyph glyph-name="aLam.isol" unicode="&#x644;" horiz-adv-x="617" arabic-form="isolated" 
d="M562 714v-714q0 -114 -66.5 -178t-185.5 -64q-270 0 -270 241q0 49 12 104.5t34 104.5l155 -39q-16 -33 -26.5 -76.5t-10.5 -77.5q0 -55 24.5 -83.5t73.5 -28.5q47 0 69 28.5t22 89.5v693h169z" />
    <glyph glyph-name="aKaf.fina" unicode="&#x643;" horiz-adv-x="885" arabic-form="final" 
d="M110.5 61q-70.5 61 -70.5 192q0 70 30.5 124t90 86t142.5 37l20 -146q-62 -7 -88 -30.5t-26 -71.5q0 -100 112 -100h288v562h169v-562h122v-152h-568q-151 0 -221.5 61zM368 419h21v44q0 36 20.5 56.5t58.5 20.5q36 0 55.5 -17t25.5 -55l-52 -7q-4 29 -26 29
q-28 0 -28 -33v-38h105v-53h-180v53z" />
    <glyph glyph-name="aKaf.medi" unicode="&#x643;" horiz-adv-x="629" arabic-form="medial" 
d="M-15 152h371v62q0 58 -14.5 87.5t-46 41t-88.5 11.5h-176v120l287 240h225l-270 -218l22 -2q230 -21 230 -241v-101h119v-152h-659v152z" />
    <glyph glyph-name="aKaf.init" unicode="&#x643;" horiz-adv-x="583" arabic-form="initial" 
d="M-15 152h371v62q0 58 -14.5 87.5t-46 41t-88.5 11.5h-176v120l287 240h225l-270 -218l22 -2q230 -21 230 -241v-253h-540v152z" />
    <glyph glyph-name="aKaf.isol" unicode="&#x643;" horiz-adv-x="833" arabic-form="isolated" 
d="M110.5 61q-70.5 61 -70.5 192q0 70 30.5 124t90 86t142.5 37l20 -146q-62 -7 -88 -30.5t-26 -71.5q0 -100 112 -100h288v562h169v-714h-446q-151 0 -221.5 61zM368 419h21v44q0 36 20.5 56.5t58.5 20.5q36 0 55.5 -17t25.5 -55l-52 -7q-4 29 -26 29q-28 0 -28 -33v-38
h105v-53h-180v53z" />
    <glyph glyph-name="aQaf.fina" unicode="&#x642;" horiz-adv-x="763" arabic-form="final" 
d="M659 -14q0 -110 -75 -166t-223 -56q-168 0 -249.5 59.5t-81.5 182.5h172q3 -57 36.5 -79t116.5 -22q75 0 107 22t32 73h-22q-140 0 -218.5 69.5t-78.5 193.5q0 73 29.5 128t85.5 86t130 31q116 0 177.5 -63t61.5 -183v-110h119v-152h-119v-14zM494 280q0 46 -17.5 65.5
t-57.5 19.5q-37 0 -57 -25.5t-20 -72.5q0 -60 29 -87.5t91 -27.5h32v128zM256 700h131v-124h-131v124zM444 700h130v-124h-130v124z" />
    <glyph glyph-name="aQaf.medi" unicode="&#x642;" horiz-adv-x="641" arabic-form="medial" 
d="M-15 152h123q-55 55 -55 140q0 59 30 108.5t85.5 78.5t129.5 29q116 0 177.5 -62.5t61.5 -181.5v-112h119v-152h-671v152zM372 281q0 45 -17.5 64.5t-57.5 19.5q-37 0 -57 -25.5t-20 -72.5q0 -60 29 -87.5t91 -27.5h32v129zM143 700h131v-124h-131v124zM331 700h130v-124
h-130v124z" />
    <glyph glyph-name="aQaf.init" unicode="&#x642;" horiz-adv-x="587" arabic-form="initial" 
d="M-15 152h123q-55 55 -55 140q0 59 30 108.5t85.5 78.5t129.5 29q116 0 177.5 -62.5t61.5 -181.5v-264h-552v152zM372 281q0 45 -17.5 64.5t-57.5 19.5q-37 0 -57 -25.5t-20 -72.5q0 -60 29 -87.5t91 -27.5h32v129zM143 700h131v-124h-131v124zM331 700h130v-124h-130v124
z" />
    <glyph glyph-name="aQaf.isol" unicode="&#x642;" horiz-adv-x="709" arabic-form="isolated" 
d="M472 0q-140 0 -218.5 69.5t-78.5 193.5q0 73 29.5 128t85.5 86t130 31q116 0 177.5 -63t61.5 -183v-276q0 -110 -75 -166t-223 -56q-168 0 -249.5 59.5t-81.5 182.5h172q3 -57 36.5 -79t116.5 -22q75 0 107 22t32 73h-22zM494 280q0 46 -17.5 65.5t-57.5 19.5
q-37 0 -57 -25.5t-20 -72.5q0 -60 29 -87.5t91 -27.5h32v128zM256 700h131v-124h-131v124zM444 700h130v-124h-130v124z" />
    <glyph glyph-name="aTehMarbuta.fina" unicode="&#x629;" horiz-adv-x="628" arabic-form="final" 
d="M337 0q-142 0 -219.5 68.5t-77.5 194.5q0 73 29.5 128t85.5 86t130 31q116 0 177.5 -63t61.5 -183v-110h119v-152h-306zM359 280q0 46 -17.5 65.5t-57.5 19.5q-37 0 -57 -25.5t-20 -72.5q0 -60 29 -87.5t91 -27.5h32v128zM124 700h131v-124h-131v124zM312 700h130v-124
h-130v124z" />
    <glyph glyph-name="aTehMarbuta.isol" unicode="&#x629;" horiz-adv-x="572" arabic-form="isolated" 
d="M285 -15q-116 0 -180.5 68t-64.5 191q0 124 65 192t183 68q116 0 180 -67.5t64 -189.5q0 -128 -63.5 -195t-183.5 -67zM286 125q43 0 63.5 29t20.5 91t-20.5 90.5t-63.5 28.5t-63.5 -29t-20.5 -91t20.5 -90.5t63.5 -28.5zM126 700h131v-124h-131v124zM314 700h130v-124
h-130v124z" />
    <glyph glyph-name="aYeh.fina" unicode="&#x64a;" horiz-adv-x="961" arabic-form="final" 
d="M684 340h-61q-28 0 -44.5 -11.5t-16.5 -31.5v-297q0 -114 -66.5 -178t-185.5 -64q-270 0 -270 257q0 45 14 97.5t38 94.5l150 -44q-18 -35 -28 -72t-10 -68q0 -120 98 -120q47 0 69 28.5t22 89.5v303q0 76 54 122t142 46h264v-340h122v-152h-291v340zM144 -316h130v-123
h-130v123zM331 -316h129v-123h-129v123z" />
    <glyph glyph-name="aYeh.medi" unicode="&#x64a;" horiz-adv-x="384" arabic-form="medial" 
d="M-15 152h122v340h169v-340h122v-152h-413v152zM-45 -81h130v-123h-130v123zM142 -81h129v-123h-129v123z" />
    <glyph glyph-name="aYeh.init" unicode="&#x64a;" horiz-adv-x="332" arabic-form="initial" 
d="M-15 152h122v197q0 62 -25 109l155 57q21 -29 30 -65t9 -89v-361h-291v152zM-45 -81h130v-123h-130v123zM142 -81h129v-123h-129v123z" />
    <glyph glyph-name="aYeh.isol" unicode="&#x64a;" horiz-adv-x="722" arabic-form="isolated" 
d="M447 446q54 46 142 46h107v-152h-73q-28 0 -44.5 -11.5t-16.5 -31.5v-297q0 -114 -66.5 -178t-185.5 -64q-270 0 -270 257q0 45 14 97.5t38 94.5l150 -44q-18 -35 -28 -72t-10 -68q0 -120 98 -120q47 0 69 28.5t22 89.5v303q0 76 54 122zM144 -316h130v-123h-130v123z
M331 -316h129v-123h-129v123z" />
    <glyph glyph-name="aWaw.fina" unicode="&#x648;" horiz-adv-x="640" arabic-form="final" 
d="M288 -249q-212 0 -244 208h172q7 -36 23.5 -51.5t49.5 -15.5q44 0 62.5 24.5t18.5 83.5q-318 3 -318 263q0 72 29.5 127.5t85 86.5t130.5 31q116 0 177.5 -63t61.5 -183v-110h119v-152h-119q0 -126 -61.5 -187.5t-186.5 -61.5zM371 280q0 46 -17.5 65.5t-57.5 19.5
q-37 0 -57 -25.5t-20 -72.5q0 -59 29 -87t91 -28h32v128z" />
    <glyph glyph-name="aWaw.isol" unicode="&#x648;" horiz-adv-x="591" arabic-form="isolated" 
d="M370 0q-318 3 -318 263q0 72 29.5 127.5t85 86.5t130.5 31q116 0 177.5 -63t61.5 -183v-262q0 -126 -61.5 -187.5t-186.5 -61.5q-212 0 -244 208h172q7 -36 23.5 -51.5t49.5 -15.5q44 0 62.5 24.5t18.5 83.5zM371 280q0 46 -17.5 65.5t-57.5 19.5q-37 0 -57 -25.5
t-20 -72.5q0 -59 29 -87t91 -28h32v128z" />
    <glyph glyph-name="aHeh.fina" unicode="&#x647;" horiz-adv-x="628" arabic-form="final" 
d="M337 0q-142 0 -219.5 68.5t-77.5 194.5q0 73 29.5 128t85.5 86t130 31q116 0 177.5 -63t61.5 -183v-110h119v-152h-306zM359 280q0 46 -17.5 65.5t-57.5 19.5q-37 0 -57 -25.5t-20 -72.5q0 -60 29 -87.5t91 -27.5h32v128z" />
    <glyph glyph-name="aHeh.medi" unicode="&#x647;" horiz-adv-x="630" arabic-form="medial" 
d="M515 0q25 -13 40.5 -41t15.5 -60q0 -74 -57.5 -112t-170.5 -38q-127 0 -189.5 52.5t-62.5 160.5v38h-106v152h106v106q0 111 61 170.5t176 59.5q112 0 169.5 -49.5t57.5 -146.5q0 -91 -79 -140h169v-152h-130zM258 152q64 0 100.5 34.5t36.5 95.5q0 39 -18 61t-51 22
q-39 0 -57 -20.5t-18 -64.5v-128h7zM253 -38q0 -38 22.5 -62t59.5 -24q40 0 58 13t18 42q0 32 -31.5 50.5t-87.5 18.5h-39v-38z" />
    <glyph glyph-name="aHeh.init" unicode="&#x647;" horiz-adv-x="854" arabic-form="initial" 
d="M-15 152h151q-25 27 -38.5 64.5t-13.5 78.5q0 61 27.5 110t78 78t116.5 29q37 0 79 -9q33 27 79.5 42t97.5 15q117 0 179.5 -59t62.5 -170v-331h-819v152zM640 329q0 42 -21.5 68t-59.5 26q-29 0 -53 -12q29 -43 29 -148v-111h105v177zM379 266q0 58 -15 81t-52 23
q-31 0 -47.5 -24t-16.5 -68q0 -56 36 -91t95 -35v114z" />
    <glyph glyph-name="aHeh.isol" unicode="&#x647;" horiz-adv-x="572" arabic-form="isolated" 
d="M285 -15q-116 0 -180.5 68t-64.5 191q0 124 65 192t183 68q116 0 180 -67.5t64 -189.5q0 -128 -63.5 -195t-183.5 -67zM286 125q43 0 63.5 29t20.5 91t-20.5 90.5t-63.5 28.5t-63.5 -29t-20.5 -91t20.5 -90.5t63.5 -28.5z" />
    <glyph glyph-name="aAlifMaksura.fina" unicode="&#x649;" horiz-adv-x="960" arabic-form="final" 
d="M684 340h-61q-28 0 -44.5 -11.5t-16.5 -31.5v-297q0 -114 -66.5 -178t-185.5 -64q-270 0 -270 257q0 45 14 97.5t38 94.5l150 -44q-18 -35 -28 -72t-10 -68q0 -120 98 -120q47 0 69 28.5t22 89.5v303q0 76 54 122t142 46h264v-340h122v-152h-291v340z" />
    <glyph glyph-name="aAlifMaksura.medi" unicode="&#x649;" horiz-adv-x="383" arabic-form="medial" 
d="M-15 152h122v340h169v-340h122v-152h-413v152z" />
    <glyph glyph-name="aAlifMaksura.init" unicode="&#x649;" horiz-adv-x="331" arabic-form="initial" 
d="M-15 152h122v197q0 62 -25 109l155 57q21 -29 30 -65t9 -89v-361h-291v152z" />
    <glyph glyph-name="aAlifMaksura.isol" unicode="&#x649;" horiz-adv-x="722" arabic-form="isolated" 
d="M447 446q54 46 142 46h107v-152h-73q-28 0 -44.5 -11.5t-16.5 -31.5v-297q0 -114 -66.5 -178t-185.5 -64q-270 0 -270 257q0 45 14 97.5t38 94.5l150 -44q-18 -35 -28 -72t-10 -68q0 -120 98 -120q47 0 69 28.5t22 89.5v303q0 76 54 122z" />
    <glyph glyph-name="aAlifWasla.fina" unicode="&#x671;" horiz-adv-x="331" arabic-form="final" 
d="M55 714h169v-562h122v-152h-291v714zM25 818h19v106h49v-41q26 35 72 35q35 0 54.5 -21t19.5 -57v-71h-214v49zM187 832q0 36 -35 36q-18 0 -33 -13t-15 -30v-7h83v14z" />
    <glyph glyph-name="aAlifWasla.isol" unicode="&#x671;" horiz-adv-x="279" arabic-form="isolated" 
d="M55 714h169v-714h-169v714zM25 818h19v106h49v-41q26 35 72 35q35 0 54.5 -21t19.5 -57v-71h-214v49zM187 832q0 36 -35 36q-18 0 -33 -13t-15 -30v-7h83v14z" />
    <glyph glyph-name="aTteh.fina" unicode="&#x679;" horiz-adv-x="885" arabic-form="final" 
d="M110.5 61q-70.5 61 -70.5 192q0 70 30.5 124t90 86t142.5 37l20 -146q-62 -7 -88 -30.5t-26 -71.5q0 -100 112 -100h288v340h169v-340h122v-152h-568q-151 0 -221.5 61zM341 610h19v154h49v-89q26 35 72 35q35 0 54.5 -21t19.5 -57v-71h-214v49zM503 624q0 36 -35 36
q-18 0 -33 -13t-15 -30v-7h83v14z" />
    <glyph glyph-name="aTteh.medi" unicode="&#x679;" horiz-adv-x="384" arabic-form="medial" 
d="M-15 152h122v340h169v-340h122v-152h-413v152zM65 610h19v154h49v-89q26 35 72 35q35 0 54.5 -21t19.5 -57v-71h-214v49zM227 624q0 36 -35 36q-18 0 -33 -13t-15 -30v-7h83v14z" />
    <glyph glyph-name="aTteh.init" unicode="&#x679;" horiz-adv-x="332" arabic-form="initial" 
d="M-15 152h122v197q0 62 -25 109l155 57q21 -29 30 -65t9 -89v-361h-291v152zM53 610h19v154h49v-89q26 35 72 35q35 0 54.5 -21t19.5 -57v-71h-214v49zM215 624q0 36 -35 36q-18 0 -33 -13t-15 -30v-7h83v14z" />
    <glyph glyph-name="aTteh.isol" unicode="&#x679;" horiz-adv-x="833" arabic-form="isolated" 
d="M110.5 61q-70.5 61 -70.5 192q0 70 30.5 124t90 86t142.5 37l20 -146q-62 -7 -88 -30.5t-26 -71.5q0 -100 112 -100h288v340h169v-492h-446q-151 0 -221.5 61zM341 610h19v154h49v-89q26 35 72 35q35 0 54.5 -21t19.5 -57v-71h-214v49zM503 624q0 36 -35 36
q-18 0 -33 -13t-15 -30v-7h83v14z" />
    <glyph glyph-name="aPeh.fina" unicode="&#x67e;" horiz-adv-x="885" arabic-form="final" 
d="M110.5 61q-70.5 61 -70.5 192q0 70 30.5 124t90 86t142.5 37l20 -146q-62 -7 -88 -30.5t-26 -71.5q0 -100 112 -100h288v340h169v-340h122v-152h-568q-151 0 -221.5 61zM440 -182h-122v115h122v-115zM618 -182h-122v115h122v-115zM529 -322h-122v114h122v-114z" />
    <glyph glyph-name="aPeh.medi" unicode="&#x67e;" horiz-adv-x="384" arabic-form="medial" 
d="M-15 152h122v340h169v-340h122v-152h-413v152zM100 -182h-122v115h122v-115zM278 -182h-122v115h122v-115zM189 -322h-122v114h122v-114z" />
    <glyph glyph-name="aPeh.init" unicode="&#x67e;" horiz-adv-x="332" arabic-form="initial" 
d="M-15 152h122v197q0 62 -25 109l155 57q21 -29 30 -65t9 -89v-361h-291v152zM100 -182h-122v115h122v-115zM278 -182h-122v115h122v-115zM189 -322h-122v114h122v-114z" />
    <glyph glyph-name="aPeh.isol" unicode="&#x67e;" horiz-adv-x="833" arabic-form="isolated" 
d="M110.5 61q-70.5 61 -70.5 192q0 70 30.5 124t90 86t142.5 37l20 -146q-62 -7 -88 -30.5t-26 -71.5q0 -100 112 -100h288v340h169v-492h-446q-151 0 -221.5 61zM440 -182h-122v115h122v-115zM618 -182h-122v115h122v-115zM529 -322h-122v114h122v-114z" />
    <glyph glyph-name="aTcheh.fina" unicode="&#x686;" horiz-adv-x="628" arabic-form="final" 
d="M268 0q-44 0 -70.5 -27t-26.5 -72q0 -42 28.5 -62t88.5 -20v-144q-283 0 -283 238q0 70 32.5 124t93 84.5t142.5 30.5h82v93q0 61 -16.5 88.5t-52.5 27.5q-31 0 -48.5 -17t-24.5 -55l-164 18q18 101 74.5 147t160.5 46q122 0 181 -60.5t59 -186.5v-101h119v-152h-375z
M313 -62h108v-98h-108v98zM461 -62h108v-98h-108v98zM387 -182h108v-97h-108v97z" />
    <glyph glyph-name="aTcheh.medi" unicode="&#x686;" horiz-adv-x="604" arabic-form="medial" 
d="M-15 152h346v103q0 58 -15.5 82t-53.5 24q-33 0 -49.5 -15t-23.5 -57l-164 18q18 101 74.5 147t160.5 46q122 0 181 -60.5t59 -186.5v-101h119v-152h-634v152zM252 -182h-122v115h122v-115zM430 -182h-122v115h122v-115zM341 -322h-122v114h122v-114z" />
    <glyph glyph-name="aTcheh.init" unicode="&#x686;" horiz-adv-x="604" arabic-form="initial" 
d="M-15 152h346v103q0 58 -15.5 82t-53.5 24q-33 0 -49.5 -15t-23.5 -57l-164 18q18 101 74.5 147t160.5 46q122 0 181 -60.5t59 -186.5v-101h74v-152h-589v152zM252 -182h-122v115h122v-115zM430 -182h-122v115h122v-115zM341 -322h-122v114h122v-114z" />
    <glyph glyph-name="aTcheh.isol" unicode="&#x686;" horiz-adv-x="650" arabic-form="isolated" 
d="M268 0q-44 0 -70.5 -27t-26.5 -72q0 -42 28.5 -62t88.5 -20v-144q-283 0 -283 238q0 70 32.5 124t93 84.5t142.5 30.5h82v93q0 61 -16.5 88.5t-52.5 27.5q-31 0 -48.5 -17t-24.5 -55l-164 18q18 101 74.5 147t160.5 46q122 0 181 -60.5t59 -186.5v-101h74v-152h-330z
M313 -62h108v-98h-108v98zM461 -62h108v-98h-108v98zM387 -182h108v-97h-108v97z" />
    <glyph glyph-name="aDdal.fina" unicode="&#x688;" horiz-adv-x="610" arabic-form="final" 
d="M30 152h307v61q0 141 -122 141q-51 0 -115 -26l-43 139q38 16 84.5 25t92.5 9q79 0 140.5 -32t96.5 -92.5t35 -140.5v-84h119v-152h-595v152zM158 624h19v154h49v-89q26 35 72 35q35 0 54.5 -21t19.5 -57v-71h-214v49zM320 638q0 36 -35 36q-18 0 -33 -13t-15 -30v-7h83
v14z" />
    <glyph glyph-name="aDdal.isol" unicode="&#x688;" horiz-adv-x="556" arabic-form="isolated" 
d="M30 152h307v61q0 141 -122 141q-51 0 -115 -26l-43 139q38 16 84.5 25t92.5 9q79 0 140.5 -32t96.5 -92.5t35 -140.5v-236h-476v152zM158 624h19v154h49v-89q26 35 72 35q35 0 54.5 -21t19.5 -57v-71h-214v49zM320 638q0 36 -35 36q-18 0 -33 -13t-15 -30v-7h83v14z" />
    <glyph glyph-name="aRreh.fina" unicode="&#x691;" horiz-adv-x="393" arabic-form="final" 
d="M293 -52q0 -94 -45 -142.5t-133 -48.5q-54 0 -125 20l24 129q37 -8 54 -8q56 0 56 53v541h169v-340h115v-152h-115v-52zM79 624h19v154h49v-89q26 35 72 35q35 0 54.5 -21t19.5 -57v-71h-214v49zM241 638q0 36 -35 36q-18 0 -33 -13t-15 -30v-7h83v14z" />
    <glyph glyph-name="aRreh.isol" unicode="&#x691;" horiz-adv-x="343" arabic-form="isolated" 
d="M68 -102q56 0 56 53v541h169v-544q0 -94 -45 -142.5t-133 -48.5q-54 0 -125 20l24 129q37 -8 54 -8zM79 624h19v154h49v-89q26 35 72 35q35 0 54.5 -21t19.5 -57v-71h-214v49zM241 638q0 36 -35 36q-18 0 -33 -13t-15 -30v-7h83v14z" />
    <glyph glyph-name="aJeh.fina" unicode="&#x698;" horiz-adv-x="393" arabic-form="final" 
d="M293 -52q0 -94 -45 -142.5t-133 -48.5q-54 0 -125 20l24 129q37 -8 54 -8q56 0 56 53v541h169v-340h115v-152h-115v-52zM83 811h122v-114h-122v114zM-6 671h122v-115h-122v115zM172 671h122v-115h-122v115z" />
    <glyph glyph-name="aJeh.isol" unicode="&#x698;" horiz-adv-x="343" arabic-form="isolated" 
d="M68 -102q56 0 56 53v541h169v-544q0 -94 -45 -142.5t-133 -48.5q-54 0 -125 20l24 129q37 -8 54 -8zM83 811h122v-114h-122v114zM-6 671h122v-115h-122v115zM172 671h122v-115h-122v115z" />
    <glyph glyph-name="aVeh.fina" unicode="&#x6a4;" horiz-adv-x="1055" arabic-form="final" 
d="M332 0q-151 0 -221.5 61t-70.5 192q0 70 30.5 124t90 86t142.5 37l20 -146q-62 -7 -88 -30.5t-26 -71.5q0 -100 112 -100h201q-55 55 -55 140q0 61 30 110.5t85 77.5t130 28q116 0 177.5 -62.5t61.5 -181.5v-112h119v-152h-738zM786 281q0 45 -17.5 64.5t-57.5 19.5
q-37 0 -57 -25.5t-20 -72.5q0 -60 29 -87.5t91 -27.5h32v129zM663 811h122v-114h-122v114zM574 671h122v-115h-122v115zM752 671h122v-115h-122v115z" />
    <glyph glyph-name="aVeh.medi" unicode="&#x6a4;" horiz-adv-x="641" arabic-form="medial" 
d="M-15 152h123q-55 55 -55 140q0 59 30 108.5t85.5 78.5t129.5 29q116 0 177.5 -62.5t61.5 -181.5v-112h119v-152h-671v152zM372 281q0 45 -17.5 64.5t-57.5 19.5q-37 0 -57 -25.5t-20 -72.5q0 -60 29 -87.5t91 -27.5h32v129zM241 811h122v-114h-122v114zM152 671h122v-115
h-122v115zM330 671h122v-115h-122v115z" />
    <glyph glyph-name="aVeh.init" unicode="&#x6a4;" horiz-adv-x="587" arabic-form="initial" 
d="M-15 152h123q-55 55 -55 140q0 59 30 108.5t85.5 78.5t129.5 29q116 0 177.5 -62.5t61.5 -181.5v-264h-552v152zM372 281q0 45 -17.5 64.5t-57.5 19.5q-37 0 -57 -25.5t-20 -72.5q0 -60 29 -87.5t91 -27.5h32v129zM241 811h122v-114h-122v114zM152 671h122v-115h-122v115
zM330 671h122v-115h-122v115z" />
    <glyph glyph-name="aVeh.isol" unicode="&#x6a4;" horiz-adv-x="1001" arabic-form="isolated" 
d="M522 152q-55 55 -55 140q0 61 30 110.5t85 77.5t130 28q116 0 177.5 -62.5t61.5 -181.5v-264h-619q-151 0 -221.5 61t-70.5 192q0 70 30.5 124t90 86t142.5 37l20 -146q-62 -7 -88 -30.5t-26 -71.5q0 -100 112 -100h201zM786 281q0 45 -17.5 64.5t-57.5 19.5
q-37 0 -57 -25.5t-20 -72.5q0 -60 29 -87.5t91 -27.5h32v129zM663 811h122v-114h-122v114zM574 671h122v-115h-122v115zM752 671h122v-115h-122v115z" />
    <glyph glyph-name="aKeheh.fina" unicode="&#x6a9;" horiz-adv-x="1013" arabic-form="final" 
d="M110.5 61q-70.5 61 -70.5 192q0 70 30.5 124t90 86t142.5 37l20 -146q-62 -7 -88 -30.5t-26 -71.5q0 -100 112 -100h419v62q0 58 -14.5 87.5t-46 41t-88.5 11.5h-176v120l287 240h225l-270 -218l22 -2q230 -21 230 -241v-101h119v-152h-696q-151 0 -221.5 61z" />
    <glyph glyph-name="aKeheh.medi" unicode="&#x6a9;" horiz-adv-x="629" arabic-form="medial" 
d="M-15 152h371v62q0 58 -14.5 87.5t-46 41t-88.5 11.5h-176v120l287 240h225l-270 -218l22 -2q230 -21 230 -241v-101h119v-152h-659v152z" />
    <glyph glyph-name="aKeheh.init" unicode="&#x6a9;" horiz-adv-x="583" arabic-form="initial" 
d="M-15 152h371v62q0 58 -14.5 87.5t-46 41t-88.5 11.5h-176v120l287 240h225l-270 -218l22 -2q230 -21 230 -241v-253h-540v152z" />
    <glyph glyph-name="aKeheh.isol" unicode="&#x6a9;" horiz-adv-x="967" arabic-form="isolated" 
d="M110.5 61q-70.5 61 -70.5 192q0 70 30.5 124t90 86t142.5 37l20 -146q-62 -7 -88 -30.5t-26 -71.5q0 -100 112 -100h419v62q0 58 -14.5 87.5t-46 41t-88.5 11.5h-176v120l287 240h225l-270 -218l22 -2q230 -21 230 -241v-253h-577q-151 0 -221.5 61z" />
    <glyph glyph-name="aGaf.fina" unicode="&#x6af;" horiz-adv-x="1013" arabic-form="final" 
d="M110.5 61q-70.5 61 -70.5 192q0 70 30.5 124t90 86t142.5 37l20 -146q-62 -7 -88 -30.5t-26 -71.5q0 -100 112 -100h419v62q0 58 -14.5 87.5t-46 41t-88.5 11.5h-176v120l287 240h225l-270 -218l22 -2q230 -21 230 -241v-101h119v-152h-696q-151 0 -221.5 61zM415 627
l109 87h123l-232 -191v104z" />
    <glyph glyph-name="aGaf.medi" unicode="&#x6af;" horiz-adv-x="629" arabic-form="medial" 
d="M-15 152h371v62q0 58 -14.5 87.5t-46 41t-88.5 11.5h-176v120l287 240h225l-270 -218l22 -2q230 -21 230 -241v-101h119v-152h-659v152zM31 627l109 87h123l-232 -191v104z" />
    <glyph glyph-name="aGaf.init" unicode="&#x6af;" horiz-adv-x="583" arabic-form="initial" 
d="M-15 152h371v62q0 58 -14.5 87.5t-46 41t-88.5 11.5h-176v120l287 240h225l-270 -218l22 -2q230 -21 230 -241v-253h-540v152zM31 627l109 87h123l-232 -191v104z" />
    <glyph glyph-name="aGaf.isol" unicode="&#x6af;" horiz-adv-x="967" arabic-form="isolated" 
d="M110.5 61q-70.5 61 -70.5 192q0 70 30.5 124t90 86t142.5 37l20 -146q-62 -7 -88 -30.5t-26 -71.5q0 -100 112 -100h419v62q0 58 -14.5 87.5t-46 41t-88.5 11.5h-176v120l287 240h225l-270 -218l22 -2q230 -21 230 -241v-253h-577q-151 0 -221.5 61zM415 627l109 87h123
l-232 -191v104z" />
    <glyph glyph-name="aNunGhunna.fina" unicode="&#x6ba;" horiz-adv-x="669" arabic-form="final" 
d="M495.5 -178q-66.5 -64 -185.5 -64q-270 0 -270 257q0 45 14 97.5t38 94.5l150 -44q-18 -35 -28 -72t-10 -68q0 -120 98 -120q47 0 69 28.5t22 89.5v471h169v-340h122v-152h-122q0 -114 -66.5 -178z" />
    <glyph glyph-name="aNunGhunna.isol" unicode="&#x6ba;" horiz-adv-x="617" arabic-form="isolated" 
d="M562 492v-492q0 -114 -66.5 -178t-185.5 -64q-270 0 -270 257q0 45 14 97.5t38 94.5l150 -44q-18 -35 -28 -72t-10 -68q0 -120 98 -120q47 0 69 28.5t22 89.5v471h169z" />
    <glyph glyph-name="aHehDoachashmi.fina" unicode="&#x6be;" horiz-adv-x="590" arabic-form="final" 
d="M475 0q25 -13 40.5 -41t15.5 -60q0 -74 -57.5 -112t-170.5 -38q-127 0 -189.5 52.5t-62.5 160.5v296q0 111 61 170.5t176 59.5q112 0 169.5 -49.5t57.5 -146.5q0 -91 -79 -140h169v-152h-130zM218 152q64 0 100.5 34.5t36.5 95.5q0 39 -18 61t-51 22q-39 0 -57 -20.5
t-18 -64.5v-128h7zM213 -38q0 -38 22.5 -62t59.5 -24q40 0 58 13t18 42q0 32 -31.5 50.5t-87.5 18.5h-39v-38z" />
    <glyph glyph-name="aHehDoachashmi.medi" unicode="&#x6be;" horiz-adv-x="630" arabic-form="medial" 
d="M515 0q25 -13 40.5 -41t15.5 -60q0 -74 -57.5 -112t-170.5 -38q-127 0 -189.5 52.5t-62.5 160.5v38h-106v152h106v106q0 111 61 170.5t176 59.5q112 0 169.5 -49.5t57.5 -146.5q0 -91 -79 -140h169v-152h-130zM258 152q64 0 100.5 34.5t36.5 95.5q0 39 -18 61t-51 22
q-39 0 -57 -20.5t-18 -64.5v-128h7zM253 -38q0 -38 22.5 -62t59.5 -24q40 0 58 13t18 42q0 32 -31.5 50.5t-87.5 18.5h-39v-38z" />
    <glyph glyph-name="aHehDoachashmi.init" unicode="&#x6be;" horiz-adv-x="854" arabic-form="initial" 
d="M-15 152h151q-25 27 -38.5 64.5t-13.5 78.5q0 61 27.5 110t78 78t116.5 29q37 0 79 -9q33 27 79.5 42t97.5 15q117 0 179.5 -59t62.5 -170v-331h-819v152zM640 329q0 42 -21.5 68t-59.5 26q-29 0 -53 -12q29 -43 29 -148v-111h105v177zM379 266q0 58 -15 81t-52 23
q-31 0 -47.5 -24t-16.5 -68q0 -56 36 -91t95 -35v114z" />
    <glyph glyph-name="aHehDoachashmi.isol" unicode="&#x6be;" horiz-adv-x="810" arabic-form="isolated" 
d="M397 0q-357 0 -357 295q0 61 27.5 110t78 78t116.5 29q37 0 79 -9q33 27 79.5 42t97.5 15q117 0 179.5 -59t62.5 -170v-331h-363zM596 329q0 42 -21.5 68t-59.5 26q-29 0 -53 -12q29 -43 29 -148v-111h105v177zM335 266q0 58 -15 81t-52 23q-31 0 -47.5 -24t-16.5 -68
q0 -56 36 -91t95 -35v114z" />
    <glyph glyph-name="aHehYeh.fina" unicode="&#x6c0;" horiz-adv-x="628" arabic-form="final" 
d="M191 618h21v44q0 36 20.5 56.5t58.5 20.5q36 0 55.5 -17t25.5 -55l-52 -7q-4 29 -26 29q-28 0 -28 -33v-38h105v-53h-180v53zM337 0q-142 0 -219.5 68.5t-77.5 194.5q0 73 29.5 128t85.5 86t130 31q116 0 177.5 -63t61.5 -183v-110h119v-152h-306zM359 280
q0 46 -17.5 65.5t-57.5 19.5q-37 0 -57 -25.5t-20 -72.5q0 -60 29 -87.5t91 -27.5h32v128z" />
    <glyph glyph-name="aHehYeh.isol" unicode="&#x6c0;" horiz-adv-x="572" arabic-form="isolated" 
d="M285 -15q-116 0 -180.5 68t-64.5 191q0 124 65 192t183 68q116 0 180 -67.5t64 -189.5q0 -128 -63.5 -195t-183.5 -67zM286 125q43 0 63.5 29t20.5 91t-20.5 90.5t-63.5 28.5t-63.5 -29t-20.5 -91t20.5 -90.5t63.5 -28.5zM193 614h21v44q0 36 20.5 56.5t58.5 20.5
q36 0 55.5 -17t25.5 -55l-52 -7q-4 29 -26 29q-28 0 -28 -33v-38h105v-53h-180v53z" />
    <glyph glyph-name="aHehGoal.fina" unicode="&#x6c1;" horiz-adv-x="526" arabic-form="final" 
d="M229 146q-12 28 -31.5 40t-52.5 12q-38 0 -89 -16l-34 138q72 22 137 22q91 0 144 -36t90 -124l13 -30h135v-152h-250z" />
    <glyph glyph-name="aHehGoal.medi" unicode="&#x6c1;" horiz-adv-x="389" arabic-form="medial" 
d="M110 0h-125v152h419v-152h-125v-247h-169v247zM-87 -116h117l-29 -225h-145z" />
    <glyph glyph-name="aHehGoal.init" unicode="&#x6c1;" horiz-adv-x="332" arabic-form="initial" 
d="M-15 152h122v197q0 62 -25 109l155 57q21 -29 30 -65t9 -89v-361h-291v152zM127 -82h117l-29 -225h-145z" />
    <glyph glyph-name="aHehGoal.isol" unicode="&#x6c1;" horiz-adv-x="572" arabic-form="isolated" 
d="M285 -15q-116 0 -180.5 68t-64.5 191q0 124 65 192t183 68q116 0 180 -67.5t64 -189.5q0 -128 -63.5 -195t-183.5 -67zM286 125q43 0 63.5 29t20.5 91t-20.5 90.5t-63.5 28.5t-63.5 -29t-20.5 -91t20.5 -90.5t63.5 -28.5z" />
    <glyph glyph-name="aHehGoalHamzaabove.fina" unicode="&#x6c2;" horiz-adv-x="526" 
d="M229 146q-12 28 -31.5 40t-52.5 12q-38 0 -89 -16l-34 138q72 22 137 22q91 0 144 -36t90 -124l13 -30h135v-152h-250zM69 460h21v44q0 36 20.5 56.5t58.5 20.5q36 0 55.5 -17t25.5 -55l-52 -7q-4 29 -26 29q-28 0 -28 -33v-38h105v-53h-180v53z" />
    <glyph glyph-name="aTehMarbutaGoal.fina" unicode="&#x6c3;" horiz-adv-x="526" 
d="M229 146q-12 28 -31.5 40t-52.5 12q-38 0 -89 -16l-34 138q72 22 137 22q91 0 144 -36t90 -124l13 -30h135v-152h-250zM2 520h131v-124h-131v124zM190 520h130v-124h-130v124z" />
    <glyph glyph-name="aYehFarsi.fina" unicode="&#x6cc;" horiz-adv-x="960" arabic-form="final" 
d="M684 340h-61q-28 0 -44.5 -11.5t-16.5 -31.5v-297q0 -114 -66.5 -178t-185.5 -64q-270 0 -270 257q0 45 14 97.5t38 94.5l150 -44q-18 -35 -28 -72t-10 -68q0 -120 98 -120q47 0 69 28.5t22 89.5v303q0 76 54 122t142 46h264v-340h122v-152h-291v340z" />
    <glyph glyph-name="aYehFarsi.medi" unicode="&#x6cc;" horiz-adv-x="384" arabic-form="medial" 
d="M-15 152h122v340h169v-340h122v-152h-413v152zM-45 -81h130v-123h-130v123zM142 -81h129v-123h-129v123z" />
    <glyph glyph-name="aYehFarsi.init" unicode="&#x6cc;" horiz-adv-x="332" arabic-form="initial" 
d="M-45 -81h130v-123h-130v123zM142 -81h129v-123h-129v123zM-15 152h122v197q0 62 -25 109l155 57q21 -29 30 -65t9 -89v-361h-291v152z" />
    <glyph glyph-name="aYehFarsi.isol" unicode="&#x6cc;" horiz-adv-x="722" arabic-form="isolated" 
d="M447 446q54 46 142 46h107v-152h-73q-28 0 -44.5 -11.5t-16.5 -31.5v-297q0 -114 -66.5 -178t-185.5 -64q-270 0 -270 257q0 45 14 97.5t38 94.5l150 -44q-18 -35 -28 -72t-10 -68q0 -120 98 -120q47 0 69 28.5t22 89.5v303q0 76 54 122z" />
    <glyph glyph-name="aYehBarri.fina" unicode="&#x6d2;" horiz-adv-x="733" arabic-form="final" 
d="M88 -273.5q-66 63.5 -66 181.5q0 74 30 129t88 85t137 30h471v-152h-468q-91 0 -91 -92q0 -93 91 -93h315v-152h-318q-123 0 -189 63.5z" />
    <glyph glyph-name="aYehBarri.isol" unicode="&#x6d2;" horiz-adv-x="784" arabic-form="isolated" 
d="M30 136l342 284h225l-329 -268h491v-152h-729v136z" />
    <glyph glyph-name="aYehBarriHamzaabove.fina" unicode="&#x6d3;" horiz-adv-x="733" arabic-form="final" 
d="M88 -273.5q-66 63.5 -66 181.5q0 74 30 129t88 85t137 30h471v-152h-468q-91 0 -91 -92q0 -93 91 -93h315v-152h-318q-123 0 -189 63.5zM48 279h21v44q0 36 20.5 56.5t58.5 20.5q36 0 55.5 -17t25.5 -55l-52 -7q-4 29 -26 29q-28 0 -28 -33v-38h105v-53h-180v53z" />
    <glyph glyph-name="aYehBarriHamzaabove.isol" unicode="&#x6d3;" horiz-adv-x="784" arabic-form="isolated" 
d="M30 136l342 284h225l-329 -268h491v-152h-729v136zM35 458h21v44q0 36 20.5 56.5t58.5 20.5q36 0 55.5 -17t25.5 -55l-52 -7q-4 29 -26 29q-28 0 -28 -33v-38h105v-53h-180v53z" />
    <glyph glyph-name="aAe.fina" unicode="&#x6d5;" horiz-adv-x="628" 
d="M337 0q-142 0 -219.5 68.5t-77.5 194.5q0 73 29.5 128t85.5 86t130 31q116 0 177.5 -63t61.5 -183v-110h119v-152h-306zM359 280q0 46 -17.5 65.5t-57.5 19.5q-37 0 -57 -25.5t-20 -72.5q0 -60 29 -87.5t91 -27.5h32v128z" />
    <glyph glyph-name="aAllahlong" unicode="&#xfdfa;" horiz-adv-x="1512" arabic-form="isolated" 
d="M558 83q-50 0 -73 17t-23 53q0 71 93 71h106v413h54v-413h39v107h51v-22q29 27 68 27q41 0 64 -22.5t23 -64.5v-75h-405q-21 0 -29 -4t-8 -17t7 -17t30 -4h315v-49h-312zM781 564q-42 0 -42 43v30h28v-29q0 -15 14 -17v46h28v-46h13v46h28v-73h-69zM569 637h54v-397h-54
v397zM385 492q-42 0 -42 43v30h28v-29q0 -15 14 -17v46h28v-46h13v46h28v-73h-69zM270 240q-47 0 -69.5 20t-22.5 63q0 31 21.5 52t53.5 21q33 0 52.5 -21t19.5 -56v-30h49v181h54v-181h49v181h54v-230h-261zM736 392l225 67v-40l-225 -66v39zM90 -326h-54v138h40v34
q0 35 19.5 56t52.5 21q32 0 53.5 -20t21.5 -51q0 -23 -14 -40h63v179h-106q-47 0 -69.5 20t-22.5 63q0 31 21.5 52t53.5 21q33 0 52.5 -21t19.5 -56v-30h153v183h54v-183h478v92h54v-92h65v413h54v-413h67v40q0 32 19.5 49.5t55.5 17.5q60 0 70 -63l-49 -6q-1 12 -6 17
t-15 5q-12 0 -16.5 -7t-4.5 -22v-31h107v-49h-981v-179h771v101h54v-101h24v101h54v-101h24v59q0 18 -6 33l49 17q11 -19 11 -46v-112h-1217v-89zM274 320q0 15 -4.5 22t-16.5 7q-11 0 -16 -6.5t-5 -20.5q0 -19 6.5 -26t28.5 -7h7v31zM906 241q0 48 -37 48q-28 0 -46 -18.5
t-18 -46.5h101v17zM1145 192l136 39v-40l-136 -37v38zM213 185l136 39v-40l-136 -38v39zM170 71q0 15 -4.5 22t-16.5 7q-11 0 -16 -6.5t-5 -20.5q0 -19 6.5 -26t28.5 -7h7v31zM869 -26h52v-52h-52v52zM945 -26h52v-52h-52v52zM1423 -233q-49 0 -71.5 19t-22.5 59
q0 34 20 53.5t53 19.5q36 0 55 -20t19 -57v-69q0 -71 -75 -71q-62 0 -71 59h49q3 -18 23 -18q21 0 21 25zM134 -184q22 0 28.5 7t6.5 26q0 14 -5 20.5t-16 6.5q-12 0 -16.5 -7t-4.5 -22v-31h7zM1423 -159q0 30 -20 30q-19 0 -19 -28q0 -17 8 -25t25 -8h6v31z" />
    <glyph glyph-name="aFehdotless.init" unicode="&#x6a1;" horiz-adv-x="587" 
d="M-15 152h123q-55 55 -55 140q0 59 30 108.5t85.5 78.5t129.5 29q116 0 177.5 -62.5t61.5 -181.5v-264h-552v152zM372 281q0 45 -17.5 64.5t-57.5 19.5q-37 0 -57 -25.5t-20 -72.5q0 -60 29 -87.5t91 -27.5h32v129z" />
    <glyph glyph-name="aFehdotless.medi" unicode="&#x6a1;" horiz-adv-x="641" 
d="M-15 152h123q-55 55 -55 140q0 59 30 108.5t85.5 78.5t129.5 29q116 0 177.5 -62.5t61.5 -181.5v-112h119v-152h-671v152zM372 281q0 45 -17.5 64.5t-57.5 19.5q-37 0 -57 -25.5t-20 -72.5q0 -60 29 -87.5t91 -27.5h32v129z" />
    <glyph glyph-name="aFehdotless.fina" unicode="&#x6a1;" horiz-adv-x="1055" 
d="M332 0q-151 0 -221.5 61t-70.5 192q0 70 30.5 124t90 86t142.5 37l20 -146q-62 -7 -88 -30.5t-26 -71.5q0 -100 112 -100h201q-55 55 -55 140q0 61 30 110.5t85 77.5t130 28q116 0 177.5 -62.5t61.5 -181.5v-112h119v-152h-738zM786 281q0 45 -17.5 64.5t-57.5 19.5
q-37 0 -57 -25.5t-20 -72.5q0 -60 29 -87.5t91 -27.5h32v129z" />
    <glyph glyph-name="aAlifHamzahigh.fina" unicode="&#x675;" horiz-adv-x="406" 
d="M55 714h169v-562h197v-152h-366v714zM213 822h21v44q0 36 20.5 56.5t58.5 20.5q36 0 55.5 -17t25.5 -55l-52 -7q-4 29 -26 29q-28 0 -28 -33v-38h105v-53h-180v53z" />
    <glyph glyph-name="aAlifWavyhamzabelow.fina" unicode="&#x673;" horiz-adv-x="331" 
d="M55 714h169v-562h122v-152h-291v714zM105 -86q20 20 57 20q35 0 53.5 -17t24.5 -55l-52 -7q-4 29 -23 29q-26 0 -26 -33v-38h100v-53h-139q-20 0 -31 6t-19 12.5t-19 6.5q-10 0 -17 -7l-36 44q19 23 45 23q18 0 28 -6t17 -11.5t17 -5.5v35q0 37 20 57z" />
    <glyph glyph-name="aAlifWavyhamza.fina" unicode="&#x672;" horiz-adv-x="331" 
d="M55 714h169v-562h122v-152h-291v714zM108 923q20 20 57 20q35 0 53.5 -17t24.5 -55l-52 -7q-4 29 -23 29q-26 0 -26 -33v-38h100v-53h-139q-20 0 -31 6.5t-19 12.5t-19 6q-10 0 -17 -7l-36 44q19 23 45 23q18 0 28 -5.5t17 -11.5t17 -6v35q0 37 20 57z" />
    <glyph glyph-name="aTteheh.fina" unicode="&#x67a;" horiz-adv-x="888" arabic-form="final" 
d="M110.5 61q-70.5 61 -70.5 192q0 70 30.5 124t90 86t142.5 37l20 -146q-62 -7 -88 -30.5t-26 -71.5q0 -100 112 -100h288v340h169v-340h122v-152h-568q-151 0 -221.5 61zM509 722h-132v106h132v-106zM509 574h-132v106h132v-106z" />
    <glyph glyph-name="aTteheh.medi" unicode="&#x67a;" horiz-adv-x="383" arabic-form="medial" 
d="M-15 152h122v340h169v-340h122v-152h-413v152zM257 722h-132v106h132v-106zM257 574h-132v106h132v-106z" />
    <glyph glyph-name="aTteheh.init" unicode="&#x67a;" horiz-adv-x="331" arabic-form="initial" 
d="M-15 152h122v197q0 62 -25 109l155 57q21 -29 30 -65t9 -89v-361h-291v152zM257 722h-132v106h132v-106zM257 574h-132v106h132v-106z" />
    <glyph glyph-name="aTteheh.isol" unicode="&#x67a;" horiz-adv-x="833" arabic-form="isolated" 
d="M110.5 61q-70.5 61 -70.5 192q0 70 30.5 124t90 86t142.5 37l20 -146q-62 -7 -88 -30.5t-26 -71.5q0 -100 112 -100h288v340h169v-492h-446q-151 0 -221.5 61zM509 722h-132v106h132v-106zM509 574h-132v106h132v-106z" />
    <glyph glyph-name="aYehHamzaabove.init" unicode="&#x678;" horiz-adv-x="434" 
d="M-15 152h122v197q0 62 -25 109l155 57q21 -29 30 -65t9 -89v-361h-291v152zM265 614h21v44q0 36 20.5 56.5t58.5 20.5q36 0 55.5 -17t25.5 -55l-52 -7q-4 29 -26 29q-28 0 -28 -33v-38h105v-53h-180v53z" />
    <glyph glyph-name="aYehHamzaabove.medi" unicode="&#x678;" horiz-adv-x="536" 
d="M-15 152h122v340h169v-340h275v-152h-566v152zM265 614h21v44q0 36 20.5 56.5t58.5 20.5q36 0 55.5 -17t25.5 -55l-52 -7q-4 29 -26 29q-28 0 -28 -33v-38h105v-53h-180v53z" />
    <glyph glyph-name="aYehHamzaabove.fina" unicode="&#x678;" horiz-adv-x="960" 
d="M684 340h-61q-28 0 -44.5 -11.5t-16.5 -31.5v-297q0 -114 -66.5 -178t-185.5 -64q-270 0 -270 257q0 45 14 97.5t38 94.5l150 -44q-18 -35 -28 -72t-10 -68q0 -120 98 -120q47 0 69 28.5t22 89.5v303q0 76 54 122t142 46h264v-340h122v-152h-291v340zM679 614h21v44
q0 36 20.5 56.5t58.5 20.5q36 0 55.5 -17t25.5 -55l-52 -7q-4 29 -26 29q-28 0 -28 -33v-38h105v-53h-180v53z" />
    <glyph glyph-name="aUHamzaabove.isol" unicode="&#x677;" horiz-adv-x="591" arabic-form="isolated" 
d="M370 0q-318 3 -318 263q0 72 29.5 127.5t85 86.5t130.5 31q116 0 177.5 -63t61.5 -183v-262q0 -126 -61.5 -187.5t-186.5 -61.5q-212 0 -244 208h172q7 -36 23.5 -51.5t49.5 -15.5q44 0 62.5 24.5t18.5 83.5zM371 280q0 46 -17.5 65.5t-57.5 19.5q-37 0 -57 -25.5
t-20 -72.5q0 -59 29 -87t91 -28h32v128zM354 636q0 -77 -85 -77q-38 0 -65 14l13 42q29 -13 51 -13q18 0 25.5 6.5t7.5 21.5v5q-13 -10 -32 -10q-59 0 -59 56q0 29 18.5 45.5t51.5 16.5q35 0 54.5 -19t19.5 -54v-34zM279 657q20 0 20 24t-20 24t-20 -24t20 -24zM415 618h21
v44q0 36 20.5 56.5t58.5 20.5q36 0 55.5 -17t25.5 -55l-52 -7q-4 29 -26 29q-28 0 -28 -33v-38h105v-53h-180v53z" />
    <glyph glyph-name="aUHamzaabove.fina" unicode="&#x677;" horiz-adv-x="640" 
d="M288 -249q-212 0 -244 208h172q7 -36 23.5 -51.5t49.5 -15.5q44 0 62.5 24.5t18.5 83.5q-318 3 -318 263q0 72 29.5 127.5t85 86.5t130.5 31q116 0 177.5 -63t61.5 -183v-110h119v-152h-119q0 -126 -61.5 -187.5t-186.5 -61.5zM371 280q0 46 -17.5 65.5t-57.5 19.5
q-37 0 -57 -25.5t-20 -72.5q0 -59 29 -87t91 -28h32v128zM354 636q0 -77 -85 -77q-38 0 -65 14l13 42q29 -13 51 -13q18 0 25.5 6.5t7.5 21.5v5q-13 -10 -32 -10q-59 0 -59 56q0 29 18.5 45.5t51.5 16.5q35 0 54.5 -19t19.5 -54v-34zM279 657q20 0 20 24t-20 24t-20 -24
t20 -24zM415 618h21v44q0 36 20.5 56.5t58.5 20.5q36 0 55.5 -17t25.5 -55l-52 -7q-4 29 -26 29q-28 0 -28 -33v-38h105v-53h-180v53z" />
    <glyph glyph-name="aWawHamzahigh.fina" unicode="&#x676;" horiz-adv-x="640" 
d="M288 -249q-212 0 -244 208h172q7 -36 23.5 -51.5t49.5 -15.5q44 0 62.5 24.5t18.5 83.5q-318 3 -318 263q0 72 29.5 127.5t85 86.5t130.5 31q116 0 177.5 -63t61.5 -183v-110h119v-152h-119q0 -126 -61.5 -187.5t-186.5 -61.5zM371 280q0 46 -17.5 65.5t-57.5 19.5
q-37 0 -57 -25.5t-20 -72.5q0 -59 29 -87t91 -28h32v128zM415 618h21v44q0 36 20.5 56.5t58.5 20.5q36 0 55.5 -17t25.5 -55l-52 -7q-4 29 -26 29q-28 0 -28 -33v-38h105v-53h-180v53z" />
    <glyph glyph-name="aTeheh.fina" unicode="&#x67f;" horiz-adv-x="888" arabic-form="final" 
d="M110.5 61q-70.5 61 -70.5 192q0 70 30.5 124t90 86t142.5 37l20 -146q-62 -7 -88 -30.5t-26 -71.5q0 -100 112 -100h288v340h169v-340h122v-152h-568q-151 0 -221.5 61zM302 720v108h118v-108h-118zM466 720v108h118v-108h-118zM302 574v108h118v-108h-118zM466 574v108
h118v-108h-118z" />
    <glyph glyph-name="aTeheh.medi" unicode="&#x67f;" horiz-adv-x="383" arabic-form="medial" 
d="M-15 152h122v340h169v-340h122v-152h-413v152zM50 720v108h118v-108h-118zM214 720v108h118v-108h-118zM50 574v108h118v-108h-118zM214 574v108h118v-108h-118z" />
    <glyph glyph-name="aTeheh.init" unicode="&#x67f;" horiz-adv-x="331" arabic-form="initial" 
d="M-15 152h122v197q0 62 -25 109l155 57q21 -29 30 -65t9 -89v-361h-291v152zM-13 720v108h118v-108h-118zM151 720v108h118v-108h-118zM-13 574v108h118v-108h-118zM151 574v108h118v-108h-118z" />
    <glyph glyph-name="aTeheh.isol" unicode="&#x67f;" horiz-adv-x="833" arabic-form="isolated" 
d="M110.5 61q-70.5 61 -70.5 192q0 70 30.5 124t90 86t142.5 37l20 -146q-62 -7 -88 -30.5t-26 -71.5q0 -100 112 -100h288v340h169v-492h-446q-151 0 -221.5 61zM302 720v108h118v-108h-118zM466 720v108h118v-108h-118zM302 574v108h118v-108h-118zM466 574v108h118v-108
h-118z" />
    <glyph glyph-name="aTeh3dabove.init" unicode="&#x67d;" horiz-adv-x="331" 
d="M-15 152h122v197q0 62 -25 109l155 57q21 -29 30 -65t9 -89v-361h-291v152zM100 696h-122v115h122v-115zM278 696h-122v115h122v-115zM189 556h-122v114h122v-114z" />
    <glyph glyph-name="aTeh3dabove.medi" unicode="&#x67d;" horiz-adv-x="383" 
d="M-15 152h122v340h169v-340h122v-152h-413v152zM163 696h-122v115h122v-115zM341 696h-122v115h122v-115zM252 556h-122v114h122v-114z" />
    <glyph glyph-name="aTeh3dabove.fina" unicode="&#x67d;" horiz-adv-x="888" 
d="M110.5 61q-70.5 61 -70.5 192q0 70 30.5 124t90 86t142.5 37l20 -146q-62 -7 -88 -30.5t-26 -71.5q0 -100 112 -100h288v340h169v-340h122v-152h-568q-151 0 -221.5 61zM415 696h-122v115h122v-115zM593 696h-122v115h122v-115zM504 556h-122v114h122v-114z" />
    <glyph glyph-name="aTehring.init" unicode="&#x67c;" horiz-adv-x="331" 
d="M-15 152h122v197q0 62 -25 109l155 57q21 -29 30 -65t9 -89v-361h-62q6 -15 6 -35q0 -41 -25.5 -66t-66.5 -25t-66.5 25t-25.5 66q0 20 6 35h-57v152zM128 -70q15 0 23.5 9.5t8.5 25.5t-8.5 25.5t-23.5 9.5t-23.5 -9.5t-8.5 -25.5t8.5 -25.5t23.5 -9.5zM-40 700h131v-124
h-131v124zM148 700h130v-124h-130v124z" />
    <glyph glyph-name="aTehring.medi" unicode="&#x67c;" horiz-adv-x="383" 
d="M-15 152h122v340h169v-340h122v-152h-120q6 -15 6 -35q0 -41 -25.5 -66t-66.5 -25t-66.5 25t-25.5 66q0 20 6 35h-121v152zM192 -70q15 0 23.5 9.5t8.5 25.5t-8.5 25.5t-23.5 9.5t-23.5 -9.5t-8.5 -25.5t8.5 -25.5t23.5 -9.5zM-40 700h131v-124h-131v124zM148 700h130
v-124h-130v124z" />
    <glyph glyph-name="aTehring.fina" unicode="&#x67c;" horiz-adv-x="885" 
d="M332 0q-151 0 -221.5 61t-70.5 192q0 70 30.5 124t90 86t142.5 37l20 -146q-62 -7 -88 -30.5t-26 -71.5q0 -100 112 -100h288v340h169v-340h122v-152h-346q6 -15 6 -35q0 -41 -25.5 -66t-66.5 -25t-66.5 25t-25.5 66q0 20 6 35h-50zM468 -70q15 0 23.5 9.5t8.5 25.5
t-8.5 25.5t-23.5 9.5t-23.5 -9.5t-8.5 -25.5t8.5 -25.5t23.5 -9.5zM284 700h131v-124h-131v124zM472 700h130v-124h-130v124z" />
    <glyph glyph-name="aBih.fina" unicode="&#x67b;" horiz-adv-x="888" arabic-form="final" 
d="M110.5 61q-70.5 61 -70.5 192q0 70 30.5 124t90 86t142.5 37l20 -146q-62 -7 -88 -30.5t-26 -71.5q0 -100 112 -100h288v340h169v-340h122v-152h-568q-151 0 -221.5 61zM534 -173h-132v106h132v-106zM534 -321h-132v106h132v-106z" />
    <glyph glyph-name="aBih.medi" unicode="&#x67b;" horiz-adv-x="383" arabic-form="medial" 
d="M-15 152h122v340h169v-340h122v-152h-413v152zM257 -173h-132v106h132v-106zM257 -321h-132v106h132v-106z" />
    <glyph glyph-name="aBih.init" unicode="&#x67b;" horiz-adv-x="331" arabic-form="initial" 
d="M-15 152h122v197q0 62 -25 109l155 57q21 -29 30 -65t9 -89v-361h-291v152zM194 -173h-132v106h132v-106zM194 -321h-132v106h132v-106z" />
    <glyph glyph-name="aBih.isol" unicode="&#x67b;" horiz-adv-x="833" arabic-form="isolated" 
d="M110.5 61q-70.5 61 -70.5 192q0 70 30.5 124t90 86t142.5 37l20 -146q-62 -7 -88 -30.5t-26 -71.5q0 -100 112 -100h288v340h169v-492h-446q-151 0 -221.5 61zM534 -173h-132v106h132v-106zM534 -321h-132v106h132v-106z" />
    <glyph glyph-name="aDyeh.fina" unicode="&#x684;" horiz-adv-x="628" arabic-form="final" 
d="M197.5 -27q-26.5 -27 -26.5 -72q0 -42 28.5 -62t88.5 -20v-144q-283 0 -283 238q0 70 32.5 124t93 84.5t142.5 30.5h82v93q0 61 -16.5 88.5t-52.5 27.5q-31 0 -48.5 -17t-24.5 -55l-164 18q18 101 74.5 147t160.5 46q122 0 181 -60.5t59 -186.5v-101h119v-152h-375
q-44 0 -70.5 -27zM496 -152h-110v85h110v-85zM496 -273h-110v85h110v-85z" />
    <glyph glyph-name="aDyeh.medi" unicode="&#x684;" horiz-adv-x="604" arabic-form="medial" 
d="M-15 152h346v103q0 58 -15.5 82t-53.5 24q-33 0 -49.5 -15t-23.5 -57l-164 18q18 101 74.5 147t160.5 46q122 0 181 -60.5t59 -186.5v-101h119v-152h-634v152zM346 -173h-132v106h132v-106zM346 -321h-132v106h132v-106z" />
    <glyph glyph-name="aDyeh.init" unicode="&#x684;" horiz-adv-x="619" arabic-form="initial" 
d="M-15 152h346v103q0 58 -15.5 82t-53.5 24q-33 0 -49.5 -15t-23.5 -57l-164 18q18 101 74.5 147t160.5 46q122 0 181 -60.5t59 -186.5v-101h74v-152h-589v152zM346 -173h-132v106h132v-106zM346 -321h-132v106h132v-106z" />
    <glyph glyph-name="aDyeh.isol" unicode="&#x684;" horiz-adv-x="628" arabic-form="isolated" 
d="M197.5 -27q-26.5 -27 -26.5 -72q0 -42 28.5 -62t88.5 -20v-144q-283 0 -283 238q0 70 32.5 124t93 84.5t142.5 30.5h82v93q0 61 -16.5 88.5t-52.5 27.5q-31 0 -48.5 -17t-24.5 -55l-164 18q18 101 74.5 147t160.5 46q122 0 181 -60.5t59 -186.5v-101h74v-152h-330
q-44 0 -70.5 -27zM496 -152h-110v85h110v-85zM496 -273h-110v85h110v-85z" />
    <glyph glyph-name="aNyeh.fina" unicode="&#x683;" horiz-adv-x="628" arabic-form="final" 
d="M197.5 -27q-26.5 -27 -26.5 -72q0 -42 28.5 -62t88.5 -20v-144q-283 0 -283 238q0 70 32.5 124t93 84.5t142.5 30.5h82v93q0 61 -16.5 88.5t-52.5 27.5q-31 0 -48.5 -17t-24.5 -55l-164 18q18 101 74.5 147t160.5 46q122 0 181 -60.5t59 -186.5v-101h119v-152h-375
q-44 0 -70.5 -27zM313 -62h108v-98h-108v98zM461 -62h108v-98h-108v98z" />
    <glyph glyph-name="aNyeh.medi" unicode="&#x683;" horiz-adv-x="604" arabic-form="medial" 
d="M-15 152h346v103q0 58 -15.5 82t-53.5 24q-33 0 -49.5 -15t-23.5 -57l-164 18q18 101 74.5 147t160.5 46q122 0 181 -60.5t59 -186.5v-101h119v-152h-634v152zM122 -81h130v-123h-130v123zM309 -81h129v-123h-129v123z" />
    <glyph glyph-name="aNyeh.init" unicode="&#x683;" horiz-adv-x="619" arabic-form="initial" 
d="M-15 152h346v103q0 58 -15.5 82t-53.5 24q-33 0 -49.5 -15t-23.5 -57l-164 18q18 101 74.5 147t160.5 46q122 0 181 -60.5t59 -186.5v-101h74v-152h-589v152zM122 -81h130v-123h-130v123zM309 -81h129v-123h-129v123z" />
    <glyph glyph-name="aNyeh.isol" unicode="&#x683;" horiz-adv-x="628" arabic-form="isolated" 
d="M197.5 -27q-26.5 -27 -26.5 -72q0 -42 28.5 -62t88.5 -20v-144q-283 0 -283 238q0 70 32.5 124t93 84.5t142.5 30.5h82v93q0 61 -16.5 88.5t-52.5 27.5q-31 0 -48.5 -17t-24.5 -55l-164 18q18 101 74.5 147t160.5 46q122 0 181 -60.5t59 -186.5v-101h74v-152h-330
q-44 0 -70.5 -27zM313 -62h108v-98h-108v98zM461 -62h108v-98h-108v98z" />
    <glyph glyph-name="aHah2vabove.init" unicode="&#x682;" horiz-adv-x="619" 
d="M-15 152h346v103q0 58 -15.5 82t-53.5 24q-33 0 -49.5 -15t-23.5 -57l-164 18q18 101 74.5 147t160.5 46q122 0 181 -60.5t59 -186.5v-101h74v-152h-589v152zM329 722h-132v106h132v-106zM329 574h-132v106h132v-106z" />
    <glyph glyph-name="aHah2vabove.medi" unicode="&#x682;" horiz-adv-x="604" 
d="M-15 152h346v103q0 58 -15.5 82t-53.5 24q-33 0 -49.5 -15t-23.5 -57l-164 18q18 101 74.5 147t160.5 46q122 0 181 -60.5t59 -186.5v-101h119v-152h-634v152zM329 722h-132v106h132v-106zM329 574h-132v106h132v-106z" />
    <glyph glyph-name="aHah2vabove.fina" unicode="&#x682;" horiz-adv-x="639" 
d="M197.5 -27q-26.5 -27 -26.5 -72q0 -40 25 -63t68 -23q47 0 71 22t29 68h180q-27 -230 -287 -230q-119 0 -185.5 62.5t-66.5 175.5q0 70 32.5 124t93 84.5t142.5 30.5h82v103q0 58 -15.5 82t-53.5 24q-33 0 -49.5 -15t-23.5 -57l-164 18q18 101 74.5 147t160.5 46
q122 0 181 -60.5t59 -186.5v-101h130v-152h-386q-44 0 -70.5 -27zM353 722h-132v106h132v-106zM353 574h-132v106h132v-106z" />
    <glyph glyph-name="aHahHamzaabove.init" unicode="&#x681;" horiz-adv-x="619" 
d="M-15 152h346v103q0 58 -15.5 82t-53.5 24q-33 0 -49.5 -15t-23.5 -57l-164 18q18 101 74.5 147t160.5 46q122 0 181 -60.5t59 -186.5v-101h74v-152h-589v152zM171 614h21v44q0 36 20.5 56.5t58.5 20.5q36 0 55.5 -17t25.5 -55l-52 -7q-4 29 -26 29q-28 0 -28 -33v-38h105
v-53h-180v53z" />
    <glyph glyph-name="aHahHamzaabove.medi" unicode="&#x681;" horiz-adv-x="604" 
d="M-15 152h346v103q0 58 -15.5 82t-53.5 24q-33 0 -49.5 -15t-23.5 -57l-164 18q18 101 74.5 147t160.5 46q122 0 181 -60.5t59 -186.5v-101h119v-152h-634v152zM171 614h21v44q0 36 20.5 56.5t58.5 20.5q36 0 55.5 -17t25.5 -55l-52 -7q-4 29 -26 29q-28 0 -28 -33v-38
h105v-53h-180v53z" />
    <glyph glyph-name="aHahHamzaabove.fina" unicode="&#x681;" horiz-adv-x="639" 
d="M197.5 -27q-26.5 -27 -26.5 -72q0 -40 25 -63t68 -23q47 0 71 22t29 68h180q-27 -230 -287 -230q-119 0 -185.5 62.5t-66.5 175.5q0 70 32.5 124t93 84.5t142.5 30.5h82v103q0 58 -15.5 82t-53.5 24q-33 0 -49.5 -15t-23.5 -57l-164 18q18 101 74.5 147t160.5 46
q122 0 181 -60.5t59 -186.5v-101h130v-152h-386q-44 0 -70.5 -27zM195 614h21v44q0 36 20.5 56.5t58.5 20.5q36 0 55.5 -17t25.5 -55l-52 -7q-4 29 -26 29q-28 0 -28 -33v-38h105v-53h-180v53z" />
    <glyph glyph-name="aBeheh.fina" unicode="&#x680;" horiz-adv-x="888" arabic-form="final" 
d="M110.5 61q-70.5 61 -70.5 192q0 70 30.5 124t90 86t142.5 37l20 -146q-62 -7 -88 -30.5t-26 -71.5q0 -100 112 -100h288v340h169v-340h122v-152h-568q-151 0 -221.5 61zM327 -175v108h118v-108h-118zM491 -175v108h118v-108h-118zM327 -321v108h118v-108h-118zM491 -321
v108h118v-108h-118z" />
    <glyph glyph-name="aBeheh.medi" unicode="&#x680;" horiz-adv-x="383" arabic-form="medial" 
d="M-15 152h122v340h169v-340h122v-152h-413v152zM50 -175v108h118v-108h-118zM214 -175v108h118v-108h-118zM50 -321v108h118v-108h-118zM214 -321v108h118v-108h-118z" />
    <glyph glyph-name="aBeheh.init" unicode="&#x680;" horiz-adv-x="331" arabic-form="initial" 
d="M-15 152h122v197q0 62 -25 109l155 57q21 -29 30 -65t9 -89v-361h-291v152zM-13 -175v108h118v-108h-118zM151 -175v108h118v-108h-118zM-13 -321v108h118v-108h-118zM151 -321v108h118v-108h-118z" />
    <glyph glyph-name="aBeheh.isol" unicode="&#x680;" horiz-adv-x="833" arabic-form="isolated" 
d="M110.5 61q-70.5 61 -70.5 192q0 70 30.5 124t90 86t142.5 37l20 -146q-62 -7 -88 -30.5t-26 -71.5q0 -100 112 -100h288v340h169v-492h-446q-151 0 -221.5 61zM327 -175v108h118v-108h-118zM491 -175v108h118v-108h-118zM327 -321v108h118v-108h-118zM491 -321v108h118
v-108h-118z" />
    <glyph glyph-name="aDalring.fina" unicode="&#x689;" horiz-adv-x="610" 
d="M30 152h307v61q0 141 -122 141q-51 0 -115 -26l-43 139q38 16 84.5 25t92.5 9q79 0 140.5 -32t96.5 -92.5t35 -140.5v-84h119v-152h-318q6 -15 6 -35q0 -41 -25.5 -66t-66.5 -25t-66.5 25t-25.5 66q0 20 6 35h-105v152zM221 -70q15 0 23.5 9.5t8.5 25.5t-8.5 25.5
t-23.5 9.5t-23.5 -9.5t-8.5 -25.5t8.5 -25.5t23.5 -9.5z" />
    <glyph glyph-name="aTcheheh.fina" unicode="&#x687;" horiz-adv-x="628" arabic-form="final" 
d="M197.5 -27q-26.5 -27 -26.5 -72q0 -42 28.5 -62t88.5 -20v-144q-283 0 -283 238q0 70 32.5 124t93 84.5t142.5 30.5h82v93q0 61 -16.5 88.5t-52.5 27.5q-31 0 -48.5 -17t-24.5 -55l-164 18q18 101 74.5 147t160.5 46q122 0 181 -60.5t59 -186.5v-101h119v-152h-375
q-44 0 -70.5 -27zM341 -62h96v-87h-96v87zM473 -62h96v-87h-96v87zM341 -181h96v-87h-96v87zM473 -181h96v-87h-96v87z" />
    <glyph glyph-name="aTcheheh.medi" unicode="&#x687;" horiz-adv-x="604" arabic-form="medial" 
d="M-15 152h346v103q0 58 -15.5 82t-53.5 24q-33 0 -49.5 -15t-23.5 -57l-164 18q18 101 74.5 147t160.5 46q122 0 181 -60.5t59 -186.5v-101h119v-152h-634v152zM139 -175v108h118v-108h-118zM303 -175v108h118v-108h-118zM139 -321v108h118v-108h-118zM303 -321v108h118
v-108h-118z" />
    <glyph glyph-name="aTcheheh.init" unicode="&#x687;" horiz-adv-x="619" arabic-form="initial" 
d="M-15 152h346v103q0 58 -15.5 82t-53.5 24q-33 0 -49.5 -15t-23.5 -57l-164 18q18 101 74.5 147t160.5 46q122 0 181 -60.5t59 -186.5v-101h74v-152h-589v152zM139 -175v108h118v-108h-118zM303 -175v108h118v-108h-118zM139 -321v108h118v-108h-118zM303 -321v108h118
v-108h-118z" />
    <glyph glyph-name="aTcheheh.isol" unicode="&#x687;" horiz-adv-x="628" arabic-form="isolated" 
d="M197.5 -27q-26.5 -27 -26.5 -72q0 -42 28.5 -62t88.5 -20v-144q-283 0 -283 238q0 70 32.5 124t93 84.5t142.5 30.5h82v93q0 61 -16.5 88.5t-52.5 27.5q-31 0 -48.5 -17t-24.5 -55l-164 18q18 101 74.5 147t160.5 46q122 0 181 -60.5t59 -186.5v-101h74v-152h-330
q-44 0 -70.5 -27zM341 -62h96v-87h-96v87zM473 -62h96v-87h-96v87zM341 -181h96v-87h-96v87zM473 -181h96v-87h-96v87z" />
    <glyph glyph-name="aHah3uabove.init" unicode="&#x685;" horiz-adv-x="619" 
d="M-15 152h346v103q0 58 -15.5 82t-53.5 24q-33 0 -49.5 -15t-23.5 -57l-164 18q18 101 74.5 147t160.5 46q122 0 181 -60.5t59 -186.5v-101h74v-152h-589v152zM202 811h122v-114h-122v114zM113 671h122v-115h-122v115zM291 671h122v-115h-122v115z" />
    <glyph glyph-name="aHah3uabove.medi" unicode="&#x685;" horiz-adv-x="604" 
d="M-15 152h346v103q0 58 -15.5 82t-53.5 24q-33 0 -49.5 -15t-23.5 -57l-164 18q18 101 74.5 147t160.5 46q122 0 181 -60.5t59 -186.5v-101h119v-152h-634v152zM202 811h122v-114h-122v114zM113 671h122v-115h-122v115zM291 671h122v-115h-122v115z" />
    <glyph glyph-name="aHah3uabove.fina" unicode="&#x685;" horiz-adv-x="639" 
d="M197.5 -27q-26.5 -27 -26.5 -72q0 -40 25 -63t68 -23q47 0 71 22t29 68h180q-27 -230 -287 -230q-119 0 -185.5 62.5t-66.5 175.5q0 70 32.5 124t93 84.5t142.5 30.5h82v103q0 58 -15.5 82t-53.5 24q-33 0 -49.5 -15t-23.5 -57l-164 18q18 101 74.5 147t160.5 46
q122 0 181 -60.5t59 -186.5v-101h130v-152h-386q-44 0 -70.5 -27zM226 811h122v-114h-122v114zM137 671h122v-115h-122v115zM315 671h122v-115h-122v115z" />
    <glyph glyph-name="aDul.fina" unicode="&#x68e;" horiz-adv-x="610" arabic-form="final" 
d="M30 152h307v61q0 141 -122 141q-51 0 -115 -26l-43 139q38 16 84.5 25t92.5 9q79 0 140.5 -32t96.5 -92.5t35 -140.5v-84h119v-152h-595v152zM216 811h122v-114h-122v114zM127 671h122v-115h-122v115zM305 671h122v-115h-122v115z" />
    <glyph glyph-name="aDul.isol" unicode="&#x68e;" horiz-adv-x="556" arabic-form="isolated" 
d="M30 152h307v61q0 141 -122 141q-51 0 -115 -26l-43 139q38 16 84.5 25t92.5 9q79 0 140.5 -32t96.5 -92.5t35 -140.5v-236h-476v152zM216 811h122v-114h-122v114zM127 671h122v-115h-122v115zM305 671h122v-115h-122v115z" />
    <glyph glyph-name="aDdahal.fina" unicode="&#x68d;" horiz-adv-x="610" arabic-form="final" 
d="M30 152h307v61q0 141 -122 141q-51 0 -115 -26l-43 139q38 16 84.5 25t92.5 9q79 0 140.5 -32t96.5 -92.5t35 -140.5v-84h119v-152h-595v152zM103 -81h130v-123h-130v123zM290 -81h129v-123h-129v123z" />
    <glyph glyph-name="aDdahal.isol" unicode="&#x68d;" horiz-adv-x="556" arabic-form="isolated" 
d="M30 152h307v61q0 141 -122 141q-51 0 -115 -26l-43 139q38 16 84.5 25t92.5 9q79 0 140.5 -32t96.5 -92.5t35 -140.5v-236h-476v152zM103 -81h130v-123h-130v123zM290 -81h129v-123h-129v123z" />
    <glyph glyph-name="aDahal.fina" unicode="&#x68c;" horiz-adv-x="610" arabic-form="final" 
d="M30 152h307v61q0 141 -122 141q-51 0 -115 -26l-43 139q38 16 84.5 25t92.5 9q79 0 140.5 -32t96.5 -92.5t35 -140.5v-84h119v-152h-595v152zM118 700h131v-124h-131v124zM306 700h130v-124h-130v124z" />
    <glyph glyph-name="aDahal.isol" unicode="&#x68c;" horiz-adv-x="556" arabic-form="isolated" 
d="M30 152h307v61q0 141 -122 141q-51 0 -115 -26l-43 139q38 16 84.5 25t92.5 9q79 0 140.5 -32t96.5 -92.5t35 -140.5v-236h-476v152zM118 700h131v-124h-131v124zM306 700h130v-124h-130v124z" />
    <glyph glyph-name="aDdal1below.fina" unicode="&#x68b;" horiz-adv-x="610" 
d="M30 152h307v61q0 141 -122 141q-51 0 -115 -26l-43 139q38 16 84.5 25t92.5 9q79 0 140.5 -32t96.5 -92.5t35 -140.5v-84h119v-152h-595v152zM160 610h19v154h49v-89q26 35 72 35q35 0 54.5 -21t19.5 -57v-71h-214v49zM322 624q0 36 -35 36q-18 0 -33 -13t-15 -30v-7h83
v14zM187 -81h147v-130h-147v130z" />
    <glyph glyph-name="aDal1below.fina" unicode="&#x68a;" horiz-adv-x="610" 
d="M30 152h307v61q0 141 -122 141q-51 0 -115 -26l-43 139q38 16 84.5 25t92.5 9q79 0 140.5 -32t96.5 -92.5t35 -140.5v-84h119v-152h-595v152zM187 -81h147v-130h-147v130z" />
    <glyph glyph-name="aRehring.fina" unicode="&#x693;" horiz-adv-x="393" 
d="M293 -52q0 -140 -98 -178q12 -20 12 -48q0 -41 -25.5 -66t-66.5 -25t-66.5 25t-25.5 66q0 24 10 44q-10 2 -21 5l-22 6l24 129q37 -8 54 -8q56 0 56 53v541h169v-340h115v-152h-115v-52zM115 -313q15 0 23.5 9.5t8.5 25.5t-8.5 25.5t-23.5 9.5t-23.5 -9.5t-8.5 -25.5
t8.5 -25.5t23.5 -9.5z" />
    <glyph glyph-name="aRehVabove.fina" unicode="&#x692;" horiz-adv-x="393" 
d="M293 -52q0 -94 -45 -142.5t-133 -48.5q-54 0 -125 20l24 129q37 -8 54 -8q56 0 56 53v541h169v-340h115v-152h-115v-52zM172 561l-97 151h76l58 -97l58 97h76l-97 -151h-74z" />
    <glyph glyph-name="aDal4above.fina" unicode="&#x690;" horiz-adv-x="610" 
d="M30 152h307v61q0 141 -122 141q-51 0 -115 -26l-43 139q38 16 84.5 25t92.5 9q79 0 140.5 -32t96.5 -92.5t35 -140.5v-84h119v-152h-595v152zM136 720v108h118v-108h-118zM300 720v108h118v-108h-118zM136 574v108h118v-108h-118zM300 574v108h118v-108h-118z" />
    <glyph glyph-name="aDal3dabove.fina" unicode="&#x68f;" horiz-adv-x="610" 
d="M30 152h307v61q0 141 -122 141q-51 0 -115 -26l-43 139q38 16 84.5 25t92.5 9q79 0 140.5 -32t96.5 -92.5t35 -140.5v-84h119v-152h-595v152zM249 696h-122v115h122v-115zM427 696h-122v115h122v-115zM338 556h-122v114h122v-114z" />
    <glyph glyph-name="aReh2habove.fina" unicode="&#x697;" horiz-adv-x="393" 
d="M293 -52q0 -94 -45 -142.5t-133 -48.5q-54 0 -125 20l24 129q37 -8 54 -8q56 0 56 53v541h169v-340h115v-152h-115v-52zM-23 700h131v-124h-131v124zM165 700h130v-124h-130v124z" />
    <glyph glyph-name="aReh1above1below.fina" unicode="&#x696;" horiz-adv-x="433" 
d="M333 -52q0 -94 -45 -142.5t-133 -48.5q-54 0 -125 20l24 129q37 -8 54 -8q56 0 56 53v541h169v-340h115v-152h-115v-52zM92 -317h147v-130h-147v130zM-15 263h141v-131h-141v131z" />
    <glyph glyph-name="aRehVbelow.fina" unicode="&#x695;" horiz-adv-x="393" 
d="M293 -52q0 -94 -45 -142.5t-133 -48.5q-54 0 -125 20l24 129q37 -8 54 -8q56 0 56 53v541h169v-340h115v-152h-115v-52zM89 -455l-97 151h76l58 -97l58 97h76l-97 -151h-74z" />
    <glyph glyph-name="aReh1below.fina" unicode="&#x694;" horiz-adv-x="393" 
d="M293 -52q0 -94 -45 -142.5t-133 -48.5q-54 0 -125 20l24 129q37 -8 54 -8q56 0 56 53v541h169v-340h115v-152h-115v-52zM52 -317h147v-130h-147v130z" />
    <glyph glyph-name="aSad2hbelow.init" unicode="&#x69d;" horiz-adv-x="777" 
d="M-15 152h122v340h169v-96q35 55 92.5 83.5t131.5 28.5q109 0 168.5 -69.5t59.5 -194.5v-244h-743v152zM559 213q0 78 -30.5 115.5t-92.5 37.5q-46 0 -84.5 -23t-61.5 -65t-23 -95v-31h292v61zM290 -81h130v-123h-130v123zM477 -81h129v-123h-129v123z" />
    <glyph glyph-name="aSad2hbelow.medi" unicode="&#x69d;" horiz-adv-x="832" 
d="M-15 152h122v340h169v-96q35 55 92.5 83.5t131.5 28.5q109 0 168.5 -69.5t59.5 -194.5v-92h119v-152h-862v152zM559 213q0 78 -30.5 115.5t-92.5 37.5q-46 0 -84.5 -23t-61.5 -65t-23 -95v-31h292v61zM290 -81h130v-123h-130v123zM477 -81h129v-123h-129v123z" />
    <glyph glyph-name="aSad2hbelow.fina" unicode="&#x69d;" horiz-adv-x="1118" 
d="M562 0q-1 -115 -67 -178.5t-185 -63.5q-270 0 -270 257q0 45 14 97.5t38 94.5l150 -44q-18 -35 -28 -72t-10 -68q0 -120 98 -120q47 0 69 28.5t22 89.5v471h169v-96q35 55 92.5 83.5t131.5 28.5q109 0 168.5 -69.5t59.5 -194.5v-92h119v-152h-571zM845 213
q0 78 -30.5 115.5t-92.5 37.5q-46 0 -84.5 -23t-61.5 -65t-23 -95v-31h292v61zM596 -81h130v-123h-130v123zM783 -81h129v-123h-129v123z" />
    <glyph glyph-name="aSin3uabove3dbelow.init" unicode="&#x69c;" horiz-adv-x="899" 
d="M-15 152h122v340h169v-340h115v340h169v-340h115v197q0 62 -25 109l155 57q21 -29 30 -65t9 -89v-361h-859v152zM417 811h122v-114h-122v114zM328 671h122v-115h-122v115zM506 671h122v-115h-122v115zM450 -182h-122v115h122v-115zM628 -182h-122v115h122v-115zM539 -322
h-122v114h122v-114z" />
    <glyph glyph-name="aSin3uabove3dbelow.medi" unicode="&#x69c;" horiz-adv-x="951" 
d="M-15 152h122v340h169v-340h115v340h169v-340h115v197q0 62 -25 109l155 57q21 -29 30 -65t9 -89v-209h122v-152h-981v152zM417 811h122v-114h-122v114zM328 671h122v-115h-122v115zM506 671h122v-115h-122v115zM450 -182h-122v115h122v-115zM628 -182h-122v115h122v-115z
M539 -322h-122v114h122v-114z" />
    <glyph glyph-name="aSin3uabove3dbelow.fina" unicode="&#x69c;" horiz-adv-x="1237" 
d="M495.5 -178q-66.5 -64 -185.5 -64q-270 0 -270 257q0 45 14 97.5t38 94.5l150 -44q-18 -35 -28 -72t-10 -68q0 -120 98 -120q47 0 69 28.5t22 89.5v471h169v-340h115v340h169v-340h115v197q0 62 -25 109l155 57q21 -29 30 -65t9 -89v-209h122v-152h-690
q0 -114 -66.5 -178zM703 811h122v-114h-122v114zM614 671h122v-115h-122v115zM792 671h122v-115h-122v115zM736 -182h-122v115h122v-115zM914 -182h-122v115h122v-115zM825 -322h-122v114h122v-114z" />
    <glyph glyph-name="aSin3dbelow.init" unicode="&#x69b;" horiz-adv-x="899" 
d="M-15 152h122v340h169v-340h115v340h169v-340h115v197q0 62 -25 109l155 57q21 -29 30 -65t9 -89v-361h-859v152zM450 -182h-122v115h122v-115zM628 -182h-122v115h122v-115zM539 -322h-122v114h122v-114z" />
    <glyph glyph-name="aSin3dbelow.medi" unicode="&#x69b;" horiz-adv-x="951" 
d="M-15 152h122v340h169v-340h115v340h169v-340h115v197q0 62 -25 109l155 57q21 -29 30 -65t9 -89v-209h122v-152h-981v152zM450 -182h-122v115h122v-115zM628 -182h-122v115h122v-115zM539 -322h-122v114h122v-114z" />
    <glyph glyph-name="aSin3dbelow.fina" unicode="&#x69b;" horiz-adv-x="1237" 
d="M495.5 -178q-66.5 -64 -185.5 -64q-270 0 -270 257q0 45 14 97.5t38 94.5l150 -44q-18 -35 -28 -72t-10 -68q0 -120 98 -120q47 0 69 28.5t22 89.5v471h169v-340h115v340h169v-340h115v197q0 62 -25 109l155 57q21 -29 30 -65t9 -89v-209h122v-152h-690
q0 -114 -66.5 -178zM736 -182h-122v115h122v-115zM914 -182h-122v115h122v-115zM825 -322h-122v114h122v-114z" />
    <glyph glyph-name="aSin1above1below.init" unicode="&#x69a;" horiz-adv-x="899" 
d="M-15 152h122v340h169v-340h115v340h169v-340h115v197q0 62 -25 109l155 57q21 -29 30 -65t9 -89v-361h-859v152zM407 707h141v-131h-141v131zM404 -81h147v-130h-147v130z" />
    <glyph glyph-name="aSin1above1below.medi" unicode="&#x69a;" horiz-adv-x="951" 
d="M-15 152h122v340h169v-340h115v340h169v-340h115v197q0 62 -25 109l155 57q21 -29 30 -65t9 -89v-209h122v-152h-981v152zM407 707h141v-131h-141v131zM404 -81h147v-130h-147v130z" />
    <glyph glyph-name="aSin1above1below.fina" unicode="&#x69a;" horiz-adv-x="1237" 
d="M495.5 -178q-66.5 -64 -185.5 -64q-270 0 -270 257q0 45 14 97.5t38 94.5l150 -44q-18 -35 -28 -72t-10 -68q0 -120 98 -120q47 0 69 28.5t22 89.5v471h169v-340h115v340h169v-340h115v197q0 62 -25 109l155 57q21 -29 30 -65t9 -89v-209h122v-152h-690
q0 -114 -66.5 -178zM693 707h141v-131h-141v131zM690 -81h147v-130h-147v130z" />
    <glyph glyph-name="aReh4above.fina" unicode="&#x699;" horiz-adv-x="393" 
d="M293 -52q0 -94 -45 -142.5t-133 -48.5q-54 0 -125 20l24 129q37 -8 54 -8q56 0 56 53v541h169v-340h115v-152h-115v-52zM12 720v108h118v-108h-118zM176 720v108h118v-108h-118zM12 574v108h118v-108h-118zM176 574v108h118v-108h-118z" />
    <glyph glyph-name="aFeh1belowright.init" unicode="&#x6a2;" horiz-adv-x="587" 
d="M-15 152h123q-55 55 -55 140q0 59 30 108.5t85.5 78.5t129.5 29q116 0 177.5 -62.5t61.5 -181.5v-264h-552v152zM372 281q0 45 -17.5 64.5t-57.5 19.5q-37 0 -57 -25.5t-20 -72.5q0 -60 29 -87.5t91 -27.5h32v129zM228 -81h147v-130h-147v130z" />
    <glyph glyph-name="aFeh1belowright.medi" unicode="&#x6a2;" horiz-adv-x="641" 
d="M-15 152h123q-55 55 -55 140q0 59 30 108.5t85.5 78.5t129.5 29q116 0 177.5 -62.5t61.5 -181.5v-112h119v-152h-671v152zM372 281q0 45 -17.5 64.5t-57.5 19.5q-37 0 -57 -25.5t-20 -72.5q0 -60 29 -87.5t91 -27.5h32v129zM228 -81h147v-130h-147v130z" />
    <glyph glyph-name="aFeh1belowright.fina" unicode="&#x6a2;" horiz-adv-x="1055" 
d="M332 0q-151 0 -221.5 61t-70.5 192q0 70 30.5 124t90 86t142.5 37l20 -146q-62 -7 -88 -30.5t-26 -71.5q0 -100 112 -100h201q-55 55 -55 140q0 61 30 110.5t85 77.5t130 28q116 0 177.5 -62.5t61.5 -181.5v-112h119v-152h-738zM786 281q0 45 -17.5 64.5t-57.5 19.5
q-37 0 -57 -25.5t-20 -72.5q0 -60 29 -87.5t91 -27.5h32v129zM453 -81h147v-130h-147v130z" />
    <glyph glyph-name="aAyn3uabove.init" unicode="&#x6a0;" horiz-adv-x="623" 
d="M-15 152h116v101q0 126 59 186.5t181 60.5q104 0 160.5 -46t74.5 -147l-164 -18q-7 42 -23.5 57t-49.5 15q-38 0 -53.5 -24t-15.5 -82v-103h323v-152h-608v152zM277 811h122v-114h-122v114zM188 671h122v-115h-122v115zM366 671h122v-115h-122v115z" />
    <glyph glyph-name="aAyn3uabove.medi" unicode="&#x6a0;" horiz-adv-x="581" 
d="M-15 152h116v101q0 126 59 186.5t181 60.5q104 0 160.5 -46t74.5 -147l-164 -18q-7 42 -23.5 57t-49.5 15q-38 0 -53.5 -24t-15.5 -82v-103h326v-152h-611v152zM277 811h122v-114h-122v114zM188 671h122v-115h-122v115zM366 671h122v-115h-122v115z" />
    <glyph glyph-name="aAyn3uabove.fina" unicode="&#x6a0;" horiz-adv-x="674" 
d="M197.5 -27q-26.5 -27 -26.5 -72q0 -40 25 -63t68 -23q47 0 71 22t29 68h180q-27 -230 -287 -230q-119 0 -185.5 62.5t-66.5 175.5q0 87 50 148.5t139 81.5v110q0 126 59 186.5t181 60.5q104 0 160.5 -46t74.5 -147l-164 -18q-7 42 -23.5 57t-49.5 15q-38 0 -53.5 -24
t-15.5 -82v-103h326v-152h-421q-44 0 -70.5 -27zM371 811h122v-114h-122v114zM282 671h122v-115h-122v115zM460 671h122v-115h-122v115z" />
    <glyph glyph-name="aTah3uabove.init" unicode="&#x69f;" horiz-adv-x="777" 
d="M-15 152h122v562h169v-319q35 55 93 84t131 29q109 0 168.5 -69.5t59.5 -194.5v-244h-743v152zM559 213q0 78 -30.5 115.5t-92.5 37.5q-46 0 -84.5 -23t-61.5 -65t-23 -95v-31h292v61zM417 811h122v-114h-122v114zM328 671h122v-115h-122v115zM506 671h122v-115h-122v115
z" />
    <glyph glyph-name="aTah3uabove.medi" unicode="&#x69f;" horiz-adv-x="832" 
d="M-15 152h122v562h169v-319q35 55 92.5 84t130.5 29q109 0 169 -69.5t60 -194.5v-92h119v-152h-862v152zM559 213q0 78 -30.5 115.5t-92.5 37.5q-46 0 -84.5 -23t-61.5 -65t-23 -95v-31h292v61zM417 811h122v-114h-122v114zM328 671h122v-115h-122v115zM506 671h122v-115
h-122v115z" />
    <glyph glyph-name="aTah3uabove.fina" unicode="&#x69f;" horiz-adv-x="832" 
d="M30 152h77v562h169v-319q35 55 92.5 84t130.5 29q109 0 169 -69.5t60 -194.5v-92h119v-152h-817v152zM559 213q0 78 -30.5 115.5t-92.5 37.5q-46 0 -84.5 -23t-61.5 -65t-23 -95v-31h292v61zM417 811h122v-114h-122v114zM328 671h122v-115h-122v115zM506 671h122v-115
h-122v115z" />
    <glyph glyph-name="aSad3uabove.init" unicode="&#x69e;" horiz-adv-x="777" 
d="M-15 152h122v340h169v-96q35 55 92.5 83.5t131.5 28.5q109 0 168.5 -69.5t59.5 -194.5v-244h-743v152zM559 213q0 78 -30.5 115.5t-92.5 37.5q-46 0 -84.5 -23t-61.5 -65t-23 -95v-31h292v61zM387 811h122v-114h-122v114zM298 671h122v-115h-122v115zM476 671h122v-115
h-122v115z" />
    <glyph glyph-name="aSad3uabove.medi" unicode="&#x69e;" horiz-adv-x="832" 
d="M-15 152h122v340h169v-96q35 55 92.5 83.5t131.5 28.5q109 0 168.5 -69.5t59.5 -194.5v-92h119v-152h-862v152zM559 213q0 78 -30.5 115.5t-92.5 37.5q-46 0 -84.5 -23t-61.5 -65t-23 -95v-31h292v61zM387 811h122v-114h-122v114zM298 671h122v-115h-122v115zM476 671
h122v-115h-122v115z" />
    <glyph glyph-name="aSad3uabove.fina" unicode="&#x69e;" horiz-adv-x="1118" 
d="M562 0q-1 -115 -67 -178.5t-185 -63.5q-270 0 -270 257q0 45 14 97.5t38 94.5l150 -44q-18 -35 -28 -72t-10 -68q0 -120 98 -120q47 0 69 28.5t22 89.5v471h169v-96q35 55 92.5 83.5t131.5 28.5q109 0 168.5 -69.5t59.5 -194.5v-92h119v-152h-571zM845 213
q0 78 -30.5 115.5t-92.5 37.5q-46 0 -84.5 -23t-61.5 -65t-23 -95v-31h292v61zM673 811h122v-114h-122v114zM584 671h122v-115h-122v115zM762 671h122v-115h-122v115z" />
    <glyph glyph-name="aQaf1above.init" unicode="&#x6a7;" horiz-adv-x="587" 
d="M-15 152h123q-55 55 -55 140q0 59 30 108.5t85.5 78.5t129.5 29q116 0 177.5 -62.5t61.5 -181.5v-264h-552v152zM372 281q0 45 -17.5 64.5t-57.5 19.5q-37 0 -57 -25.5t-20 -72.5q0 -60 29 -87.5t91 -27.5h32v129zM222 711h141v-131h-141v131z" />
    <glyph glyph-name="aQaf1above.medi" unicode="&#x6a7;" horiz-adv-x="641" 
d="M-15 152h123q-55 55 -55 140q0 59 30 108.5t85.5 78.5t129.5 29q116 0 177.5 -62.5t61.5 -181.5v-112h119v-152h-671v152zM372 281q0 45 -17.5 64.5t-57.5 19.5q-37 0 -57 -25.5t-20 -72.5q0 -60 29 -87.5t91 -27.5h32v129zM222 711h141v-131h-141v131z" />
    <glyph glyph-name="aQaf1above.fina" unicode="&#x6a7;" horiz-adv-x="763" 
d="M659 -14q0 -110 -75 -166t-223 -56q-168 0 -249.5 59.5t-81.5 182.5h172q3 -57 36.5 -79t116.5 -22q75 0 107 22t32 73h-22q-140 0 -218.5 69.5t-78.5 193.5q0 73 29.5 128t85.5 86t130 31q116 0 177.5 -63t61.5 -183v-110h119v-152h-119v-14zM494 280q0 46 -17.5 65.5
t-57.5 19.5q-37 0 -57 -25.5t-20 -72.5q0 -60 29 -87.5t91 -27.5h32v128zM344 711h141v-131h-141v131z" />
    <glyph glyph-name="aPeheh.fina" unicode="&#x6a6;" horiz-adv-x="1055" arabic-form="final" 
d="M332 0q-151 0 -221.5 61t-70.5 192q0 70 30.5 124t90 86t142.5 37l20 -146q-62 -7 -88 -30.5t-26 -71.5q0 -100 112 -100h201q-55 55 -55 140q0 61 30 110.5t85 77.5t130 28q116 0 177.5 -62.5t61.5 -181.5v-112h119v-152h-738zM786 281q0 45 -17.5 64.5t-57.5 19.5
q-37 0 -57 -25.5t-20 -72.5q0 -60 29 -87.5t91 -27.5h32v129zM566 724v108h118v-108h-118zM730 724v108h118v-108h-118zM566 578v108h118v-108h-118zM730 578v108h118v-108h-118z" />
    <glyph glyph-name="aPeheh.medi" unicode="&#x6a6;" horiz-adv-x="641" arabic-form="medial" 
d="M-15 152h123q-55 55 -55 140q0 59 30 108.5t85.5 78.5t129.5 29q116 0 177.5 -62.5t61.5 -181.5v-112h119v-152h-671v152zM372 281q0 45 -17.5 64.5t-57.5 19.5q-37 0 -57 -25.5t-20 -72.5q0 -60 29 -87.5t91 -27.5h32v129zM152 724v108h118v-108h-118zM316 724v108h118
v-108h-118zM152 578v108h118v-108h-118zM316 578v108h118v-108h-118z" />
    <glyph glyph-name="aPeheh.init" unicode="&#x6a6;" horiz-adv-x="587" arabic-form="initial" 
d="M-15 152h123q-55 55 -55 140q0 59 30 108.5t85.5 78.5t129.5 29q116 0 177.5 -62.5t61.5 -181.5v-264h-552v152zM372 281q0 45 -17.5 64.5t-57.5 19.5q-37 0 -57 -25.5t-20 -72.5q0 -60 29 -87.5t91 -27.5h32v129zM152 724v108h118v-108h-118zM316 724v108h118v-108h-118
zM152 578v108h118v-108h-118zM316 578v108h118v-108h-118z" />
    <glyph glyph-name="aPeheh.isol" unicode="&#x6a6;" horiz-adv-x="1001" arabic-form="isolated" 
d="M522 152q-55 55 -55 140q0 61 30 110.5t85 77.5t130 28q116 0 177.5 -62.5t61.5 -181.5v-264h-619q-151 0 -221.5 61t-70.5 192q0 70 30.5 124t90 86t142.5 37l20 -146q-62 -7 -88 -30.5t-26 -71.5q0 -100 112 -100h201zM786 281q0 45 -17.5 64.5t-57.5 19.5
q-37 0 -57 -25.5t-20 -72.5q0 -60 29 -87.5t91 -27.5h32v129zM566 724v108h118v-108h-118zM730 724v108h118v-108h-118zM566 578v108h118v-108h-118zM730 578v108h118v-108h-118z" />
    <glyph glyph-name="aFeh3dbelow.init" unicode="&#x6a5;" horiz-adv-x="587" 
d="M-15 152h123q-55 55 -55 140q0 59 30 108.5t85.5 78.5t129.5 29q116 0 177.5 -62.5t61.5 -181.5v-264h-552v152zM372 281q0 45 -17.5 64.5t-57.5 19.5q-37 0 -57 -25.5t-20 -72.5q0 -60 29 -87.5t91 -27.5h32v129zM274 -182h-122v115h122v-115zM452 -182h-122v115h122
v-115zM363 -322h-122v114h122v-114z" />
    <glyph glyph-name="aFeh3dbelow.medi" unicode="&#x6a5;" horiz-adv-x="641" 
d="M-15 152h123q-55 55 -55 140q0 59 30 108.5t85.5 78.5t129.5 29q116 0 177.5 -62.5t61.5 -181.5v-112h119v-152h-671v152zM372 281q0 45 -17.5 64.5t-57.5 19.5q-37 0 -57 -25.5t-20 -72.5q0 -60 29 -87.5t91 -27.5h32v129zM274 -182h-122v115h122v-115zM452 -182h-122
v115h122v-115zM363 -322h-122v114h122v-114z" />
    <glyph glyph-name="aFeh3dbelow.fina" unicode="&#x6a5;" horiz-adv-x="1055" 
d="M332 0q-151 0 -221.5 61t-70.5 192q0 70 30.5 124t90 86t142.5 37l20 -146q-62 -7 -88 -30.5t-26 -71.5q0 -100 112 -100h201q-55 55 -55 140q0 61 30 110.5t85 77.5t130 28q116 0 177.5 -62.5t61.5 -181.5v-112h119v-152h-738zM786 281q0 45 -17.5 64.5t-57.5 19.5
q-37 0 -57 -25.5t-20 -72.5q0 -60 29 -87.5t91 -27.5h32v129zM499 -182h-122v115h122v-115zM677 -182h-122v115h122v-115zM588 -322h-122v114h122v-114z" />
    <glyph glyph-name="aFeh1below.init" unicode="&#x6a3;" horiz-adv-x="587" 
d="M-15 152h123q-55 55 -55 140q0 59 30 108.5t85.5 78.5t129.5 29q116 0 177.5 -62.5t61.5 -181.5v-264h-552v152zM372 281q0 45 -17.5 64.5t-57.5 19.5q-37 0 -57 -25.5t-20 -72.5q0 -60 29 -87.5t91 -27.5h32v129zM222 711h141v-131h-141v131zM228 -81h147v-130h-147v130
z" />
    <glyph glyph-name="aFeh1below.medi" unicode="&#x6a3;" horiz-adv-x="641" 
d="M-15 152h123q-55 55 -55 140q0 59 30 108.5t85.5 78.5t129.5 29q116 0 177.5 -62.5t61.5 -181.5v-112h119v-152h-671v152zM372 281q0 45 -17.5 64.5t-57.5 19.5q-37 0 -57 -25.5t-20 -72.5q0 -60 29 -87.5t91 -27.5h32v129zM222 711h141v-131h-141v131zM228 -81h147v-130
h-147v130z" />
    <glyph glyph-name="aFeh1below.fina" unicode="&#x6a3;" horiz-adv-x="1055" 
d="M332 0q-151 0 -221.5 61t-70.5 192q0 70 30.5 124t90 86t142.5 37l20 -146q-62 -7 -88 -30.5t-26 -71.5q0 -100 112 -100h201q-55 55 -55 140q0 61 30 110.5t85 77.5t130 28q116 0 177.5 -62.5t61.5 -181.5v-112h119v-152h-738zM786 281q0 45 -17.5 64.5t-57.5 19.5
q-37 0 -57 -25.5t-20 -72.5q0 -60 29 -87.5t91 -27.5h32v129zM636 711h141v-131h-141v131zM453 -81h147v-130h-147v130z" />
    <glyph glyph-name="aKaf1above.init" unicode="&#x6ac;" horiz-adv-x="583" 
d="M-15 152h371v62q0 58 -14.5 87.5t-46 41t-88.5 11.5h-176v120l287 240h225l-270 -218l22 -2q230 -21 230 -241v-253h-540v152zM-63 714h141v-131h-141v131z" />
    <glyph glyph-name="aKaf1above.medi" unicode="&#x6ac;" horiz-adv-x="629" 
d="M-15 152h371v62q0 58 -14.5 87.5t-46 41t-88.5 11.5h-176v120l287 240h225l-270 -218l22 -2q230 -21 230 -241v-101h119v-152h-659v152zM-63 714h141v-131h-141v131z" />
    <glyph glyph-name="aKaf1above.fina" unicode="&#x6ac;" horiz-adv-x="885" 
d="M110.5 61q-70.5 61 -70.5 192q0 70 30.5 124t90 86t142.5 37l20 -146q-62 -7 -88 -30.5t-26 -71.5q0 -100 112 -100h288v562h169v-562h122v-152h-568q-151 0 -221.5 61zM368 419h21v44q0 36 20.5 56.5t58.5 20.5q36 0 55.5 -17t25.5 -55l-52 -7q-4 29 -26 29
q-28 0 -28 -33v-38h105v-53h-180v53zM389 705h141v-131h-141v131z" />
    <glyph glyph-name="aKafring.init" unicode="&#x6ab;" horiz-adv-x="583" 
d="M-15 152h371v62q0 58 -14.5 87.5t-46 41t-88.5 11.5h-176v120l287 240h225l-60 -49q23 -10 36 -31.5t13 -49.5q0 -41 -25.5 -66t-66.5 -25q-34 0 -57.5 17.5t-31.5 48.5l-78 -63l22 -2q230 -21 230 -241v-253h-540v152zM440 549q15 0 23.5 9.5t8.5 25.5t-8.5 25.5
t-23.5 9.5t-23.5 -9.5t-8.5 -25.5t8.5 -25.5t23.5 -9.5z" />
    <glyph glyph-name="aKafring.medi" unicode="&#x6ab;" horiz-adv-x="629" 
d="M-15 152h371v62q0 58 -14.5 87.5t-46 41t-88.5 11.5h-176v120l287 240h225l-60 -49q23 -10 36 -31.5t13 -49.5q0 -41 -25.5 -66t-66.5 -25q-34 0 -57.5 17.5t-31.5 48.5l-78 -63l22 -2q230 -21 230 -241v-101h119v-152h-659v152zM440 549q15 0 23.5 9.5t8.5 25.5
t-8.5 25.5t-23.5 9.5t-23.5 -9.5t-8.5 -25.5t8.5 -25.5t23.5 -9.5z" />
    <glyph glyph-name="aKafring.fina" unicode="&#x6ab;" horiz-adv-x="1013" 
d="M332 0q-151 0 -221.5 61t-70.5 192q0 70 30.5 124t90 86t142.5 37l20 -146q-62 -7 -88 -30.5t-26 -71.5q0 -100 112 -100h419v62q0 58 -14.5 87.5t-46 41t-88.5 11.5h-176v120l287 240h225l-60 -49q23 -10 36 -31.5t13 -49.5q0 -41 -25.5 -66t-66.5 -25q-34 0 -57.5 17.5
t-31.5 48.5l-78 -63l22 -2q230 -21 230 -241v-101h119v-152h-696zM824 549q15 0 23.5 9.5t8.5 25.5t-8.5 25.5t-23.5 9.5t-23.5 -9.5t-8.5 -25.5t8.5 -25.5t23.5 -9.5z" />
    <glyph glyph-name="aKafswash.init" unicode="&#x6aa;" horiz-adv-x="774" 
d="M565 199q0 76 -39.5 109.5t-129.5 33.5h-363v132l287 240h225l-272 -220h169q136 0 214 -76t78 -208v-210h-749v152h580v47z" />
    <glyph glyph-name="aKafswash.medi" unicode="&#x6aa;" horiz-adv-x="774" 
d="M-15 152h580v47q0 76 -39.5 109.5t-129.5 33.5h-363v132l287 240h225l-272 -220h169q136 0 214 -76t78 -208v-58h119v-152h-868v152z" />
    <glyph glyph-name="aKafswash.fina" unicode="&#x6aa;" horiz-adv-x="1018" 
d="M115 53.5q-76 53.5 -76 150.5q0 82 33 140l153 -38q-21 -29 -21 -75q0 -79 122 -79h483v47q0 76 -39.5 109.5t-129.5 33.5h-363v132l287 240h225l-272 -220h169q136 0 214 -76t78 -208v-58h119v-152h-766q-140 0 -216 53.5z" />
    <glyph glyph-name="aQaf3uabove.init" unicode="&#x6a8;" horiz-adv-x="587" 
d="M-15 152h123q-55 55 -55 140q0 59 30 108.5t85.5 78.5t129.5 29q116 0 177.5 -62.5t61.5 -181.5v-264h-552v152zM372 281q0 45 -17.5 64.5t-57.5 19.5q-37 0 -57 -25.5t-20 -72.5q0 -60 29 -87.5t91 -27.5h32v129zM232 815h122v-114h-122v114zM143 675h122v-115h-122v115
zM321 675h122v-115h-122v115z" />
    <glyph glyph-name="aQaf3uabove.medi" unicode="&#x6a8;" horiz-adv-x="641" 
d="M-15 152h123q-55 55 -55 140q0 59 30 108.5t85.5 78.5t129.5 29q116 0 177.5 -62.5t61.5 -181.5v-112h119v-152h-671v152zM372 281q0 45 -17.5 64.5t-57.5 19.5q-37 0 -57 -25.5t-20 -72.5q0 -60 29 -87.5t91 -27.5h32v129zM232 815h122v-114h-122v114zM143 675h122v-115
h-122v115zM321 675h122v-115h-122v115z" />
    <glyph glyph-name="aQaf3uabove.fina" unicode="&#x6a8;" horiz-adv-x="763" 
d="M659 -14q0 -110 -75 -166t-223 -56q-168 0 -249.5 59.5t-81.5 182.5h172q3 -57 36.5 -79t116.5 -22q75 0 107 22t32 73h-22q-140 0 -218.5 69.5t-78.5 193.5q0 73 29.5 128t85.5 86t130 31q116 0 177.5 -63t61.5 -183v-110h119v-152h-119v-14zM494 280q0 46 -17.5 65.5
t-57.5 19.5q-37 0 -57 -25.5t-20 -72.5q0 -60 29 -87.5t91 -27.5h32v128zM354 815h122v-114h-122v114zM265 675h122v-115h-122v115zM443 675h122v-115h-122v115z" />
    <glyph glyph-name="aNgoeh.fina" unicode="&#x6b1;" horiz-adv-x="1013" arabic-form="final" 
d="M110.5 61q-70.5 61 -70.5 192q0 70 30.5 124t90 86t142.5 37l20 -146q-62 -7 -88 -30.5t-26 -71.5q0 -100 112 -100h419v62q0 58 -14.5 87.5t-46 41t-88.5 11.5h-176v120l287 240h225l-270 -218l22 -2q230 -21 230 -241v-101h119v-152h-696q-151 0 -221.5 61zM415 627
l109 87h123l-232 -191v104zM154 838h131v-124h-131v124zM342 838h130v-124h-130v124z" />
    <glyph glyph-name="aNgoeh.medi" unicode="&#x6b1;" horiz-adv-x="629" arabic-form="medial" 
d="M-15 152h371v62q0 58 -14.5 87.5t-46 41t-88.5 11.5h-176v120l287 240h225l-270 -218l22 -2q230 -21 230 -241v-101h119v-152h-659v152zM31 627l109 87h123l-232 -191v104zM-230 838h131v-124h-131v124zM-42 838h130v-124h-130v124z" />
    <glyph glyph-name="aNgoeh.init" unicode="&#x6b1;" horiz-adv-x="583" arabic-form="initial" 
d="M-15 152h371v62q0 58 -14.5 87.5t-46 41t-88.5 11.5h-176v120l287 240h225l-270 -218l22 -2q230 -21 230 -241v-253h-540v152zM31 627l109 87h123l-232 -191v104zM-230 838h131v-124h-131v124zM-42 838h130v-124h-130v124z" />
    <glyph glyph-name="aNgoeh.isol" unicode="&#x6b1;" horiz-adv-x="967" arabic-form="isolated" 
d="M110.5 61q-70.5 61 -70.5 192q0 70 30.5 124t90 86t142.5 37l20 -146q-62 -7 -88 -30.5t-26 -71.5q0 -100 112 -100h419v62q0 58 -14.5 87.5t-46 41t-88.5 11.5h-176v120l287 240h225l-270 -218l22 -2q230 -21 230 -241v-253h-577q-151 0 -221.5 61zM415 627l109 87h123
l-232 -191v104zM154 838h131v-124h-131v124zM342 838h130v-124h-130v124z" />
    <glyph glyph-name="aGafring.init" unicode="&#x6b0;" horiz-adv-x="583" 
d="M-15 152h371v62q0 58 -14.5 87.5t-46 41t-88.5 11.5h-176v120l287 240h225l-60 -49q23 -10 36 -31.5t13 -49.5q0 -41 -25.5 -66t-66.5 -25q-34 0 -57.5 17.5t-31.5 48.5l-78 -63l22 -2q230 -21 230 -241v-253h-540v152zM440 549q15 0 23.5 9.5t8.5 25.5t-8.5 25.5
t-23.5 9.5t-23.5 -9.5t-8.5 -25.5t8.5 -25.5t23.5 -9.5zM31 627l109 87h123l-232 -191v104z" />
    <glyph glyph-name="aGafring.medi" unicode="&#x6b0;" horiz-adv-x="629" 
d="M-15 152h371v62q0 58 -14.5 87.5t-46 41t-88.5 11.5h-176v120l287 240h225l-60 -49q23 -10 36 -31.5t13 -49.5q0 -41 -25.5 -66t-66.5 -25q-34 0 -57.5 17.5t-31.5 48.5l-78 -63l22 -2q230 -21 230 -241v-101h119v-152h-659v152zM440 549q15 0 23.5 9.5t8.5 25.5
t-8.5 25.5t-23.5 9.5t-23.5 -9.5t-8.5 -25.5t8.5 -25.5t23.5 -9.5zM31 627l109 87h123l-232 -191v104z" />
    <glyph glyph-name="aGafring.fina" unicode="&#x6b0;" horiz-adv-x="1013" 
d="M332 0q-151 0 -221.5 61t-70.5 192q0 70 30.5 124t90 86t142.5 37l20 -146q-62 -7 -88 -30.5t-26 -71.5q0 -100 112 -100h419v62q0 58 -14.5 87.5t-46 41t-88.5 11.5h-176v120l287 240h225l-60 -49q23 -10 36 -31.5t13 -49.5q0 -41 -25.5 -66t-66.5 -25q-34 0 -57.5 17.5
t-31.5 48.5l-78 -63l22 -2q230 -21 230 -241v-101h119v-152h-696zM824 549q15 0 23.5 9.5t8.5 25.5t-8.5 25.5t-23.5 9.5t-23.5 -9.5t-8.5 -25.5t8.5 -25.5t23.5 -9.5zM415 627l109 87h123l-232 -191v104z" />
    <glyph glyph-name="aKaf3dbelow.init" unicode="&#x6ae;" horiz-adv-x="583" 
d="M-15 152h371v62q0 58 -14.5 87.5t-46 41t-88.5 11.5h-176v120l287 240h225l-270 -218l22 -2q230 -21 230 -241v-253h-540v152zM207 -182h-122v115h122v-115zM385 -182h-122v115h122v-115zM296 -322h-122v114h122v-114z" />
    <glyph glyph-name="aKaf3dbelow.medi" unicode="&#x6ae;" horiz-adv-x="629" 
d="M-15 152h371v62q0 58 -14.5 87.5t-46 41t-88.5 11.5h-176v120l287 240h225l-270 -218l22 -2q230 -21 230 -241v-101h119v-152h-659v152zM207 -182h-122v115h122v-115zM385 -182h-122v115h122v-115zM296 -322h-122v114h122v-114z" />
    <glyph glyph-name="aKaf3dbelow.fina" unicode="&#x6ae;" horiz-adv-x="885" 
d="M110.5 61q-70.5 61 -70.5 192q0 70 30.5 124t90 86t142.5 37l20 -146q-62 -7 -88 -30.5t-26 -71.5q0 -100 112 -100h288v562h169v-562h122v-152h-568q-151 0 -221.5 61zM368 419h21v44q0 36 20.5 56.5t58.5 20.5q36 0 55.5 -17t25.5 -55l-52 -7q-4 29 -26 29
q-28 0 -28 -33v-38h105v-53h-180v53zM440 -182h-122v115h122v-115zM618 -182h-122v115h122v-115zM529 -322h-122v114h122v-114z" />
    <glyph glyph-name="aNg.fina" unicode="&#x6ad;" horiz-adv-x="885" arabic-form="final" 
d="M110.5 61q-70.5 61 -70.5 192q0 70 30.5 124t90 86t142.5 37l20 -146q-62 -7 -88 -30.5t-26 -71.5q0 -100 112 -100h288v562h169v-562h122v-152h-568q-151 0 -221.5 61zM368 419h21v44q0 36 20.5 56.5t58.5 20.5q36 0 55.5 -17t25.5 -55l-52 -7q-4 29 -26 29
q-28 0 -28 -33v-38h105v-53h-180v53zM362 829h122v-114h-122v114zM273 689h122v-115h-122v115zM451 689h122v-115h-122v115z" />
    <glyph glyph-name="aNg.medi" unicode="&#x6ad;" horiz-adv-x="629" arabic-form="medial" 
d="M-15 152h371v62q0 58 -14.5 87.5t-46 41t-88.5 11.5h-176v120l287 240h225l-270 -218l22 -2q230 -21 230 -241v-101h119v-152h-659v152zM-73 858h122v-114h-122v114zM-162 718h122v-115h-122v115zM16 718h122v-115h-122v115z" />
    <glyph glyph-name="aNg.init" unicode="&#x6ad;" horiz-adv-x="583" arabic-form="initial" 
d="M-15 152h371v62q0 58 -14.5 87.5t-46 41t-88.5 11.5h-176v120l287 240h225l-270 -218l22 -2q230 -21 230 -241v-253h-540v152zM-73 858h122v-114h-122v114zM-162 718h122v-115h-122v115zM16 718h122v-115h-122v115z" />
    <glyph glyph-name="aNg.isol" unicode="&#x6ad;" horiz-adv-x="833" arabic-form="isolated" 
d="M110.5 61q-70.5 61 -70.5 192q0 70 30.5 124t90 86t142.5 37l20 -146q-62 -7 -88 -30.5t-26 -71.5q0 -100 112 -100h288v562h169v-714h-446q-151 0 -221.5 61zM362 829h122v-114h-122v114zM273 689h122v-115h-122v115zM451 689h122v-115h-122v115zM368 419h21v44
q0 36 20.5 56.5t58.5 20.5q36 0 55.5 -17t25.5 -55l-52 -7q-4 29 -26 29q-28 0 -28 -33v-38h105v-53h-180v53z" />
    <glyph glyph-name="aLam1above.init" unicode="&#x6b6;" horiz-adv-x="331" 
d="M-15 152h122v562h169v-714h-291v152zM123 900h141v-131h-141v131z" />
    <glyph glyph-name="aLam1above.medi" unicode="&#x6b6;" horiz-adv-x="383" 
d="M-15 152h122v562h169v-562h122v-152h-413v152zM123 900h141v-131h-141v131z" />
    <glyph glyph-name="aLam1above.fina" unicode="&#x6b6;" horiz-adv-x="669" 
d="M495.5 -178q-66.5 -64 -185.5 -64q-270 0 -270 241q0 49 12 104.5t34 104.5l155 -39q-16 -33 -26.5 -76.5t-10.5 -77.5q0 -55 24.5 -83.5t73.5 -28.5q47 0 69 28.5t22 89.5v693h169v-562h122v-152h-122q0 -114 -66.5 -178zM409 900h141v-131h-141v131z" />
    <glyph glyph-name="aLamVabove.init" unicode="&#x6b5;" horiz-adv-x="331" 
d="M-15 152h122v562h169v-714h-291v152zM157 769l-97 151h76l58 -97l58 97h76l-97 -151h-74z" />
    <glyph glyph-name="aLamVabove.medi" unicode="&#x6b5;" horiz-adv-x="383" 
d="M-15 152h122v562h169v-562h122v-152h-413v152zM157 769l-97 151h76l58 -97l58 97h76l-97 -151h-74z" />
    <glyph glyph-name="aLamVabove.fina" unicode="&#x6b5;" horiz-adv-x="669" 
d="M495.5 -178q-66.5 -64 -185.5 -64q-270 0 -270 241q0 49 12 104.5t34 104.5l155 -39q-16 -33 -26.5 -76.5t-10.5 -77.5q0 -55 24.5 -83.5t73.5 -28.5q47 0 69 28.5t22 89.5v693h169v-562h122v-152h-122q0 -114 -66.5 -178zM442 769l-97 151h76l58 -97l58 97h76l-97 -151
h-74z" />
    <glyph glyph-name="aGaf3uabove.init" unicode="&#x6b4;" horiz-adv-x="583" 
d="M-15 152h371v62q0 58 -14.5 87.5t-46 41t-88.5 11.5h-176v120l287 240h225l-270 -218l22 -2q230 -21 230 -241v-253h-540v152zM31 627l109 87h123l-232 -191v104zM-123 969h122v-114h-122v114zM-212 829h122v-115h-122v115zM-34 829h122v-115h-122v115z" />
    <glyph glyph-name="aGaf3uabove.medi" unicode="&#x6b4;" horiz-adv-x="629" 
d="M-15 152h371v62q0 58 -14.5 87.5t-46 41t-88.5 11.5h-176v120l287 240h225l-270 -218l22 -2q230 -21 230 -241v-101h119v-152h-659v152zM31 627l109 87h123l-232 -191v104zM-123 969h122v-114h-122v114zM-212 829h122v-115h-122v115zM-34 829h122v-115h-122v115z" />
    <glyph glyph-name="aGaf3uabove.fina" unicode="&#x6b4;" horiz-adv-x="1013" 
d="M110.5 61q-70.5 61 -70.5 192q0 70 30.5 124t90 86t142.5 37l20 -146q-62 -7 -88 -30.5t-26 -71.5q0 -100 112 -100h419v62q0 58 -14.5 87.5t-46 41t-88.5 11.5h-176v120l287 240h225l-270 -218l22 -2q230 -21 230 -241v-101h119v-152h-696q-151 0 -221.5 61zM415 627
l109 87h123l-232 -191v104zM261 969h122v-114h-122v114zM172 829h122v-115h-122v115zM350 829h122v-115h-122v115z" />
    <glyph glyph-name="aGueh.fina" unicode="&#x6b3;" horiz-adv-x="1013" arabic-form="final" 
d="M110.5 61q-70.5 61 -70.5 192q0 70 30.5 124t90 86t142.5 37l20 -146q-62 -7 -88 -30.5t-26 -71.5q0 -100 112 -100h419v62q0 58 -14.5 87.5t-46 41t-88.5 11.5h-176v120l287 240h225l-270 -218l22 -2q230 -21 230 -241v-101h119v-152h-696q-151 0 -221.5 61zM551 -173
h-132v106h132v-106zM551 -321h-132v106h132v-106zM415 627l109 87h123l-232 -191v104z" />
    <glyph glyph-name="aGueh.medi" unicode="&#x6b3;" horiz-adv-x="629" arabic-form="medial" 
d="M-15 152h371v62q0 58 -14.5 87.5t-46 41t-88.5 11.5h-176v120l287 240h225l-270 -218l22 -2q230 -21 230 -241v-101h119v-152h-659v152zM301 -173h-132v106h132v-106zM301 -321h-132v106h132v-106zM31 627l109 87h123l-232 -191v104z" />
    <glyph glyph-name="aGueh.init" unicode="&#x6b3;" horiz-adv-x="583" arabic-form="initial" 
d="M-15 152h371v62q0 58 -14.5 87.5t-46 41t-88.5 11.5h-176v120l287 240h225l-270 -218l22 -2q230 -21 230 -241v-253h-540v152zM301 -173h-132v106h132v-106zM301 -321h-132v106h132v-106zM31 627l109 87h123l-232 -191v104z" />
    <glyph glyph-name="aGueh.isol" unicode="&#x6b3;" horiz-adv-x="967" arabic-form="isolated" 
d="M110.5 61q-70.5 61 -70.5 192q0 70 30.5 124t90 86t142.5 37l20 -146q-62 -7 -88 -30.5t-26 -71.5q0 -100 112 -100h419v62q0 58 -14.5 87.5t-46 41t-88.5 11.5h-176v120l287 240h225l-270 -218l22 -2q230 -21 230 -241v-253h-577q-151 0 -221.5 61zM551 -173h-132v106
h132v-106zM551 -321h-132v106h132v-106zM415 627l109 87h123l-232 -191v104z" />
    <glyph glyph-name="aGaf2hbelow.init" unicode="&#x6b2;" horiz-adv-x="583" 
d="M-15 152h371v62q0 58 -14.5 87.5t-46 41t-88.5 11.5h-176v120l287 240h225l-270 -218l22 -2q230 -21 230 -241v-253h-540v152zM77 -81h130v-123h-130v123zM264 -81h129v-123h-129v123zM31 627l109 87h123l-232 -191v104z" />
    <glyph glyph-name="aGaf2hbelow.medi" unicode="&#x6b2;" horiz-adv-x="629" 
d="M-15 152h371v62q0 58 -14.5 87.5t-46 41t-88.5 11.5h-176v120l287 240h225l-270 -218l22 -2q230 -21 230 -241v-101h119v-152h-659v152zM77 -81h130v-123h-130v123zM264 -81h129v-123h-129v123zM31 627l109 87h123l-232 -191v104z" />
    <glyph glyph-name="aGaf2hbelow.fina" unicode="&#x6b2;" horiz-adv-x="1013" 
d="M110.5 61q-70.5 61 -70.5 192q0 70 30.5 124t90 86t142.5 37l20 -146q-62 -7 -88 -30.5t-26 -71.5q0 -100 112 -100h419v62q0 58 -14.5 87.5t-46 41t-88.5 11.5h-176v120l287 240h225l-270 -218l22 -2q230 -21 230 -241v-101h119v-152h-696q-151 0 -221.5 61zM327 -81
h130v-123h-130v123zM514 -81h129v-123h-129v123zM415 627l109 87h123l-232 -191v104z" />
    <glyph glyph-name="aRnun.fina" unicode="&#x6bb;" horiz-adv-x="669" arabic-form="final" 
d="M495.5 -178q-66.5 -64 -185.5 -64q-270 0 -270 257q0 45 14 97.5t38 94.5l150 -44q-18 -35 -28 -72t-10 -68q0 -120 98 -120q47 0 69 28.5t22 89.5v471h169v-340h122v-152h-122q0 -114 -66.5 -178zM167 610h19v154h49v-89q26 35 72 35q35 0 54.5 -21t19.5 -57v-71h-214
v49zM329 624q0 36 -35 36q-18 0 -33 -13t-15 -30v-7h83v14z" />
    <glyph glyph-name="aRnun.medi" unicode="&#x6bb;" horiz-adv-x="383" arabic-form="medial" 
d="M-15 152h122v340h169v-340h122v-152h-413v152zM74 610h19v154h49v-89q26 35 72 35q35 0 54.5 -21t19.5 -57v-71h-214v49zM236 624q0 36 -35 36q-18 0 -33 -13t-15 -30v-7h83v14z" />
    <glyph glyph-name="aRnun.init" unicode="&#x6bb;" horiz-adv-x="331" arabic-form="initial" 
d="M-15 152h122v197q0 62 -25 109l155 57q21 -29 30 -65t9 -89v-361h-291v152zM53 610h19v154h49v-89q26 35 72 35q35 0 54.5 -21t19.5 -57v-71h-214v49zM215 624q0 36 -35 36q-18 0 -33 -13t-15 -30v-7h83v14z" />
    <glyph glyph-name="aRnun.isol" unicode="&#x6bb;" horiz-adv-x="617" arabic-form="isolated" 
d="M562 492v-492q0 -114 -66.5 -178t-185.5 -64q-270 0 -270 257q0 45 14 97.5t38 94.5l150 -44q-18 -35 -28 -72t-10 -68q0 -120 98 -120q47 0 69 28.5t22 89.5v471h169zM167 610h19v154h49v-89q26 35 72 35q35 0 54.5 -21t19.5 -57v-71h-214v49zM329 624q0 36 -35 36
q-18 0 -33 -13t-15 -30v-7h83v14z" />
    <glyph glyph-name="aNun1below.init" unicode="&#x6b9;" horiz-adv-x="331" 
d="M-15 152h122v197q0 62 -25 109l155 57q21 -29 30 -65t9 -89v-361h-291v152zM99 707h141v-131h-141v131zM117 -81h147v-130h-147v130z" />
    <glyph glyph-name="aNun1below.medi" unicode="&#x6b9;" horiz-adv-x="383" 
d="M-15 152h122v340h169v-340h122v-152h-413v152zM120 707h141v-131h-141v131zM117 -81h147v-130h-147v130z" />
    <glyph glyph-name="aNun1below.fina" unicode="&#x6b9;" horiz-adv-x="669" 
d="M495.5 -178q-66.5 -64 -185.5 -64q-270 0 -270 257q0 45 14 97.5t38 94.5l150 -44q-18 -35 -28 -72t-10 -68q0 -120 98 -120q47 0 69 28.5t22 89.5v471h169v-340h122v-152h-122q0 -114 -66.5 -178zM213 707h141v-131h-141v131zM228 -316h147v-130h-147v130z" />
    <glyph glyph-name="aLam3dbelow.init" unicode="&#x6b8;" horiz-adv-x="331" 
d="M-15 152h122v562h169v-714h-291v152zM99 -182h-122v115h122v-115zM277 -182h-122v115h122v-115zM188 -322h-122v114h122v-114z" />
    <glyph glyph-name="aLam3dbelow.medi" unicode="&#x6b8;" horiz-adv-x="383" 
d="M-15 152h122v562h169v-562h122v-152h-413v152zM99 -182h-122v115h122v-115zM277 -182h-122v115h122v-115zM188 -322h-122v114h122v-114z" />
    <glyph glyph-name="aLam3dbelow.fina" unicode="&#x6b8;" horiz-adv-x="669" 
d="M495.5 -178q-66.5 -64 -185.5 -64q-270 0 -270 241q0 49 12 104.5t34 104.5l155 -39q-16 -33 -26.5 -76.5t-10.5 -77.5q0 -55 24.5 -83.5t73.5 -28.5q47 0 69 28.5t22 89.5v693h169v-562h122v-152h-122q0 -114 -66.5 -178zM274 -417h-122v115h122v-115zM452 -417h-122
v115h122v-115zM363 -557h-122v114h122v-114z" />
    <glyph glyph-name="aLam3uabove.init" unicode="&#x6b7;" horiz-adv-x="331" 
d="M-15 152h122v562h169v-714h-291v152zM133 1024h122v-114h-122v114zM44 884h122v-115h-122v115zM222 884h122v-115h-122v115z" />
    <glyph glyph-name="aLam3uabove.medi" unicode="&#x6b7;" horiz-adv-x="383" 
d="M-15 152h122v562h169v-562h122v-152h-413v152zM133 1024h122v-114h-122v114zM44 884h122v-115h-122v115zM222 884h122v-115h-122v115z" />
    <glyph glyph-name="aLam3uabove.fina" unicode="&#x6b7;" horiz-adv-x="669" 
d="M495.5 -178q-66.5 -64 -185.5 -64q-270 0 -270 241q0 49 12 104.5t34 104.5l155 -39q-16 -33 -26.5 -76.5t-10.5 -77.5q0 -55 24.5 -83.5t73.5 -28.5q47 0 69 28.5t22 89.5v693h169v-562h122v-152h-122q0 -114 -66.5 -178zM418 1024h122v-114h-122v114zM329 884h122v-115
h-122v115zM507 884h122v-115h-122v115z" />
    <glyph glyph-name="aTcheh1above.init" unicode="&#x6bf;" horiz-adv-x="619" 
d="M-15 152h346v103q0 58 -15.5 82t-53.5 24q-33 0 -49.5 -15t-23.5 -57l-164 18q18 101 74.5 147t160.5 46q122 0 181 -60.5t59 -186.5v-101h74v-152h-589v152zM192 707h141v-131h-141v131zM252 -182h-122v115h122v-115zM430 -182h-122v115h122v-115zM341 -322h-122v114
h122v-114z" />
    <glyph glyph-name="aTcheh1above.medi" unicode="&#x6bf;" horiz-adv-x="604" 
d="M-15 152h346v103q0 58 -15.5 82t-53.5 24q-33 0 -49.5 -15t-23.5 -57l-164 18q18 101 74.5 147t160.5 46q122 0 181 -60.5t59 -186.5v-101h119v-152h-634v152zM192 707h141v-131h-141v131zM252 -182h-122v115h122v-115zM430 -182h-122v115h122v-115zM341 -322h-122v114
h122v-114z" />
    <glyph glyph-name="aTcheh1above.fina" unicode="&#x6bf;" horiz-adv-x="628" 
d="M197.5 -27q-26.5 -27 -26.5 -72q0 -42 28.5 -62t88.5 -20v-144q-283 0 -283 238q0 70 32.5 124t93 84.5t142.5 30.5h82v93q0 61 -16.5 88.5t-52.5 27.5q-31 0 -48.5 -17t-24.5 -55l-164 18q18 101 74.5 147t160.5 46q122 0 181 -60.5t59 -186.5v-101h119v-152h-375
q-44 0 -70.5 -27zM216 707h141v-131h-141v131zM313 -62h108v-98h-108v98zM461 -62h108v-98h-108v98zM387 -182h108v-97h-108v97z" />
    <glyph glyph-name="aNun3uabove.init" unicode="&#x6bd;" horiz-adv-x="331" 
d="M-15 152h122v197q0 62 -25 109l155 57q21 -29 30 -65t9 -89v-361h-291v152zM100 -182h-122v115h122v-115zM278 -182h-122v115h122v-115zM189 -322h-122v114h122v-114z" />
    <glyph glyph-name="aNun3uabove.medi" unicode="&#x6bd;" horiz-adv-x="383" 
d="M-15 152h122v340h169v-340h122v-152h-413v152zM100 -182h-122v115h122v-115zM278 -182h-122v115h122v-115zM189 -322h-122v114h122v-114z" />
    <glyph glyph-name="aNun3uabove.fina" unicode="&#x6bd;" horiz-adv-x="669" 
d="M495.5 -178q-66.5 -64 -185.5 -64q-270 0 -270 257q0 45 14 97.5t38 94.5l150 -44q-18 -35 -28 -72t-10 -68q0 -120 98 -120q47 0 69 28.5t22 89.5v471h169v-340h122v-152h-122q0 -114 -66.5 -178zM223 811h122v-114h-122v114zM134 671h122v-115h-122v115zM312 671h122
v-115h-122v115z" />
    <glyph glyph-name="aNunring.init" unicode="&#x6bc;" horiz-adv-x="331" 
d="M-15 152h122v197q0 62 -25 109l155 57q21 -29 30 -65t9 -89v-361h-62q6 -15 6 -35q0 -41 -25.5 -66t-66.5 -25t-66.5 25t-25.5 66q0 20 6 35h-57v152zM128 -70q15 0 23.5 9.5t8.5 25.5t-8.5 25.5t-23.5 9.5t-23.5 -9.5t-8.5 -25.5t8.5 -25.5t23.5 -9.5zM100 707h141v-131
h-141v131z" />
    <glyph glyph-name="aNunring.medi" unicode="&#x6bc;" horiz-adv-x="383" 
d="M-15 152h122v340h169v-340h122v-152h-120q6 -15 6 -35q0 -41 -25.5 -66t-66.5 -25t-66.5 25t-25.5 66q0 20 6 35h-121v152zM192 -70q15 0 23.5 9.5t8.5 25.5t-8.5 25.5t-23.5 9.5t-23.5 -9.5t-8.5 -25.5t8.5 -25.5t23.5 -9.5zM120 707h141v-131h-141v131z" />
    <glyph glyph-name="aNunring.fina" unicode="&#x6bc;" horiz-adv-x="669" 
d="M310 -368q-41 0 -66.5 25t-25.5 66q0 24 9 42q-187 36 -187 250q0 45 14 97.5t38 94.5l150 -44q-18 -35 -28 -72t-10 -68q0 -120 98 -120q47 0 69 28.5t22 89.5v471h169v-340h122v-152h-122q0 -92 -44 -152.5t-126 -80.5q10 -20 10 -44q0 -41 -25.5 -66t-66.5 -25z
M310 -312q15 0 23.5 9.5t8.5 25.5t-8.5 25.5t-23.5 9.5t-23.5 -9.5t-8.5 -25.5t8.5 -25.5t23.5 -9.5zM213 707h141v-131h-141v131z" />
    <glyph glyph-name="aOeKhirghiz.fina" unicode="&#x6c5;" horiz-adv-x="640" arabic-form="final" 
d="M536 0q0 -126 -61.5 -187.5t-186.5 -61.5q-212 0 -244 208h144q8 -45 30 -67t60 -22q37 0 56.5 10t28.5 32h-123v77h134v35h-28q-294 0 -294 239q0 72 29.5 127.5t85 86.5t130.5 31q116 0 177.5 -63t61.5 -183v-110h119v-152h-119zM371 280q0 46 -17.5 65.5t-57.5 19.5
q-37 0 -57 -25.5t-20 -72.5q0 -59 29 -87t91 -28h32v128z" />
    <glyph glyph-name="aOeKhirghiz.isol" unicode="&#x6c5;" horiz-adv-x="591" arabic-form="isolated" 
d="M346 24q-294 0 -294 239q0 72 29.5 127.5t85 86.5t130.5 31q116 0 177.5 -63t61.5 -183v-262q0 -126 -61.5 -187.5t-186.5 -61.5q-212 0 -244 208h144q8 -45 30 -67t60 -22q37 0 56.5 10t28.5 32h-123v77h134v35h-28zM371 280q0 46 -17.5 65.5t-57.5 19.5
q-37 0 -57 -25.5t-20 -72.5q0 -59 29 -87t91 -28h32v128z" />
    <glyph glyph-name="aWawring.fina" unicode="&#x6c4;" horiz-adv-x="640" 
d="M536 0q0 -126 -61.5 -187.5t-186.5 -61.5q-170 0 -225 132q-10 24 -10 43q0 40 25.5 65t66.5 25t66.5 -25t25.5 -65q0 -5 -0.5 -10t-1.5 -9q20 -15 54 -15q42 0 60.5 22t20.5 77v21q-318 3 -318 251q0 72 29.5 127.5t85 86.5t130.5 31q116 0 177.5 -63t61.5 -183v-110
h119v-152h-119zM371 280q0 46 -17.5 65.5t-57.5 19.5q-37 0 -57 -25.5t-20 -72.5q0 -59 29 -87t91 -28h32v128zM145 -109q15 0 23.5 9.5t8.5 25.5t-8.5 25.5t-23.5 9.5t-23.5 -9.5t-8.5 -25.5t8.5 -25.5t23.5 -9.5z" />
    <glyph glyph-name="aWaw2habove.fina" unicode="&#x6ca;" horiz-adv-x="640" 
d="M288 -249q-212 0 -244 208h172q7 -36 23.5 -51.5t49.5 -15.5q44 0 62.5 24.5t18.5 83.5q-318 3 -318 263q0 72 29.5 127.5t85 86.5t130.5 31q116 0 177.5 -63t61.5 -183v-110h119v-152h-119q0 -126 -61.5 -187.5t-186.5 -61.5zM371 280q0 46 -17.5 65.5t-57.5 19.5
q-37 0 -57 -25.5t-20 -72.5q0 -59 29 -87t91 -28h32v128zM133 704h131v-124h-131v124zM321 704h130v-124h-130v124z" />
    <glyph glyph-name="aYuKhirghiz.fina" unicode="&#x6c9;" horiz-adv-x="640" arabic-form="final" 
d="M288 -249q-212 0 -244 208h172q7 -36 23.5 -51.5t49.5 -15.5q44 0 62.5 24.5t18.5 83.5q-318 3 -318 263q0 72 29.5 127.5t85 86.5t130.5 31q116 0 177.5 -63t61.5 -183v-110h119v-152h-119q0 -126 -61.5 -187.5t-186.5 -61.5zM371 280q0 46 -17.5 65.5t-57.5 19.5
q-37 0 -57 -25.5t-20 -72.5q0 -59 29 -87t91 -28h32v128zM350 565l-58 97l-58 -97h-76l97 151h74l97 -151h-76z" />
    <glyph glyph-name="aYuKhirghiz.isol" unicode="&#x6c9;" horiz-adv-x="591" arabic-form="isolated" 
d="M370 0q-318 3 -318 263q0 72 29.5 127.5t85 86.5t130.5 31q116 0 177.5 -63t61.5 -183v-262q0 -126 -61.5 -187.5t-186.5 -61.5q-212 0 -244 208h172q7 -36 23.5 -51.5t49.5 -15.5q44 0 62.5 24.5t18.5 83.5zM371 280q0 46 -17.5 65.5t-57.5 19.5q-37 0 -57 -25.5
t-20 -72.5q0 -59 29 -87t91 -28h32v128zM350 565l-58 97l-58 -97h-76l97 151h74l97 -151h-76z" />
    <glyph glyph-name="aYu.fina" unicode="&#x6c8;" horiz-adv-x="640" arabic-form="final" 
d="M288 -249q-212 0 -244 208h172q7 -36 23.5 -51.5t49.5 -15.5q44 0 62.5 24.5t18.5 83.5q-318 3 -318 263q0 72 29.5 127.5t85 86.5t130.5 31q116 0 177.5 -63t61.5 -183v-110h119v-152h-119q0 -126 -61.5 -187.5t-186.5 -61.5zM371 280q0 46 -17.5 65.5t-57.5 19.5
q-37 0 -57 -25.5t-20 -72.5q0 -59 29 -87t91 -28h32v128zM258 738h68v-173h-68v173z" />
    <glyph glyph-name="aYu.isol" unicode="&#x6c8;" horiz-adv-x="591" arabic-form="isolated" 
d="M370 0q-318 3 -318 263q0 72 29.5 127.5t85 86.5t130.5 31q116 0 177.5 -63t61.5 -183v-262q0 -126 -61.5 -187.5t-186.5 -61.5q-212 0 -244 208h172q7 -36 23.5 -51.5t49.5 -15.5q44 0 62.5 24.5t18.5 83.5zM371 280q0 46 -17.5 65.5t-57.5 19.5q-37 0 -57 -25.5
t-20 -72.5q0 -59 29 -87t91 -28h32v128zM258 738h68v-173h-68v173z" />
    <glyph glyph-name="aU.fina" unicode="&#x6c7;" horiz-adv-x="640" arabic-form="final" 
d="M288 -249q-212 0 -244 208h172q7 -36 23.5 -51.5t49.5 -15.5q44 0 62.5 24.5t18.5 83.5q-318 3 -318 263q0 72 29.5 127.5t85 86.5t130.5 31q116 0 177.5 -63t61.5 -183v-110h119v-152h-119q0 -126 -61.5 -187.5t-186.5 -61.5zM371 280q0 46 -17.5 65.5t-57.5 19.5
q-37 0 -57 -25.5t-20 -72.5q0 -59 29 -87t91 -28h32v128zM364 636q0 -77 -85 -77q-38 0 -65 14l13 42q29 -13 51 -13q18 0 25.5 6.5t7.5 21.5v5q-13 -10 -32 -10q-59 0 -59 56q0 29 18.5 45.5t51.5 16.5q35 0 54.5 -19t19.5 -54v-34zM289 657q20 0 20 24t-20 24t-20 -24
t20 -24z" />
    <glyph glyph-name="aU.isol" unicode="&#x6c7;" horiz-adv-x="591" arabic-form="isolated" 
d="M370 0q-318 3 -318 263q0 72 29.5 127.5t85 86.5t130.5 31q116 0 177.5 -63t61.5 -183v-262q0 -126 -61.5 -187.5t-186.5 -61.5q-212 0 -244 208h172q7 -36 23.5 -51.5t49.5 -15.5q44 0 62.5 24.5t18.5 83.5zM371 280q0 46 -17.5 65.5t-57.5 19.5q-37 0 -57 -25.5
t-20 -72.5q0 -59 29 -87t91 -28h32v128zM364 636q0 -77 -85 -77q-38 0 -65 14l13 42q29 -13 51 -13q18 0 25.5 6.5t7.5 21.5v5q-13 -10 -32 -10q-59 0 -59 56q0 29 18.5 45.5t51.5 16.5q35 0 54.5 -19t19.5 -54v-34zM289 657q20 0 20 24t-20 24t-20 -24t20 -24z" />
    <glyph glyph-name="aOe.fina" unicode="&#x6c6;" horiz-adv-x="640" arabic-form="final" 
d="M288 -249q-212 0 -244 208h172q7 -36 23.5 -51.5t49.5 -15.5q44 0 62.5 24.5t18.5 83.5q-318 3 -318 263q0 72 29.5 127.5t85 86.5t130.5 31q116 0 177.5 -63t61.5 -183v-110h119v-152h-119q0 -126 -61.5 -187.5t-186.5 -61.5zM371 280q0 46 -17.5 65.5t-57.5 19.5
q-37 0 -57 -25.5t-20 -72.5q0 -59 29 -87t91 -28h32v128zM255 565l-97 151h76l58 -97l58 97h76l-97 -151h-74z" />
    <glyph glyph-name="aOe.isol" unicode="&#x6c6;" horiz-adv-x="591" arabic-form="isolated" 
d="M370 0q-318 3 -318 263q0 72 29.5 127.5t85 86.5t130.5 31q116 0 177.5 -63t61.5 -183v-262q0 -126 -61.5 -187.5t-186.5 -61.5q-212 0 -244 208h172q7 -36 23.5 -51.5t49.5 -15.5q44 0 62.5 24.5t18.5 83.5zM371 280q0 46 -17.5 65.5t-57.5 19.5q-37 0 -57 -25.5
t-20 -72.5q0 -59 29 -87t91 -28h32v128zM255 565l-97 151h76l58 -97l58 97h76l-97 -151h-74z" />
    <glyph glyph-name="aWaw1above.fina" unicode="&#x6cf;" horiz-adv-x="640" 
d="M288 -249q-212 0 -244 208h172q7 -36 23.5 -51.5t49.5 -15.5q44 0 62.5 24.5t18.5 83.5q-318 3 -318 263q0 72 29.5 127.5t85 86.5t130.5 31q116 0 177.5 -63t61.5 -183v-110h119v-152h-119q0 -126 -61.5 -187.5t-186.5 -61.5zM371 280q0 46 -17.5 65.5t-57.5 19.5
q-37 0 -57 -25.5t-20 -72.5q0 -59 29 -87t91 -28h32v128zM221 711h141v-131h-141v131z" />
    <glyph glyph-name="aYehVabove.init" unicode="&#x6ce;" horiz-adv-x="331" 
d="M-15 152h122v197q0 62 -25 109l155 57q21 -29 30 -65t9 -89v-361h-291v152zM91 561l-97 151h76l58 -97l58 97h76l-97 -151h-74zM-30 -81h130v-123h-130v123zM157 -81h129v-123h-129v123z" />
    <glyph glyph-name="aYehVabove.medi" unicode="&#x6ce;" horiz-adv-x="383" 
d="M-15 152h122v340h169v-340h122v-152h-413v152zM154 561l-97 151h76l58 -97l58 97h76l-97 -151h-74zM-30 -81h130v-123h-130v123zM157 -81h129v-123h-129v123z" />
    <glyph glyph-name="aYehVabove.fina" unicode="&#x6ce;" horiz-adv-x="960" 
d="M684 340h-61q-28 0 -44.5 -11.5t-16.5 -31.5v-297q0 -114 -66.5 -178t-185.5 -64q-270 0 -270 257q0 45 14 97.5t38 94.5l150 -44q-18 -35 -28 -72t-10 -68q0 -120 98 -120q47 0 69 28.5t22 89.5v303q0 76 54 122t142 46h264v-340h122v-152h-291v340zM141 281l-97 151h76
l58 -97l58 97h76l-97 -151h-74z" />
    <glyph glyph-name="aYehtail.fina" unicode="&#x6cd;" horiz-adv-x="960" 
d="M684 340h-61q-28 0 -44.5 -11.5t-16.5 -31.5v-297q0 -114 -66.5 -178t-185.5 -64q-270 0 -270 257q0 45 14 97.5t38 94.5l150 -44q-18 -35 -28 -72t-10 -68q0 -120 98 -120q47 0 69 28.5t22 89.5v303q0 76 54 122t142 46h264v-340h122v-152h-291v340z" />
    <glyph glyph-name="aVe.fina" unicode="&#x6cb;" horiz-adv-x="640" arabic-form="final" 
d="M288 -249q-212 0 -244 208h172q7 -36 23.5 -51.5t49.5 -15.5q44 0 62.5 24.5t18.5 83.5q-318 3 -318 263q0 72 29.5 127.5t85 86.5t130.5 31q116 0 177.5 -63t61.5 -183v-110h119v-152h-119q0 -126 -61.5 -187.5t-186.5 -61.5zM371 280q0 46 -17.5 65.5t-57.5 19.5
q-37 0 -57 -25.5t-20 -72.5q0 -59 29 -87t91 -28h32v128zM231 815h122v-114h-122v114zM142 675h122v-115h-122v115zM320 675h122v-115h-122v115z" />
    <glyph glyph-name="aVe.isol" unicode="&#x6cb;" horiz-adv-x="591" arabic-form="isolated" 
d="M370 0q-318 3 -318 263q0 72 29.5 127.5t85 86.5t130.5 31q116 0 177.5 -63t61.5 -183v-262q0 -126 -61.5 -187.5t-186.5 -61.5q-212 0 -244 208h172q7 -36 23.5 -51.5t49.5 -15.5q44 0 62.5 24.5t18.5 83.5zM371 280q0 46 -17.5 65.5t-57.5 19.5q-37 0 -57 -25.5
t-20 -72.5q0 -59 29 -87t91 -28h32v128zM231 815h122v-114h-122v114zM142 675h122v-115h-122v115zM320 675h122v-115h-122v115z" />
    <glyph glyph-name="aYeh3dbelow.init" unicode="&#x6d1;" horiz-adv-x="331" 
d="M-15 152h122v197q0 62 -25 109l155 57q21 -29 30 -65t9 -89v-361h-291v152zM100 -182h-122v115h122v-115zM278 -182h-122v115h122v-115zM189 -322h-122v114h122v-114z" />
    <glyph glyph-name="aYeh3dbelow.medi" unicode="&#x6d1;" horiz-adv-x="383" 
d="M-15 152h122v340h169v-340h122v-152h-413v152zM100 -182h-122v115h122v-115zM278 -182h-122v115h122v-115zM189 -322h-122v114h122v-114z" />
    <glyph glyph-name="aYeh3dbelow.fina" unicode="&#x6d1;" horiz-adv-x="960" 
d="M684 340h-61q-28 0 -44.5 -11.5t-16.5 -31.5v-297q0 -114 -66.5 -178t-185.5 -64q-270 0 -270 257q0 45 14 97.5t38 94.5l150 -44q-18 -35 -28 -72t-10 -68q0 -120 98 -120q47 0 69 28.5t22 89.5v303q0 76 54 122t142 46h264v-340h122v-152h-291v340zM274 -417h-122v115
h122v-115zM452 -417h-122v115h122v-115zM363 -557h-122v114h122v-114z" />
    <glyph glyph-name="aE.fina" unicode="&#x6d0;" horiz-adv-x="960" arabic-form="final" 
d="M684 340h-61q-28 0 -44.5 -11.5t-16.5 -31.5v-297q0 -114 -66.5 -178t-185.5 -64q-270 0 -270 257q0 45 14 97.5t38 94.5l150 -44q-18 -35 -28 -72t-10 -68q0 -120 98 -120q47 0 69 28.5t22 89.5v303q0 76 54 122t142 46h264v-340h122v-152h-291v340zM368 -408h-132v106
h132v-106zM368 -556h-132v106h132v-106z" />
    <glyph glyph-name="aE.medi" unicode="&#x6d0;" horiz-adv-x="383" arabic-form="medial" 
d="M-15 152h122v340h169v-340h122v-152h-413v152zM257 -173h-132v106h132v-106zM257 -321h-132v106h132v-106z" />
    <glyph glyph-name="aE.init" unicode="&#x6d0;" horiz-adv-x="331" arabic-form="initial" 
d="M-15 152h122v197q0 62 -25 109l155 57q21 -29 30 -65t9 -89v-361h-291v152zM257 -173h-132v106h132v-106zM257 -321h-132v106h132v-106z" />
    <glyph glyph-name="aE.isol" unicode="&#x6d0;" horiz-adv-x="722" arabic-form="isolated" 
d="M447 446q54 46 142 46h107v-152h-73q-28 0 -44.5 -11.5t-16.5 -31.5v-297q0 -114 -66.5 -178t-185.5 -64q-270 0 -270 257q0 45 14 97.5t38 94.5l150 -44q-18 -35 -28 -72t-10 -68q0 -120 98 -120q47 0 69 28.5t22 89.5v303q0 76 54 122zM368 -408h-132v106h132v-106z
M368 -556h-132v106h132v-106z" />
    <glyph glyph-name="aGhayn1below.init" unicode="&#x6fc;" horiz-adv-x="623" 
d="M-15 152h116v101q0 126 59 186.5t181 60.5q104 0 160.5 -46t74.5 -147l-164 -18q-7 42 -23.5 57t-49.5 15q-38 0 -53.5 -24t-15.5 -82v-103h323v-152h-608v152zM267 707h141v-131h-141v131zM247 -81h147v-130h-147v130z" />
    <glyph glyph-name="aGhayn1below.medi" unicode="&#x6fc;" horiz-adv-x="581" 
d="M-15 152h116v101q0 126 59 186.5t181 60.5q104 0 160.5 -46t74.5 -147l-164 -18q-7 42 -23.5 57t-49.5 15q-38 0 -53.5 -24t-15.5 -82v-103h326v-152h-611v152zM267 707h141v-131h-141v131zM247 -81h147v-130h-147v130z" />
    <glyph glyph-name="aGhayn1below.fina" unicode="&#x6fc;" horiz-adv-x="674" 
d="M197.5 -27q-26.5 -27 -26.5 -72q0 -40 25 -63t68 -23q47 0 71 22t29 68h180q-27 -230 -287 -230q-119 0 -185.5 62.5t-66.5 175.5q0 87 50 148.5t139 81.5v110q0 126 59 186.5t181 60.5q104 0 160.5 -46t74.5 -147l-164 -18q-7 42 -23.5 57t-49.5 15q-38 0 -53.5 -24
t-15.5 -82v-103h326v-152h-421q-44 0 -70.5 -27zM361 707h141v-131h-141v131zM214 -46h103v-94h-103v94z" />
    <glyph glyph-name="aDad1below.init" unicode="&#x6fb;" horiz-adv-x="777" 
d="M-15 152h122v340h169v-96q35 55 92.5 83.5t131.5 28.5q109 0 168.5 -69.5t59.5 -194.5v-244h-743v152zM559 213q0 78 -30.5 115.5t-92.5 37.5q-46 0 -84.5 -23t-61.5 -65t-23 -95v-31h292v61zM377 707h141v-131h-141v131zM374 -81h147v-130h-147v130z" />
    <glyph glyph-name="aDad1below.medi" unicode="&#x6fb;" horiz-adv-x="832" 
d="M-15 152h122v340h169v-96q35 55 92.5 83.5t131.5 28.5q109 0 168.5 -69.5t59.5 -194.5v-92h119v-152h-862v152zM559 213q0 78 -30.5 115.5t-92.5 37.5q-46 0 -84.5 -23t-61.5 -65t-23 -95v-31h292v61zM377 707h141v-131h-141v131zM374 -81h147v-130h-147v130z" />
    <glyph glyph-name="aDad1below.fina" unicode="&#x6fb;" horiz-adv-x="1118" 
d="M562 0q-1 -115 -67 -178.5t-185 -63.5q-270 0 -270 257q0 45 14 97.5t38 94.5l150 -44q-18 -35 -28 -72t-10 -68q0 -120 98 -120q47 0 69 28.5t22 89.5v471h169v-96q35 55 92.5 83.5t131.5 28.5q109 0 168.5 -69.5t59.5 -194.5v-92h119v-152h-571zM845 213
q0 78 -30.5 115.5t-92.5 37.5q-46 0 -84.5 -23t-61.5 -65t-23 -95v-31h292v61zM663 707h141v-131h-141v131zM660 -81h147v-130h-147v130z" />
    <glyph glyph-name="aShin1below.init" unicode="&#x6fa;" horiz-adv-x="899" 
d="M-15 152h122v340h169v-340h115v340h169v-340h115v197q0 62 -25 109l155 57q21 -29 30 -65t9 -89v-361h-859v152zM417 811h122v-114h-122v114zM328 671h122v-115h-122v115zM506 671h122v-115h-122v115zM404 -81h147v-130h-147v130z" />
    <glyph glyph-name="aShin1below.medi" unicode="&#x6fa;" horiz-adv-x="951" 
d="M-15 152h122v340h169v-340h115v340h169v-340h115v197q0 62 -25 109l155 57q21 -29 30 -65t9 -89v-209h122v-152h-981v152zM417 811h122v-114h-122v114zM328 671h122v-115h-122v115zM506 671h122v-115h-122v115zM404 -81h147v-130h-147v130z" />
    <glyph glyph-name="aShin1below.fina" unicode="&#x6fa;" horiz-adv-x="1237" 
d="M495.5 -178q-66.5 -64 -185.5 -64q-270 0 -270 257q0 45 14 97.5t38 94.5l150 -44q-18 -35 -28 -72t-10 -68q0 -120 98 -120q47 0 69 28.5t22 89.5v471h169v-340h115v340h169v-340h115v197q0 62 -25 109l155 57q21 -29 30 -65t9 -89v-209h122v-152h-690
q0 -114 -66.5 -178zM703 811h122v-114h-122v114zM614 671h122v-115h-122v115zM792 671h122v-115h-122v115zM690 -81h147v-130h-147v130z" />
    <glyph glyph-name="aRehVturned.fina" unicode="&#x6ef;" horiz-adv-x="393" 
d="M293 -52q0 -94 -45 -142.5t-133 -48.5q-54 0 -125 20l24 129q37 -8 54 -8q56 0 56 53v541h169v-340h115v-152h-115v-52zM267 561l-58 97l-58 -97h-76l97 151h74l97 -151h-76z" />
    <glyph glyph-name="aDalVturned.fina" unicode="&#x6ee;" horiz-adv-x="610" 
d="M30 152h307v61q0 141 -122 141q-51 0 -115 -26l-43 139q38 16 84.5 25t92.5 9q79 0 140.5 -32t96.5 -92.5t35 -140.5v-84h119v-152h-595v152zM335 561l-58 97l-58 -97h-76l97 151h74l97 -151h-76z" />
    <glyph glyph-name="aHehVturned.init" unicode="&#x6ff;" horiz-adv-x="854" 
d="M-15 152h151q-25 27 -38.5 64.5t-13.5 78.5q0 61 27.5 110t78 78t116.5 29q37 0 79 -9q33 27 79.5 42t97.5 15q117 0 179.5 -59t62.5 -170v-331h-819v152zM640 329q0 42 -21.5 68t-59.5 26q-29 0 -53 -12q29 -43 29 -148v-111h105v177zM379 266q0 58 -15 81t-52 23
q-31 0 -47.5 -24t-16.5 -68q0 -56 36 -91t95 -35v114zM630 617l-58 97l-58 -97h-76l97 151h74l97 -151h-76z" />
    <glyph glyph-name="aHehVturned.medi" unicode="&#x6ff;" horiz-adv-x="630" 
d="M515 0q25 -13 40.5 -41t15.5 -60q0 -74 -57.5 -112t-170.5 -38q-127 0 -189.5 52.5t-62.5 160.5v38h-106v152h106v106q0 111 61 170.5t176 59.5q112 0 169.5 -49.5t57.5 -146.5q0 -91 -79 -140h169v-152h-130zM258 152q64 0 100.5 34.5t36.5 95.5q0 39 -18 61t-51 22
q-39 0 -57 -20.5t-18 -64.5v-128h7zM253 -38q0 -38 22.5 -62t59.5 -24q40 0 58 13t18 42q0 32 -31.5 50.5t-87.5 18.5h-39v-38zM388 545l-58 97l-58 -97h-76l97 151h74l97 -151h-76z" />
    <glyph glyph-name="aHehVturned.fina" unicode="&#x6ff;" horiz-adv-x="590" 
d="M475 0q25 -13 40.5 -41t15.5 -60q0 -74 -57.5 -112t-170.5 -38q-127 0 -189.5 52.5t-62.5 160.5v296q0 111 61 170.5t176 59.5q112 0 169.5 -49.5t57.5 -146.5q0 -91 -79 -140h169v-152h-130zM218 152q64 0 100.5 34.5t36.5 95.5q0 39 -18 61t-51 22q-39 0 -57 -20.5
t-18 -64.5v-128h7zM213 -38q0 -38 22.5 -62t59.5 -24q40 0 58 13t18 42q0 32 -31.5 50.5t-87.5 18.5h-39v-38zM348 545l-58 97l-58 -97h-76l97 151h74l97 -151h-76z" />
    <glyph glyph-name="aRial" unicode="&#xfdfc;" horiz-adv-x="1551" arabic-form="isolated" 
d="M673 714h169v-562h214v197q0 62 -25 109l155 57q21 -29 30 -65t9 -89v-361h-552v714zM562 714v-714q0 -114 -66.5 -178t-185.5 -64q-270 0 -270 257q0 45 14 97.5t38 94.5l150 -44q-18 -35 -28 -72t-10 -68q0 -120 98 -120q47 0 69 28.5t22 89.5v693h169zM1222 -94
q37 -8 54 -8q56 0 56 53v541h169v-544q0 -94 -45 -142.5t-133 -48.5q-54 0 -125 20zM772 -87h133v-123h-133v123zM973 -87h133v-123h-133v123z" />
    <glyph glyph-name=".notdef" horiz-adv-x="500" 
d="M50 0v750h400v-750h-400zM400 700h-300v-650h300v650z" />
    <glyph glyph-name=".null" 
 />
    <glyph glyph-name=".null" 
 />
    <glyph glyph-name=".null" 
 />
    <glyph glyph-name="nonmarkingreturn" unicode="&#x9;" horiz-adv-x="215" 
 />
    <glyph glyph-name="nonmarkingreturn" unicode="&#xd;" horiz-adv-x="215" 
 />
    <glyph glyph-name="space" unicode=" " horiz-adv-x="215" 
 />
    <glyph glyph-name="period" unicode="." horiz-adv-x="269" 
d="M48 0v191h174v-191h-174z" />
    <glyph glyph-name="colon" unicode=":" horiz-adv-x="269" 
d="M48 334v191h174v-191h-174zM48 0v191h174v-191h-174z" />
    <glyph glyph-name="comma" unicode="," horiz-adv-x="269" 
d="M24 -94l36 285h173l-71 -285h-138z" />
    <glyph glyph-name="semicolon" unicode=";" horiz-adv-x="269" 
d="M24 -94l36 285h173l-71 -285h-138zM48 334v191h174v-191h-174z" />
    <glyph glyph-name="question" unicode="?" horiz-adv-x="538" 
d="M185 229v21q0 31 7.5 57.5t23 50t52.5 56.5q17 15 31.5 29t23 30.5t8.5 36.5q0 29 -18.5 45t-50.5 16q-70 0 -82 -79l-167 17q13 105 80 161t180 56q112 0 177 -50.5t65 -137.5q0 -44 -17.5 -80t-55.5 -74q-45 -45 -62 -64.5t-23.5 -34.5t-6.5 -43v-13h-165zM182 0v173
h169v-173h-169z" />
    <glyph glyph-name="exclam" unicode="!" horiz-adv-x="307" 
d="M73 229l-18 485h197l-18 -485h-161zM69 0v173h169v-173h-169z" />
    <glyph glyph-name="questiondown" unicode="&#xbf;" horiz-adv-x="538" 
d="M353 296v-21q0 -31 -7.5 -57.5t-23 -50t-52.5 -56.5q-17 -15 -31.5 -29t-23 -30.5t-8.5 -36.5q0 -29 18.5 -45t50.5 -16q70 0 82 79l167 -17q-13 -105 -80 -161t-180 -56q-112 0 -177 50.5t-65 137.5q0 44 17.5 80t55.5 74q45 45 62 64.5t23.5 34.5t6.5 43v13h165z
M356 525v-173h-169v173h169z" />
    <glyph glyph-name="exclamdown" unicode="&#xa1;" horiz-adv-x="307" 
d="M55 -189l18 485h161l18 -485h-197zM69 352v173h169v-173h-169z" />
    <glyph glyph-name="quotesingle" unicode="'" horiz-adv-x="231" 
d="M39 428l-7 286h167l-7 -286h-153z" />
    <glyph glyph-name="quotedbl" unicode="&#x22;" horiz-adv-x="455" 
d="M39 428l-7 286h167l-7 -286h-153zM263 428l-7 286h167l-7 -286h-153z" />
    <glyph glyph-name="ellipsis" unicode="&#x2026;" horiz-adv-x="1065" 
d="M48 0v191h174v-191h-174zM446 0v191h174v-191h-174zM844 0v191h174v-191h-174z" />
    <glyph glyph-name="uni00A0" unicode="&#xa0;" horiz-adv-x="215" 
 />
    <glyph glyph-name="uni2000" unicode="&#x2000;" horiz-adv-x="500" 
 />
    <glyph glyph-name="uni2001" unicode="&#x2001;" horiz-adv-x="1000" 
 />
    <glyph glyph-name="uni2002" unicode="&#x2002;" horiz-adv-x="500" 
 />
    <glyph glyph-name="uni2003" unicode="&#x2003;" horiz-adv-x="1000" 
 />
    <glyph glyph-name="uni2004" unicode="&#x2004;" horiz-adv-x="333" 
 />
    <glyph glyph-name="uni2005" unicode="&#x2005;" horiz-adv-x="250" 
 />
    <glyph glyph-name="uni2006" unicode="&#x2006;" horiz-adv-x="166" 
 />
    <glyph glyph-name="uni2007" unicode="&#x2007;" horiz-adv-x="592" 
 />
    <glyph glyph-name="uni2008" unicode="&#x2008;" horiz-adv-x="269" 
 />
    <glyph glyph-name="uni2009" unicode="&#x2009;" horiz-adv-x="200" 
 />
    <glyph glyph-name="uni200A" unicode="&#x200a;" horiz-adv-x="50" 
 />
    <glyph glyph-name="uni200B" unicode="&#x200b;" 
 />
    <glyph glyph-name="zero" unicode="0" horiz-adv-x="592" 
d="M293 -18q-133 0 -197.5 89.5t-64.5 272.5q0 366 268 366q133 0 197.5 -89.5t64.5 -272.5q0 -366 -268 -366zM296 139q29 0 45.5 19t24.5 63.5t8 124.5q0 76 -7 121t-24 65.5t-47 20.5q-29 0 -45.5 -19t-24.5 -63.5t-8 -124.5q0 -76 7 -121t24 -65.5t47 -20.5z" />
    <glyph glyph-name="one" unicode="1" horiz-adv-x="592" 
d="M258 0v486l-112 -75l-84 131l227 149h153v-691h-184z" />
    <glyph glyph-name="two" unicode="2" horiz-adv-x="592" 
d="M45 0v136l165 138q89 75 120.5 118t31.5 89q0 36 -18 55.5t-53 19.5q-36 0 -57 -22t-28 -67l-174 17q15 110 84.5 168t184.5 58q116 0 180 -57t64 -160q0 -70 -34 -129t-116 -131l-94 -82h255l-16 -151h-495z" />
    <glyph glyph-name="three" unicode="3" horiz-adv-x="592" 
d="M232 281v147h64q67 0 67 65t-69 65q-36 0 -55 -19.5t-27 -63.5l-172 18q13 105 81.5 161t184.5 56q111 0 174.5 -51t63.5 -140q0 -53 -23.5 -92t-68.5 -60q109 -44 109 -168q0 -67 -32.5 -116t-92.5 -75t-141 -26q-128 0 -195.5 65t-67.5 189h178q3 -53 24 -78t62 -25
q38 0 58.5 19.5t20.5 56.5t-20.5 54.5t-63.5 17.5h-59z" />
    <glyph glyph-name="four" unicode="4" horiz-adv-x="592" 
d="M321 0v137h-299v134l293 420h178v-417h79l-16 -137h-63v-137h-172zM321 471l-138 -197h138v197z" />
    <glyph glyph-name="five" unicode="5" horiz-adv-x="592" 
d="M225 206q9 -74 74 -74q37 0 56.5 24t19.5 69q0 91 -79 91q-50 0 -80 -36h-156l36 411h416v-151h-274l-11 -113q42 30 114 30q100 0 156 -61.5t56 -170.5q0 -116 -66.5 -179.5t-187.5 -63.5q-116 0 -182 58.5t-72 165.5h180z" />
    <glyph glyph-name="six" unicode="6" horiz-adv-x="592" 
d="M385 500q-8 32 -25.5 47t-46.5 15q-47 0 -71 -39t-27 -123q53 47 135 47q98 0 154 -58.5t56 -160.5q0 -114 -69 -180t-188 -66q-131 0 -197 86.5t-66 258.5q0 183 74 283t210 100q97 0 156.5 -50t72.5 -143zM303 124q40 0 62.5 26.5t22.5 72.5q0 44 -21 67.5t-61 23.5
q-85 0 -85 -91q0 -47 21.5 -73t60.5 -26z" />
    <glyph glyph-name="seven" unicode="7" horiz-adv-x="592" 
d="M129 0q73 264 213 535h-302v156h502v-135q-140 -257 -220 -556h-193z" />
    <glyph glyph-name="eight" unicode="8" horiz-adv-x="592" 
d="M462 357q103 -49 103 -167q0 -100 -70.5 -154t-200.5 -54q-129 0 -198 53t-69 153q0 120 102 169q-41 23 -62.5 61.5t-21.5 90.5q0 95 66.5 148t186.5 53q118 0 183 -52t65 -146q0 -106 -84 -155zM392 206q0 79 -96 79t-96 -80q0 -81 96 -81t96 82zM379 494q0 76 -85 76
q-84 0 -84 -76q0 -73 84 -73q85 0 85 73z" />
    <glyph glyph-name="nine" unicode="9" horiz-adv-x="592" 
d="M210 189q9 -60 71 -60q49 0 72 39t23 123q-51 -48 -135 -48q-98 0 -154.5 59.5t-56.5 162.5q0 113 69 179t188 66q132 0 198 -88t66 -267q0 -184 -69 -278.5t-204 -94.5q-71 0 -123 25t-81 71.5t-34 110.5h170zM371 468q0 47 -21.5 73.5t-60.5 26.5q-40 0 -63 -26
t-23 -72q0 -45 21 -69t61 -24q41 0 63.5 23.5t22.5 67.5z" />
    <glyph glyph-name="zero.pnum" horiz-adv-x="620" 
d="M307 -18q-133 0 -197.5 89.5t-64.5 272.5q0 366 268 366q133 0 197.5 -89.5t64.5 -272.5q0 -366 -268 -366zM310 139q29 0 45.5 19t24.5 63.5t8 124.5q0 76 -7 121t-24 65.5t-47 20.5q-29 0 -45.5 -19t-24.5 -63.5t-8 -124.5q0 -76 7 -121t24 -65.5t47 -20.5z" />
    <glyph glyph-name="one.pnum" horiz-adv-x="484" 
d="M213 0v486l-112 -75l-84 131l227 149h153v-691h-184z" />
    <glyph glyph-name="two.pnum" horiz-adv-x="590" 
d="M45 0v136l165 138q89 75 120.5 118t31.5 89q0 36 -18 55.5t-53 19.5q-36 0 -57 -22t-28 -67l-174 17q15 110 84.5 168t184.5 58q116 0 180 -57t64 -160q0 -70 -34 -129t-116 -131l-94 -82h255l-16 -151h-495z" />
    <glyph glyph-name="three.pnum" horiz-adv-x="594" 
d="M233 281v147h64q67 0 67 65t-69 65q-36 0 -55 -19.5t-27 -63.5l-172 18q13 105 81.5 161t184.5 56q111 0 174.5 -51t63.5 -140q0 -53 -23.5 -92t-68.5 -60q109 -44 109 -168q0 -67 -32.5 -116t-92.5 -75t-141 -26q-128 0 -195.5 65t-67.5 189h178q3 -53 24 -78t62 -25
q38 0 58.5 19.5t20.5 56.5t-20.5 54.5t-63.5 17.5h-59z" />
    <glyph glyph-name="four.pnum" horiz-adv-x="601" 
d="M332 0v137h-299v134l293 420h178v-417h79l-16 -137h-63v-137h-172zM332 471l-138 -197h138v197z" />
    <glyph glyph-name="five.pnum" horiz-adv-x="584" 
d="M221 206q9 -74 74 -74q37 0 56.5 24t19.5 69q0 91 -79 91q-50 0 -80 -36h-156l36 411h416v-151h-274l-11 -113q42 30 114 30q100 0 156 -61.5t56 -170.5q0 -116 -66.5 -179.5t-187.5 -63.5q-116 0 -182 58.5t-72 165.5h180z" />
    <glyph glyph-name="six.pnum" horiz-adv-x="600" 
d="M390 500q-8 32 -25.5 47t-46.5 15q-47 0 -71 -39t-27 -123q53 47 135 47q98 0 154 -58.5t56 -160.5q0 -114 -69 -180t-188 -66q-131 0 -197 86.5t-66 258.5q0 183 74 283t210 100q97 0 156.5 -50t72.5 -143zM308 124q40 0 62.5 26.5t22.5 72.5q0 44 -21 67.5t-61 23.5
q-85 0 -85 -91q0 -47 21.5 -73t60.5 -26z" />
    <glyph glyph-name="seven.pnum" horiz-adv-x="580" 
d="M125 0q73 264 213 535h-302v156h502v-135q-140 -257 -220 -556h-193z" />
    <glyph glyph-name="eight.pnum" horiz-adv-x="603" 
d="M472 357q103 -49 103 -167q0 -100 -70.5 -154t-200.5 -54q-129 0 -198 53t-69 153q0 120 102 169q-41 23 -62.5 61.5t-21.5 90.5q0 95 66.5 148t186.5 53q118 0 183 -52t65 -146q0 -106 -84 -155zM402 206q0 79 -96 79t-96 -80q0 -81 96 -81t96 82zM389 494q0 76 -85 76
q-84 0 -84 -76q0 -73 84 -73q85 0 85 73z" />
    <glyph glyph-name="nine.pnum" horiz-adv-x="601" 
d="M215 189q9 -60 71 -60q49 0 72 39t23 123q-51 -48 -135 -48q-98 0 -154.5 59.5t-56.5 162.5q0 113 69 179t188 66q132 0 198 -88t66 -267q0 -184 -69 -278.5t-204 -94.5q-71 0 -123 25t-81 71.5t-34 110.5h170zM376 468q0 47 -21.5 73.5t-60.5 26.5q-40 0 -63 -26
t-23 -72q0 -45 21 -69t61 -24q41 0 63.5 23.5t22.5 67.5z" />
    <glyph glyph-name="uni2080" unicode="&#x2080;" horiz-adv-x="412" 
d="M206 -13q-90 0 -139.5 56.5t-49.5 159.5t49.5 159.5t139.5 56.5t139.5 -56.5t49.5 -159.5q0 -102 -50 -159t-139 -57zM206 106q26 0 37 23t11 75q0 53 -11 74.5t-37 21.5t-37 -21.5t-11 -74.5q0 -52 11 -75t37 -23z" />
    <glyph glyph-name="uni2081" unicode="&#x2081;" horiz-adv-x="412" 
d="M173 0v276l-82 -50l-55 92l148 88h120v-406h-131z" />
    <glyph glyph-name="uni2082" unicode="&#x2082;" horiz-adv-x="412" 
d="M51 0v95l101 79q52 41 68.5 61.5t16.5 43.5q0 33 -30 33q-17 0 -25.5 -11t-12.5 -36l-127 11q7 68 51.5 105t119.5 38q74 0 115 -34.5t41 -95.5q0 -37 -15.5 -65t-57.5 -67q-37 -34 -63 -53h143l-11 -104h-314z" />
    <glyph glyph-name="uni2083" unicode="&#x2083;" horiz-adv-x="412" 
d="M177 162v90h31q40 0 40 36q0 34 -40 34q-20 0 -31 -10.5t-16 -34.5l-119 12q8 62 52 96t120 34q74 0 116.5 -31.5t42.5 -87.5q0 -55 -49 -85q28 -13 43.5 -38.5t15.5 -59.5q0 -60 -45.5 -95t-124.5 -35q-83 0 -128.5 40t-46.5 113h120q3 -58 51 -58q45 0 45 40t-46 40
h-31z" />
    <glyph glyph-name="uni2084" unicode="&#x2084;" horiz-adv-x="412" 
d="M214 0v74h-185v88l179 244h129v-237h50l-10 -95h-40v-74h-123zM214 271l-75 -102h75v102z" />
    <glyph glyph-name="uni2085" unicode="&#x2085;" horiz-adv-x="412" 
d="M167 120q6 -33 39 -33q40 0 40 45q0 23 -9.5 33t-32.5 10q-21 0 -40 -16h-110l23 247h268v-100h-170l-4 -54q26 14 66 14q62 0 97.5 -36.5t35.5 -100.5q0 -68 -41.5 -105t-118.5 -37q-75 0 -117.5 34t-47.5 99h122z" />
    <glyph glyph-name="uni2086" unicode="&#x2086;" horiz-adv-x="412" 
d="M252 287q-9 35 -39 35q-25 0 -37.5 -20t-15.5 -62q31 20 78 20q64 0 100 -34t36 -94q0 -67 -44.5 -106t-120.5 -39q-86 0 -130 52t-44 153q0 109 48.5 168t136.5 59q64 0 103.5 -31.5t48.5 -90.5zM209 80q22 0 34 12.5t12 35.5t-12 35t-34 12q-46 0 -46 -45
q0 -23 12 -36.5t34 -13.5z" />
    <glyph glyph-name="uni2087" unicode="&#x2087;" horiz-adv-x="412" 
d="M100 0q49 165 119 297h-176v109h320v-91q-83 -153 -127 -315h-136z" />
    <glyph glyph-name="uni2088" unicode="&#x2088;" horiz-adv-x="412" 
d="M318 210q61 -31 61 -98q0 -61 -45 -93t-129 -32q-83 0 -127.5 32t-44.5 91q0 69 60 100q-49 32 -49 90q0 57 42 88t119 31t119.5 -31t42.5 -88q0 -60 -49 -90zM254 119q0 41 -48 41t-48 -41q0 -40 48 -40t48 40zM247 290q0 18 -11 28t-30 10q-20 0 -31 -10t-11 -28
q0 -17 11 -27t31 -10q19 0 30 9.5t11 27.5z" />
    <glyph glyph-name="uni2089" unicode="&#x2089;" horiz-adv-x="412" 
d="M161 114q5 -31 39 -31q26 0 38 19.5t12 62.5q-31 -20 -78 -20q-63 0 -99.5 34.5t-36.5 93.5q0 67 44.5 106.5t120.5 39.5q86 0 130 -53.5t44 -159.5q0 -108 -45.5 -163.5t-133.5 -55.5q-69 0 -109.5 33t-47.5 94h122zM247 275q0 24 -12 37t-35 13q-22 0 -33.5 -12
t-11.5 -34q0 -23 12 -36t34 -13t34 11.5t12 33.5z" />
    <glyph glyph-name="uni2070" unicode="&#x2070;" horiz-adv-x="412" 
d="M206 276q-90 0 -139.5 56.5t-49.5 159.5t49.5 159.5t139.5 56.5t139.5 -56.5t49.5 -159.5q0 -102 -50 -159t-139 -57zM206 395q26 0 37 23t11 75q0 53 -11 74.5t-37 21.5t-37 -21.5t-11 -74.5q0 -52 11 -75t37 -23z" />
    <glyph glyph-name="uni00B9" unicode="&#xb9;" horiz-adv-x="412" 
d="M173 289v276l-82 -50l-55 92l148 88h120v-406h-131z" />
    <glyph glyph-name="uni00B2" unicode="&#xb2;" horiz-adv-x="412" 
d="M51 289v95l101 79q52 41 68.5 61.5t16.5 43.5q0 33 -30 33q-17 0 -25.5 -11t-12.5 -36l-127 11q7 68 51.5 105t119.5 38q74 0 115 -34.5t41 -95.5q0 -37 -15.5 -65t-57.5 -67q-37 -34 -63 -53h143l-11 -104h-314z" />
    <glyph glyph-name="uni00B3" unicode="&#xb3;" horiz-adv-x="412" 
d="M177 451v90h31q40 0 40 36q0 34 -40 34q-20 0 -31 -10.5t-16 -34.5l-119 12q8 62 52 96t120 34q74 0 116.5 -31.5t42.5 -87.5q0 -55 -49 -85q28 -13 43.5 -38.5t15.5 -59.5q0 -60 -45.5 -95t-124.5 -35q-83 0 -128.5 40t-46.5 113h120q3 -58 51 -58q45 0 45 40t-46 40
h-31z" />
    <glyph glyph-name="uni2074" unicode="&#x2074;" horiz-adv-x="412" 
d="M214 289v74h-185v88l179 244h129v-237h50l-10 -95h-40v-74h-123zM214 560l-75 -102h75v102z" />
    <glyph glyph-name="uni2075" unicode="&#x2075;" horiz-adv-x="412" 
d="M167 409q6 -33 39 -33q40 0 40 45q0 23 -9.5 33t-32.5 10q-21 0 -40 -16h-110l23 247h268v-100h-170l-4 -54q26 14 66 14q62 0 97.5 -36.5t35.5 -100.5q0 -68 -41.5 -105t-118.5 -37q-75 0 -117.5 34t-47.5 99h122z" />
    <glyph glyph-name="uni2076" unicode="&#x2076;" horiz-adv-x="412" 
d="M252 576q-9 35 -39 35q-25 0 -37.5 -20t-15.5 -62q31 20 78 20q64 0 100 -34t36 -94q0 -67 -44.5 -106t-120.5 -39q-86 0 -130 52t-44 153q0 109 48.5 168t136.5 59q64 0 103.5 -31.5t48.5 -90.5zM209 369q22 0 34 12.5t12 35.5t-12 35t-34 12q-46 0 -46 -45
q0 -23 12 -36.5t34 -13.5z" />
    <glyph glyph-name="uni2077" unicode="&#x2077;" horiz-adv-x="412" 
d="M100 289q49 165 119 297h-176v109h320v-91q-83 -153 -127 -315h-136z" />
    <glyph glyph-name="uni2078" unicode="&#x2078;" horiz-adv-x="412" 
d="M318 499q61 -31 61 -98q0 -61 -45 -93t-129 -32q-83 0 -127.5 32t-44.5 91q0 69 60 100q-49 32 -49 90q0 57 42 88t119 31t119.5 -31t42.5 -88q0 -60 -49 -90zM254 408q0 41 -48 41t-48 -41q0 -40 48 -40t48 40zM247 579q0 18 -11 28t-30 10q-20 0 -31 -10t-11 -28
q0 -17 11 -27t31 -10q19 0 30 9.5t11 27.5z" />
    <glyph glyph-name="uni2079" unicode="&#x2079;" horiz-adv-x="412" 
d="M161 403q5 -31 39 -31q26 0 38 19.5t12 62.5q-31 -20 -78 -20q-63 0 -99.5 34.5t-36.5 93.5q0 67 44.5 106.5t120.5 39.5q86 0 130 -53.5t44 -159.5q0 -108 -45.5 -163.5t-133.5 -55.5q-69 0 -109.5 33t-47.5 94h122zM247 564q0 24 -12 37t-35 13q-22 0 -33.5 -12
t-11.5 -34q0 -23 12 -36t34 -13t34 11.5t12 33.5z" />
    <glyph glyph-name="zero.dnom" unicode="&#xf814;" horiz-adv-x="412" 
d="M206 -134q-90 0 -139.5 56.5t-49.5 159.5t49.5 159.5t139.5 56.5t139.5 -56.5t49.5 -159.5q0 -102 -50 -159t-139 -57zM206 -15q26 0 37 23t11 75q0 53 -11 74.5t-37 21.5t-37 -21.5t-11 -74.5q0 -52 11 -75t37 -23z" />
    <glyph glyph-name="one.dnom" unicode="&#xf815;" horiz-adv-x="412" 
d="M173 -121v276l-82 -50l-55 92l148 88h120v-406h-131z" />
    <glyph glyph-name="two.dnom" unicode="&#xf816;" horiz-adv-x="412" 
d="M51 -121v95l101 79q52 41 68.5 61.5t16.5 43.5q0 33 -30 33q-17 0 -25.5 -11t-12.5 -36l-127 11q7 68 51.5 105t119.5 38q74 0 115 -34.5t41 -95.5q0 -37 -15.5 -65t-57.5 -67q-37 -34 -63 -53h143l-11 -104h-314z" />
    <glyph glyph-name="three.dnom" unicode="&#xf817;" horiz-adv-x="412" 
d="M177 41v90h31q40 0 40 36q0 34 -40 34q-20 0 -31 -10.5t-16 -34.5l-119 12q8 62 52 96t120 34q74 0 116.5 -31.5t42.5 -87.5q0 -55 -49 -85q28 -13 43.5 -38.5t15.5 -59.5q0 -60 -45.5 -95t-124.5 -35q-83 0 -128.5 40t-46.5 113h120q3 -58 51 -58q45 0 45 40t-46 40h-31
z" />
    <glyph glyph-name="four.dnom" unicode="&#xf818;" horiz-adv-x="412" 
d="M214 -121v74h-185v88l179 244h129v-237h50l-10 -95h-40v-74h-123zM214 150l-75 -102h75v102z" />
    <glyph glyph-name="five.dnom" unicode="&#xf819;" horiz-adv-x="412" 
d="M167 -1q6 -33 39 -33q40 0 40 45q0 23 -9.5 33t-32.5 10q-21 0 -40 -16h-110l23 247h268v-100h-170l-4 -54q26 14 66 14q62 0 97.5 -36.5t35.5 -100.5q0 -68 -41.5 -105t-118.5 -37q-75 0 -117.5 34t-47.5 99h122z" />
    <glyph glyph-name="six.dnom" unicode="&#xf81a;" horiz-adv-x="412" 
d="M252 166q-9 35 -39 35q-25 0 -37.5 -20t-15.5 -62q31 20 78 20q64 0 100 -34t36 -94q0 -67 -44.5 -106t-120.5 -39q-86 0 -130 52t-44 153q0 109 48.5 168t136.5 59q64 0 103.5 -31.5t48.5 -90.5zM209 -41q22 0 34 12.5t12 35.5t-12 35t-34 12q-46 0 -46 -45
q0 -23 12 -36.5t34 -13.5z" />
    <glyph glyph-name="seven.dnom" unicode="&#xf81b;" horiz-adv-x="412" 
d="M100 -121q49 165 119 297h-176v109h320v-91q-83 -153 -127 -315h-136z" />
    <glyph glyph-name="eight.dnom" unicode="&#xf81c;" horiz-adv-x="412" 
d="M318 89q61 -31 61 -98q0 -61 -45 -93t-129 -32q-83 0 -127.5 32t-44.5 91q0 69 60 100q-49 32 -49 90q0 57 42 88t119 31t119.5 -31t42.5 -88q0 -60 -49 -90zM254 -2q0 41 -48 41t-48 -41q0 -40 48 -40t48 40zM247 169q0 18 -11 28t-30 10q-20 0 -31 -10t-11 -28
q0 -17 11 -27t31 -10q19 0 30 9.5t11 27.5z" />
    <glyph glyph-name="nine.dnom" unicode="&#xf81d;" horiz-adv-x="412" 
d="M161 -7q5 -31 39 -31q26 0 38 19.5t12 62.5q-31 -20 -78 -20q-63 0 -99.5 34.5t-36.5 93.5q0 67 44.5 106.5t120.5 39.5q86 0 130 -53.5t44 -159.5q0 -108 -45.5 -163.5t-133.5 -55.5q-69 0 -109.5 33t-47.5 94h122zM247 154q0 24 -12 37t-35 13q-22 0 -33.5 -12
t-11.5 -34q0 -23 12 -36t34 -13t34 11.5t12 33.5z" />
    <glyph glyph-name="zero.numr" unicode="&#xf80a;" horiz-adv-x="412" 
d="M206 396q-90 0 -139.5 56.5t-49.5 159.5t49.5 159.5t139.5 56.5t139.5 -56.5t49.5 -159.5q0 -102 -50 -159t-139 -57zM206 515q26 0 37 23t11 75q0 53 -11 74.5t-37 21.5t-37 -21.5t-11 -74.5q0 -52 11 -75t37 -23z" />
    <glyph glyph-name="one.numr" unicode="&#xf80b;" horiz-adv-x="412" 
d="M173 409v276l-82 -50l-55 92l148 88h120v-406h-131z" />
    <glyph glyph-name="two.numr" unicode="&#xf80c;" horiz-adv-x="412" 
d="M51 409v95l101 79q52 41 68.5 61.5t16.5 43.5q0 33 -30 33q-17 0 -25.5 -11t-12.5 -36l-127 11q7 68 51.5 105t119.5 38q74 0 115 -34.5t41 -95.5q0 -37 -15.5 -65t-57.5 -67q-37 -34 -63 -53h143l-11 -104h-314z" />
    <glyph glyph-name="three.numr" unicode="&#xf80d;" horiz-adv-x="412" 
d="M177 571v90h31q40 0 40 36q0 34 -40 34q-20 0 -31 -10.5t-16 -34.5l-119 12q8 62 52 96t120 34q74 0 116.5 -31.5t42.5 -87.5q0 -55 -49 -85q28 -13 43.5 -38.5t15.5 -59.5q0 -60 -45.5 -95t-124.5 -35q-83 0 -128.5 40t-46.5 113h120q3 -58 51 -58q45 0 45 40t-46 40
h-31z" />
    <glyph glyph-name="four.numr" unicode="&#xf80e;" horiz-adv-x="412" 
d="M214 409v74h-185v88l179 244h129v-237h50l-10 -95h-40v-74h-123zM214 680l-75 -102h75v102z" />
    <glyph glyph-name="five.numr" unicode="&#xf80f;" horiz-adv-x="412" 
d="M167 529q6 -33 39 -33q40 0 40 45q0 23 -9.5 33t-32.5 10q-21 0 -40 -16h-110l23 247h268v-100h-170l-4 -54q26 14 66 14q62 0 97.5 -36.5t35.5 -100.5q0 -68 -41.5 -105t-118.5 -37q-75 0 -117.5 34t-47.5 99h122z" />
    <glyph glyph-name="six.numr" unicode="&#xf810;" horiz-adv-x="412" 
d="M252 696q-9 35 -39 35q-25 0 -37.5 -20t-15.5 -62q31 20 78 20q64 0 100 -34t36 -94q0 -67 -44.5 -106t-120.5 -39q-86 0 -130 52t-44 153q0 109 48.5 168t136.5 59q64 0 103.5 -31.5t48.5 -90.5zM209 489q22 0 34 12.5t12 35.5t-12 35t-34 12q-46 0 -46 -45
q0 -23 12 -36.5t34 -13.5z" />
    <glyph glyph-name="seven.numr" unicode="&#xf811;" horiz-adv-x="412" 
d="M100 409q49 165 119 297h-176v109h320v-91q-83 -153 -127 -315h-136z" />
    <glyph glyph-name="eight.numr" unicode="&#xf812;" horiz-adv-x="412" 
d="M318 619q61 -31 61 -98q0 -61 -45 -93t-129 -32q-83 0 -127.5 32t-44.5 91q0 69 60 100q-49 32 -49 90q0 57 42 88t119 31t119.5 -31t42.5 -88q0 -60 -49 -90zM254 528q0 41 -48 41t-48 -41q0 -40 48 -40t48 40zM247 699q0 18 -11 28t-30 10q-20 0 -31 -10t-11 -28
q0 -17 11 -27t31 -10q19 0 30 9.5t11 27.5z" />
    <glyph glyph-name="nine.numr" unicode="&#xf813;" horiz-adv-x="412" 
d="M161 523q5 -31 39 -31q26 0 38 19.5t12 62.5q-31 -20 -78 -20q-63 0 -99.5 34.5t-36.5 93.5q0 67 44.5 106.5t120.5 39.5q86 0 130 -53.5t44 -159.5q0 -108 -45.5 -163.5t-133.5 -55.5q-69 0 -109.5 33t-47.5 94h122zM247 684q0 24 -12 37t-35 13q-22 0 -33.5 -12
t-11.5 -34q0 -23 12 -36t34 -13t34 11.5t12 33.5z" />
    <glyph glyph-name="fraction" unicode="&#x2044;" horiz-adv-x="133" 
d="M-179 0l323 691h168l-323 -691h-168z" />
    <glyph glyph-name="percent" unicode="%" horiz-adv-x="1000" 
d="M253 0l323 691h168l-323 -691h-168zM781 -13q-90 0 -139.5 56.5t-49.5 159.5t49.5 159.5t139.5 56.5t139.5 -56.5t49.5 -159.5q0 -102 -50 -159t-139 -57zM781 106q26 0 37 23t11 75q0 53 -11 74.5t-37 21.5t-37 -21.5t-11 -74.5q0 -52 11 -75t37 -23zM219 276
q-90 0 -139.5 56.5t-49.5 159.5t49.5 159.5t139.5 56.5t139.5 -56.5t49.5 -159.5q0 -102 -50 -159t-139 -57zM219 395q26 0 37 23t11 75q0 53 -11 74.5t-37 21.5t-37 -21.5t-11 -74.5q0 -52 11 -75t37 -23z" />
    <glyph glyph-name="perthousand" unicode="&#x2030;" horiz-adv-x="1417" 
d="M253 0l323 691h168l-323 -691h-168zM781 -13q-90 0 -139.5 56.5t-49.5 159.5t49.5 159.5t139.5 56.5t139.5 -56.5t49.5 -159.5q0 -102 -50 -159t-139 -57zM781 106q26 0 37 23t11 75q0 53 -11 74.5t-37 21.5t-37 -21.5t-11 -74.5q0 -52 11 -75t37 -23zM1198 -13
q-90 0 -139.5 56.5t-49.5 159.5t49.5 159.5t139.5 56.5t139.5 -56.5t49.5 -159.5q0 -102 -50 -159t-139 -57zM1198 106q26 0 37 23t11 75q0 53 -11 74.5t-37 21.5t-37 -21.5t-11 -74.5q0 -52 11 -75t37 -23zM219 276q-90 0 -139.5 56.5t-49.5 159.5t49.5 159.5t139.5 56.5
t139.5 -56.5t49.5 -159.5q0 -102 -50 -159t-139 -57zM219 395q26 0 37 23t11 75q0 53 -11 74.5t-37 21.5t-37 -21.5t-11 -74.5q0 -52 11 -75t37 -23z" />
    <glyph glyph-name="onehalf" unicode="&#xbd;" horiz-adv-x="1001" 
d="M228 0l323 691h168l-323 -691h-168zM636 0v95l101 79q52 41 68.5 61.5t16.5 43.5q0 33 -30 33q-17 0 -25.5 -11t-12.5 -36l-127 11q7 68 51.5 105t119.5 38q74 0 115 -34.5t41 -95.5q0 -37 -15.5 -65t-57.5 -67q-37 -34 -63 -53h143l-11 -104h-314zM160 289v276l-82 -50
l-55 92l148 88h120v-406h-131z" />
    <glyph glyph-name="onethird" unicode="&#x2153;" horiz-adv-x="1001" 
d="M233 0l323 691h168l-323 -691h-168zM766 162v90h31q40 0 40 36q0 34 -40 34q-20 0 -31 -10.5t-16 -34.5l-119 12q8 62 52 96t120 34q74 0 116.5 -31.5t42.5 -87.5q0 -55 -49 -85q28 -13 43.5 -38.5t15.5 -59.5q0 -60 -45.5 -95t-124.5 -35q-83 0 -128.5 40t-46.5 113h120
q3 -58 51 -58q45 0 45 40t-46 40h-31zM160 289v276l-82 -50l-55 92l148 88h120v-406h-131z" />
    <glyph glyph-name="twothirds" unicode="&#x2154;" horiz-adv-x="1001" 
d="M265 0l323 691h168l-323 -691h-168zM763 162v90h31q40 0 40 36q0 34 -40 34q-20 0 -31 -10.5t-16 -34.5l-119 12q8 62 52 96t120 34q74 0 116.5 -31.5t42.5 -87.5q0 -55 -49 -85q28 -13 43.5 -38.5t15.5 -59.5q0 -60 -45.5 -95t-124.5 -35q-83 0 -128.5 40t-46.5 113h120
q3 -58 51 -58q45 0 45 40t-46 40h-31zM48 289v95l101 79q52 41 68.5 61.5t16.5 43.5q0 33 -30 33q-17 0 -25.5 -11t-12.5 -36l-127 11q7 68 51.5 105t119.5 38q74 0 115 -34.5t41 -95.5q0 -37 -15.5 -65t-57.5 -67q-37 -34 -63 -53h143l-11 -104h-314z" />
    <glyph glyph-name="onequarter" unicode="&#xbc;" horiz-adv-x="1001" 
d="M246 0l323 691h168l-323 -691h-168zM799 0v74h-185v88l179 244h129v-237h50l-10 -95h-40v-74h-123zM799 271l-75 -102h75v102zM160 289v276l-82 -50l-55 92l148 88h120v-406h-131z" />
    <glyph glyph-name="threequarters" unicode="&#xbe;" horiz-adv-x="1001" 
d="M273 0l323 691h168l-323 -691h-168zM799 0v74h-185v88l179 244h129v-237h50l-10 -95h-40v-74h-123zM799 271l-75 -102h75v102zM177 451v90h31q40 0 40 36q0 34 -40 34q-20 0 -31 -10.5t-16 -34.5l-119 12q8 62 52 96t120 34q74 0 116.5 -31.5t42.5 -87.5q0 -55 -49 -85
q28 -13 43.5 -38.5t15.5 -59.5q0 -60 -45.5 -95t-124.5 -35q-83 0 -128.5 40t-46.5 113h120q3 -58 51 -58q45 0 45 40t-46 40h-31z" />
    <glyph glyph-name="onefifth" unicode="&#x2155;" horiz-adv-x="1001" 
d="M230 0l323 691h168l-323 -691h-168zM759 120q6 -33 39 -33q40 0 40 45q0 23 -9.5 33t-32.5 10q-21 0 -40 -16h-110l23 247h268v-100h-170l-4 -54q26 14 66 14q62 0 97.5 -36.5t35.5 -100.5q0 -68 -41.5 -105t-118.5 -37q-75 0 -117.5 34t-47.5 99h122zM160 289v276
l-82 -50l-55 92l148 88h120v-406h-131z" />
    <glyph glyph-name="twofifths" unicode="&#x2156;" horiz-adv-x="1001" 
d="M263 0l323 691h168l-323 -691h-168zM756 120q6 -33 39 -33q40 0 40 45q0 23 -9.5 33t-32.5 10q-21 0 -40 -16h-110l23 247h268v-100h-170l-4 -54q26 14 66 14q62 0 97.5 -36.5t35.5 -100.5q0 -68 -41.5 -105t-118.5 -37q-75 0 -117.5 34t-47.5 99h122zM48 289v95l101 79
q52 41 68.5 61.5t16.5 43.5q0 33 -30 33q-17 0 -25.5 -11t-12.5 -36l-127 11q7 68 51.5 105t119.5 38q74 0 115 -34.5t41 -95.5q0 -37 -15.5 -65t-57.5 -67q-37 -34 -63 -53h143l-11 -104h-314z" />
    <glyph glyph-name="threefifths" unicode="&#x2157;" horiz-adv-x="1001" 
d="M260 0l323 691h168l-323 -691h-168zM759 120q6 -33 39 -33q40 0 40 45q0 23 -9.5 33t-32.5 10q-21 0 -40 -16h-110l23 247h268v-100h-170l-4 -54q26 14 66 14q62 0 97.5 -36.5t35.5 -100.5q0 -68 -41.5 -105t-118.5 -37q-75 0 -117.5 34t-47.5 99h122zM177 451v90h31
q40 0 40 36q0 34 -40 34q-20 0 -31 -10.5t-16 -34.5l-119 12q8 62 52 96t120 34q74 0 116.5 -31.5t42.5 -87.5q0 -55 -49 -85q28 -13 43.5 -38.5t15.5 -59.5q0 -60 -45.5 -95t-124.5 -35q-83 0 -128.5 40t-46.5 113h120q3 -58 51 -58q45 0 45 40t-46 40h-31z" />
    <glyph glyph-name="fourfifths" unicode="&#x2158;" horiz-adv-x="1001" 
d="M261 0l323 691h168l-323 -691h-168zM759 120q6 -33 39 -33q40 0 40 45q0 23 -9.5 33t-32.5 10q-21 0 -40 -16h-110l23 247h268v-100h-170l-4 -54q26 14 66 14q62 0 97.5 -36.5t35.5 -100.5q0 -68 -41.5 -105t-118.5 -37q-75 0 -117.5 34t-47.5 99h122zM214 289v74h-185
v88l179 244h129v-237h50l-10 -95h-40v-74h-123zM214 560l-75 -102h75v102z" />
    <glyph glyph-name="onesixth" unicode="&#x2159;" horiz-adv-x="1001" 
d="M233 0l323 691h168l-323 -691h-168zM841 287q-9 35 -39 35q-25 0 -37.5 -20t-15.5 -62q31 20 78 20q64 0 100 -34t36 -94q0 -67 -44.5 -106t-120.5 -39q-86 0 -130 52t-44 153q0 109 48.5 168t136.5 59q64 0 103.5 -31.5t48.5 -90.5zM798 80q22 0 34 12.5t12 35.5t-12 35
t-34 12q-46 0 -46 -45q0 -23 12 -36.5t34 -13.5zM160 289v276l-82 -50l-55 92l148 88h120v-406h-131z" />
    <glyph glyph-name="fivesixths" unicode="&#x215a;" horiz-adv-x="1001" 
d="M259 0l323 691h168l-323 -691h-168zM841 287q-9 35 -39 35q-25 0 -37.5 -20t-15.5 -62q31 20 78 20q64 0 100 -34t36 -94q0 -67 -44.5 -106t-120.5 -39q-86 0 -130 52t-44 153q0 109 48.5 168t136.5 59q64 0 103.5 -31.5t48.5 -90.5zM798 80q22 0 34 12.5t12 35.5t-12 35
t-34 12q-46 0 -46 -45q0 -23 12 -36.5t34 -13.5zM167 409q6 -33 39 -33q40 0 40 45q0 23 -9.5 33t-32.5 10q-21 0 -40 -16h-110l23 247h268v-100h-170l-4 -54q26 14 66 14q62 0 97.5 -36.5t35.5 -100.5q0 -68 -41.5 -105t-118.5 -37q-75 0 -117.5 34t-47.5 99h122z" />
    <glyph glyph-name="oneseventh" unicode="&#x2150;" horiz-adv-x="1001" 
d="M218 0l323 691h168l-323 -691h-168zM689 0q49 165 119 297h-176v109h320v-91q-83 -153 -127 -315h-136zM160 289v276l-82 -50l-55 92l148 88h120v-406h-131z" />
    <glyph glyph-name="twosevenths" unicode="&#xf507;" horiz-adv-x="1001" 
d="M249 0l323 691h168l-323 -691h-168zM686 0q49 165 119 297h-176v109h320v-91q-83 -153 -127 -315h-136zM48 289v95l101 79q52 41 68.5 61.5t16.5 43.5q0 33 -30 33q-17 0 -25.5 -11t-12.5 -36l-127 11q7 68 51.5 105t119.5 38q74 0 115 -34.5t41 -95.5q0 -37 -15.5 -65
t-57.5 -67q-37 -34 -63 -53h143l-11 -104h-314z" />
    <glyph glyph-name="threesevenths" unicode="&#xf508;" horiz-adv-x="1001" 
d="M244 0l323 691h168l-323 -691h-168zM689 0q49 165 119 297h-176v109h320v-91q-83 -153 -127 -315h-136zM171 451v90h31q40 0 40 36q0 34 -40 34q-20 0 -31 -10.5t-16 -34.5l-119 12q8 62 52 96t120 34q74 0 116.5 -31.5t42.5 -87.5q0 -55 -49 -85q28 -13 43.5 -38.5
t15.5 -59.5q0 -60 -45.5 -95t-124.5 -35q-83 0 -128.5 40t-46.5 113h120q3 -58 51 -58q45 0 45 40t-46 40h-31z" />
    <glyph glyph-name="foursevenths" unicode="&#xf509;" horiz-adv-x="1001" 
d="M248 0l323 691h168l-323 -691h-168zM689 0q49 165 119 297h-176v109h320v-91q-83 -153 -127 -315h-136zM214 289v74h-185v88l179 244h129v-237h50l-10 -95h-40v-74h-123zM214 560l-75 -102h75v102z" />
    <glyph glyph-name="fivesevenths" unicode="&#xf50a;" horiz-adv-x="1001" 
d="M241 0l323 691h168l-323 -691h-168zM689 0q49 165 119 297h-176v109h320v-91q-83 -153 -127 -315h-136zM167 409q6 -33 39 -33q40 0 40 45q0 23 -9.5 33t-32.5 10q-21 0 -40 -16h-110l23 247h268v-100h-170l-4 -54q26 14 66 14q62 0 97.5 -36.5t35.5 -100.5
q0 -68 -41.5 -105t-118.5 -37q-75 0 -117.5 34t-47.5 99h122z" />
    <glyph glyph-name="sixsevenths" unicode="&#xf50b;" horiz-adv-x="1001" 
d="M237 0l323 691h168l-323 -691h-168zM689 0q49 165 119 297h-176v109h320v-91q-83 -153 -127 -315h-136zM252 576q-9 35 -39 35q-25 0 -37.5 -20t-15.5 -62q31 20 78 20q64 0 100 -34t36 -94q0 -67 -44.5 -106t-120.5 -39q-86 0 -130 52t-44 153q0 109 48.5 168t136.5 59
q64 0 103.5 -31.5t48.5 -90.5zM209 369q22 0 34 12.5t12 35.5t-12 35t-34 12q-46 0 -46 -45q0 -23 12 -36.5t34 -13.5z" />
    <glyph glyph-name="oneeighth" unicode="&#x215b;" horiz-adv-x="1001" 
d="M226 0l323 691h168l-323 -691h-168zM907 210q61 -31 61 -98q0 -61 -45 -93t-129 -32q-83 0 -127.5 32t-44.5 91q0 69 60 100q-49 32 -49 90q0 57 42 88t119 31t119.5 -31t42.5 -88q0 -60 -49 -90zM843 119q0 41 -48 41t-48 -41q0 -40 48 -40t48 40zM836 290q0 18 -11 28
t-30 10q-20 0 -31 -10t-11 -28q0 -17 11 -27t31 -10q19 0 30 9.5t11 27.5zM160 289v276l-82 -50l-55 92l148 88h120v-406h-131z" />
    <glyph glyph-name="threeeighths" unicode="&#x215c;" horiz-adv-x="1001" 
d="M257 0l323 691h168l-323 -691h-168zM907 210q61 -31 61 -98q0 -61 -45 -93t-129 -32q-83 0 -127.5 32t-44.5 91q0 69 60 100q-49 32 -49 90q0 57 42 88t119 31t119.5 -31t42.5 -88q0 -60 -49 -90zM843 119q0 41 -48 41t-48 -41q0 -40 48 -40t48 40zM836 290q0 18 -11 28
t-30 10q-20 0 -31 -10t-11 -28q0 -17 11 -27t31 -10q19 0 30 9.5t11 27.5zM177 451v90h31q40 0 40 36q0 34 -40 34q-20 0 -31 -10.5t-16 -34.5l-119 12q8 62 52 96t120 34q74 0 116.5 -31.5t42.5 -87.5q0 -55 -49 -85q28 -13 43.5 -38.5t15.5 -59.5q0 -60 -45.5 -95
t-124.5 -35q-83 0 -128.5 40t-46.5 113h120q3 -58 51 -58q45 0 45 40t-46 40h-31z" />
    <glyph glyph-name="fiveeighths" unicode="&#x215d;" horiz-adv-x="1001" 
d="M253 0l323 691h168l-323 -691h-168zM907 210q61 -31 61 -98q0 -61 -45 -93t-129 -32q-83 0 -127.5 32t-44.5 91q0 69 60 100q-49 32 -49 90q0 57 42 88t119 31t119.5 -31t42.5 -88q0 -60 -49 -90zM843 119q0 41 -48 41t-48 -41q0 -40 48 -40t48 40zM836 290q0 18 -11 28
t-30 10q-20 0 -31 -10t-11 -28q0 -17 11 -27t31 -10q19 0 30 9.5t11 27.5zM167 409q6 -33 39 -33q40 0 40 45q0 23 -9.5 33t-32.5 10q-21 0 -40 -16h-110l23 247h268v-100h-170l-4 -54q26 14 66 14q62 0 97.5 -36.5t35.5 -100.5q0 -68 -41.5 -105t-118.5 -37
q-75 0 -117.5 34t-47.5 99h122z" />
    <glyph glyph-name="seveneighths" unicode="&#x215e;" horiz-adv-x="1001" 
d="M218 0l323 691h168l-323 -691h-168zM907 210q61 -31 61 -98q0 -61 -45 -93t-129 -32q-83 0 -127.5 32t-44.5 91q0 69 60 100q-49 32 -49 90q0 57 42 88t119 31t119.5 -31t42.5 -88q0 -60 -49 -90zM843 119q0 41 -48 41t-48 -41q0 -40 48 -40t48 40zM836 290q0 18 -11 28
t-30 10q-20 0 -31 -10t-11 -28q0 -17 11 -27t31 -10q19 0 30 9.5t11 27.5zM97 289q49 165 119 297h-176v109h320v-91q-83 -153 -127 -315h-136z" />
    <glyph glyph-name="oneninth" unicode="&#x2151;" horiz-adv-x="1001" 
d="M228 0l323 691h168l-323 -691h-168zM750 114q5 -31 39 -31q26 0 38 19.5t12 62.5q-31 -20 -78 -20q-63 0 -99.5 34.5t-36.5 93.5q0 67 44.5 106.5t120.5 39.5q86 0 130 -53.5t44 -159.5q0 -108 -45.5 -163.5t-133.5 -55.5q-69 0 -109.5 33t-47.5 94h122zM836 275
q0 24 -12 37t-35 13q-22 0 -33.5 -12t-11.5 -34q0 -23 12 -36t34 -13t34 11.5t12 33.5zM160 289v276l-82 -50l-55 92l148 88h120v-406h-131z" />
    <glyph glyph-name="twoninths" unicode="&#xf50d;" horiz-adv-x="1001" 
d="M262 0l323 691h168l-323 -691h-168zM747 114q5 -31 39 -31q26 0 38 19.5t12 62.5q-31 -20 -78 -20q-63 0 -99.5 34.5t-36.5 93.5q0 67 44.5 106.5t120.5 39.5q86 0 130 -53.5t44 -159.5q0 -108 -45.5 -163.5t-133.5 -55.5q-69 0 -109.5 33t-47.5 94h122zM833 275
q0 24 -12 37t-35 13q-22 0 -33.5 -12t-11.5 -34q0 -23 12 -36t34 -13t34 11.5t12 33.5zM48 289v95l101 79q52 41 68.5 61.5t16.5 43.5q0 33 -30 33q-17 0 -25.5 -11t-12.5 -36l-127 11q7 68 51.5 105t119.5 38q74 0 115 -34.5t41 -95.5q0 -37 -15.5 -65t-57.5 -67
q-37 -34 -63 -53h143l-11 -104h-314z" />
    <glyph glyph-name="fourninths" unicode="&#xf50e;" horiz-adv-x="1001" 
d="M256 0l323 691h168l-323 -691h-168zM750 114q5 -31 39 -31q26 0 38 19.5t12 62.5q-31 -20 -78 -20q-63 0 -99.5 34.5t-36.5 93.5q0 67 44.5 106.5t120.5 39.5q86 0 130 -53.5t44 -159.5q0 -108 -45.5 -163.5t-133.5 -55.5q-69 0 -109.5 33t-47.5 94h122zM836 275
q0 24 -12 37t-35 13q-22 0 -33.5 -12t-11.5 -34q0 -23 12 -36t34 -13t34 11.5t12 33.5zM214 289v74h-185v88l179 244h129v-237h50l-10 -95h-40v-74h-123zM214 560l-75 -102h75v102z" />
    <glyph glyph-name="fiveninths" unicode="&#xf50f;" horiz-adv-x="1001" 
d="M252 0l323 691h168l-323 -691h-168zM750 114q5 -31 39 -31q26 0 38 19.5t12 62.5q-31 -20 -78 -20q-63 0 -99.5 34.5t-36.5 93.5q0 67 44.5 106.5t120.5 39.5q86 0 130 -53.5t44 -159.5q0 -108 -45.5 -163.5t-133.5 -55.5q-69 0 -109.5 33t-47.5 94h122zM836 275
q0 24 -12 37t-35 13q-22 0 -33.5 -12t-11.5 -34q0 -23 12 -36t34 -13t34 11.5t12 33.5zM167 409q6 -33 39 -33q40 0 40 45q0 23 -9.5 33t-32.5 10q-21 0 -40 -16h-110l23 247h268v-100h-170l-4 -54q26 14 66 14q62 0 97.5 -36.5t35.5 -100.5q0 -68 -41.5 -105t-118.5 -37
q-75 0 -117.5 34t-47.5 99h122z" />
    <glyph glyph-name="sevenninths" unicode="&#xf510;" horiz-adv-x="1001" 
d="M214 0l323 691h168l-323 -691h-168zM750 114q5 -31 39 -31q26 0 38 19.5t12 62.5q-31 -20 -78 -20q-63 0 -99.5 34.5t-36.5 93.5q0 67 44.5 106.5t120.5 39.5q86 0 130 -53.5t44 -159.5q0 -108 -45.5 -163.5t-133.5 -55.5q-69 0 -109.5 33t-47.5 94h122zM836 275
q0 24 -12 37t-35 13q-22 0 -33.5 -12t-11.5 -34q0 -23 12 -36t34 -13t34 11.5t12 33.5zM91 289q49 165 119 297h-176v109h320v-91q-83 -153 -127 -315h-136z" />
    <glyph glyph-name="eightninths" unicode="&#xf511;" horiz-adv-x="1001" 
d="M258 0l323 691h168l-323 -691h-168zM750 114q5 -31 39 -31q26 0 38 19.5t12 62.5q-31 -20 -78 -20q-63 0 -99.5 34.5t-36.5 93.5q0 67 44.5 106.5t120.5 39.5q86 0 130 -53.5t44 -159.5q0 -108 -45.5 -163.5t-133.5 -55.5q-69 0 -109.5 33t-47.5 94h122zM836 275
q0 24 -12 37t-35 13q-22 0 -33.5 -12t-11.5 -34q0 -23 12 -36t34 -13t34 11.5t12 33.5zM318 499q61 -31 61 -98q0 -61 -45 -93t-129 -32q-83 0 -127.5 32t-44.5 91q0 69 60 100q-49 32 -49 90q0 57 42 88t119 31t119.5 -31t42.5 -88q0 -60 -49 -90zM254 408q0 41 -48 41
t-48 -41q0 -40 48 -40t48 40zM247 579q0 18 -11 28t-30 10q-20 0 -31 -10t-11 -28q0 -17 11 -27t31 -10q19 0 30 9.5t11 27.5z" />
    <glyph glyph-name="dollar" unicode="$" horiz-adv-x="592" 
d="M259 -124v107q-115 8 -177 71t-66 176h171q3 -46 20.5 -72.5t51.5 -35.5v156q-122 24 -177.5 75t-55.5 139q0 96 60.5 151.5t172.5 62.5v99h60v-99q211 -14 232 -213l-167 -17q-6 41 -21.5 63.5t-43.5 30.5v-142l39 -8q104 -22 155 -75t51 -139q0 -102 -63.5 -160
t-181.5 -63v-107h-60zM319 118q35 3 53.5 22t18.5 50q0 61 -72 76v-148zM259 573q-66 -7 -66 -65q0 -25 16 -41t50 -26v132z" />
    <glyph glyph-name="cent" unicode="&#xa2;" horiz-adv-x="592" 
d="M276 -11v96q-113 8 -174 78t-61 194q0 123 61 195t174 82v94h59v-93q92 -6 147.5 -57t66.5 -139l-166 -16q-9 57 -48 69v-266q46 12 51 74h169q-10 -99 -66 -154t-154 -61v-96h-59zM276 491q-59 -19 -59 -131q0 -110 59 -132v263z" />
    <glyph glyph-name="sterling" unicode="&#xa3;" horiz-adv-x="592" 
d="M59 0v121q31 37 44.5 70.5t13.5 74.5v9h-80v134h60q-7 42 -7 76q0 105 64 165t176 60q101 0 160 -52.5t66 -146.5l-161 -18q-6 36 -22 51t-47 15q-35 0 -51 -21t-16 -65q0 -31 6 -64h195v-134h-178q-2 -80 -37 -127h326l-17 -148h-495z" />
    <glyph glyph-name="yen" unicode="&#xa5;" horiz-adv-x="592" 
d="M385 127v-127h-177v127h-155v93h155v62h-155v93h109l-155 316h186l106 -254l107 254h179l-153 -316h109v-93h-156v-62h156v-93h-156z" />
    <glyph glyph-name="Euro" unicode="&#x20ac;" horiz-adv-x="592" 
d="M585 194q-14 -103 -77 -157.5t-168 -54.5q-224 0 -261 250h-67l14 88h46v52h-60l14 88h55q42 250 266 250q195 0 229 -191l-167 -21q-9 35 -24.5 48.5t-46.5 13.5q-33 0 -53.5 -24.5t-29.5 -75.5h171l-14 -88h-165v-52h159l-14 -88h-138q10 -52 30.5 -76t56.5 -24
q58 0 70 62h174z" />
    <glyph glyph-name="uni20B9" unicode="&#x20b9;" horiz-adv-x="592" 
d="M313 0l-247 230v104h101q63 0 94.5 15.5t43.5 51.5h-239v109h238q-12 34 -44 49t-93 15h-101v117h497l-12 -109h-107q25 -33 33 -72h65l-13 -109h-49q-11 -72 -57 -116.5t-122 -57.5l238 -227h-226z" />
    <glyph glyph-name="uni20BA" unicode="&#x20ba;" horiz-adv-x="592" 
d="M563 305q-11 -149 -94.5 -227t-231.5 -78h-150v264l-50 -19l-31 86l81 31v55l-50 -19l-31 86l81 31v176h174v-110l123 47l32 -86l-155 -60v-55l123 48l32 -86l-155 -60v-174h10q50 0 84.5 41.5t38.5 108.5h169z" />
    <glyph glyph-name="currency" unicode="&#xa4;" horiz-adv-x="592" 
d="M454 37l-61 67q-44 -19 -94 -19q-53 0 -100 21l-61 -69l-110 98l61 67q-32 61 -32 128q0 71 32 129l-61 66l110 99l60 -68q48 20 101 20q49 0 96 -19l59 67l109 -99l-57 -62q33 -61 33 -132t-34 -133l58 -63zM298 202q49 0 74.5 33t25.5 96q0 62 -25.5 95t-74.5 33
q-48 0 -74 -33.5t-26 -94.5q0 -62 26 -95.5t74 -33.5z" />
    <glyph glyph-name="asciicircum" unicode="^" horiz-adv-x="592" 
d="M385 291l-91 220l-91 -220h-179l195 426h153l195 -426h-182z" />
    <glyph glyph-name="plus" unicode="+" horiz-adv-x="592" 
d="M214 85v177h-164v157h164v177h163v-177h164v-157h-164v-177h-163z" />
    <glyph glyph-name="minus" unicode="&#x2212;" horiz-adv-x="592" 
d="M78 261v159h436v-159h-436z" />
    <glyph glyph-name="plusminus" unicode="&#xb1;" horiz-adv-x="592" 
d="M71 0v151h143v128h-161v151h161v169h165v-169h161v-151h-161v-128h143v-151h-451z" />
    <glyph glyph-name="equal" unicode="=" horiz-adv-x="592" 
d="M75 152v151h442v-151h-442zM75 380v151h442v-151h-442z" />
    <glyph glyph-name="notequal" unicode="&#x2260;" horiz-adv-x="592" 
d="M279 152l-48 -105h-138l48 105h-66v151h134l36 77h-170v151h238l48 105h138l-48 -105h66v-151h-134l-36 -77h170v-151h-238z" />
    <glyph glyph-name="divide" unicode="&#xf7;" horiz-adv-x="592" 
d="M59 262v157h474v-157h-474zM220 471v140h152v-140h-152zM220 70v140h152v-140h-152z" />
    <glyph glyph-name="less" unicode="&#x3c;" horiz-adv-x="592" 
d="M66 265v148l465 191v-162l-262 -101l262 -101v-166z" />
    <glyph glyph-name="greater" unicode="&#x3e;" horiz-adv-x="592" 
d="M61 74v162l262 101l-262 101v166l465 -191v-148z" />
    <glyph glyph-name="lessequal" unicode="&#x2264;" horiz-adv-x="592" 
d="M66 0v145h465v-145h-465zM66 343v150l465 159v-156l-281 -76l281 -77v-159z" />
    <glyph glyph-name="greaterequal" unicode="&#x2265;" horiz-adv-x="592" 
d="M61 0v145h465v-145h-465zM61 184v156l281 76l-281 77v159l465 -159v-150z" />
    <glyph glyph-name="asciitilde" unicode="~" horiz-adv-x="592" 
d="M572 452q0 -119 -42.5 -180t-125.5 -61q-35 0 -62 10t-72 39q-31 20 -52 20q-22 0 -33.5 -17t-11.5 -49h-153q0 119 42.5 180t125.5 61q35 0 62 -10t72 -39q31 -20 52 -20q22 0 33.5 17t11.5 49h153z" />
    <glyph glyph-name="approxequal" unicode="&#x2248;" horiz-adv-x="592" 
d="M572 600q0 -119 -42.5 -180t-125.5 -61q-35 0 -62 10t-72 39q-31 20 -52 20q-22 0 -33.5 -17t-11.5 -49h-153q0 119 42.5 180t125.5 61q35 0 62 -10t72 -39q31 -20 52 -20q22 0 33.5 17t11.5 49h153zM572 321q0 -119 -42.5 -180t-125.5 -61q-35 0 -62 10t-72 39
q-31 20 -52 20q-22 0 -33.5 -17t-11.5 -49h-153q0 119 42.5 180t125.5 61q35 0 62 -10t72 -39q31 -20 52 -20q22 0 33.5 17t11.5 49h153z" />
    <glyph glyph-name="multiply" unicode="&#xd7;" horiz-adv-x="592" 
d="M296 232l-129 -129l-109 109l129 129l-127 128l109 109l127 -128l127 128l109 -109l-127 -128l129 -129l-109 -109z" />
    <glyph glyph-name="underscore" unicode="_" horiz-adv-x="500" 
d="M0 -175v52h500v-52h-500z" />
    <glyph glyph-name="section" unicode="&#xa7;" horiz-adv-x="582" 
d="M230 133q-102 24 -144 61t-42 103q0 92 71 133q-33 19 -51 52t-18 75q0 82 65.5 128.5t180.5 46.5q216 0 251 -169l-167 -23q-11 37 -30.5 52t-55.5 15q-72 0 -72 -50q0 -20 13.5 -32.5t42.5 -19.5l96 -25q97 -25 135 -60t38 -100q0 -46 -18 -78t-57 -55q39 -23 57.5 -55
t18.5 -77q0 -86 -62 -131t-181 -45q-251 0 -268 202h175q6 -38 27 -55t62 -17q74 0 74 50q0 21 -14 34t-44 20zM288 246q23 -6 42 -6q31 0 47 16t16 46q0 25 -14.5 39t-46.5 22l-34 9q-21 6 -42 6q-30 0 -46.5 -15.5t-16.5 -44.5q0 -25 14 -39.5t47 -23.5z" />
    <glyph glyph-name="degree" unicode="&#xb0;" horiz-adv-x="377" 
d="M350 550q0 -69 -46 -114.5t-115 -45.5q-70 0 -116 45.5t-46 113.5q0 47 22 84t59 57t81 20q69 0 115 -45.5t46 -114.5zM241 550q0 25 -14 40.5t-38 15.5t-38.5 -15.5t-14.5 -40.5t14.5 -40.5t38.5 -15.5t38 15.5t14 40.5z" />
    <glyph glyph-name="mu" unicode="&#xb5;" horiz-adv-x="610" 
d="M379 0v62q-41 -68 -101 -68q-26 0 -42 13v-201h-181v719h181v-322q0 -37 13.5 -53.5t44.5 -16.5q35 0 57 23q23 24 23 65v304h181v-525h-176z" />
    <glyph glyph-name="paragraph" unicode="&#xb6;" horiz-adv-x="698" 
d="M474 -139v714h-72v-714h-161v374q-110 13 -168 74.5t-58 163.5q0 117 77 179t226 62h317v-853h-161z" />
    <glyph glyph-name="numbersign" unicode="#" horiz-adv-x="592" 
d="M286 0l24 150h-85l-24 -150h-143l24 150h-65v128h86l20 125h-74v128h95l24 147h143l-24 -147h85l24 147h143l-24 -147h54v-128h-75l-20 -125h63v-128h-84l-24 -150h-143zM351 403h-85l-20 -125h85z" />
    <glyph glyph-name="bar" unicode="|" horiz-adv-x="301" 
d="M65 -124v858h171v-858h-171z" />
    <glyph glyph-name="brokenbar" unicode="&#xa6;" horiz-adv-x="301" 
d="M65 -124v353h171v-353h-171zM65 398v336h171v-336h-171z" />
    <glyph glyph-name="dagger" unicode="&#x2020;" horiz-adv-x="506" 
d="M163 -87v465h-145v161h145v175h180v-175h145v-161h-145v-465h-180z" />
    <glyph glyph-name="daggerdbl" unicode="&#x2021;" horiz-adv-x="506" 
d="M163 -87v172h-145v158h145v149h-145v158h145v164h180v-164h145v-158h-145v-149h145v-158h-145v-172h-180z" />
    <glyph glyph-name="logicalnot" unicode="&#xac;" horiz-adv-x="592" 
d="M347 157v135h-281v157h444v-292h-163z" />
    <glyph glyph-name="ampersand" unicode="&#x26;" horiz-adv-x="703" 
d="M519 0l-30 33q-86 -49 -198 -49q-123 0 -195 57t-72 154q0 129 142 202q-62 77 -62 148q0 54 28.5 95t77 63t109.5 22q91 0 146.5 -46.5t55.5 -122.5q0 -112 -137 -186l110 -125q19 51 19 122h151q0 -138 -69 -238l113 -129h-189zM249 303q-49 -37 -49 -90
q0 -44 31.5 -69.5t86.5 -25.5q49 0 81 16zM308 458q31 19 44.5 38.5t13.5 45.5t-13 41t-37 15t-39 -15.5t-15 -40.5q0 -18 10 -36.5t36 -47.5z" />
    <glyph glyph-name="asterisk" unicode="*" horiz-adv-x="430" 
d="M276 317l-61 112l-60 -112l-115 85l96 92l-127 27l52 131l103 -62l-22 124h147l-22 -124l103 62l52 -131l-127 -27l96 -92z" />
    <glyph glyph-name="hyphen" unicode="-" horiz-adv-x="410" 
d="M39 217v167h332v-167h-332z" />
    <glyph glyph-name="endash" unicode="&#x2013;" horiz-adv-x="500" 
d="M0 220v160h500v-160h-500z" />
    <glyph glyph-name="emdash" unicode="&#x2014;" horiz-adv-x="1000" 
d="M0 220v160h1000v-160h-1000z" />
    <glyph glyph-name="parenleft" unicode="(" horiz-adv-x="343" 
d="M166 -124q-61 90 -93.5 200.5t-32.5 228.5t32.5 228.5t93.5 200.5h175q-57 -103 -84.5 -208t-27.5 -221t27.5 -221t84.5 -208h-175z" />
    <glyph glyph-name="parenright" unicode=")" horiz-adv-x="343" 
d="M2 -124q57 103 84.5 208t27.5 221t-27.5 221t-84.5 208h175q61 -90 93.5 -200.5t32.5 -228.5t-32.5 -228.5t-93.5 -200.5h-175z" />
    <glyph glyph-name="slash" unicode="/" horiz-adv-x="428" 
d="M8 0l233 734h179l-233 -734h-179z" />
    <glyph glyph-name="backslash" unicode="\" horiz-adv-x="428" 
d="M241 0l-233 734h179l233 -734h-179z" />
    <glyph glyph-name="bracketleft" unicode="[" horiz-adv-x="382" 
d="M65 -124v858h296v-154h-114v-550h114v-154h-296z" />
    <glyph glyph-name="bracketright" unicode="]" horiz-adv-x="382" 
d="M21 -124v154h114v550h-114v154h296v-858h-296z" />
    <glyph glyph-name="braceleft" unicode="{" horiz-adv-x="387" 
d="M271 -124q-89 0 -134.5 44t-45.5 130v111q0 34 -16 52t-47 18h-10v148h10q31 0 47 18t16 52v111q0 86 45.5 130t134.5 44h97v-153h-53q-52 0 -52 -53v-113q0 -41 -17 -69t-50 -41q33 -13 50 -41t17 -69v-113q0 -53 52 -53h53v-153h-97z" />
    <glyph glyph-name="braceright" unicode="}" horiz-adv-x="387" 
d="M19 -124v153h53q52 0 52 53v113q0 41 17 69t50 41q-33 13 -50 41t-17 69v113q0 53 -52 53h-53v153h97q89 0 134.5 -44t45.5 -130v-111q0 -34 16 -52t47 -18h10v-148h-10q-31 0 -47 -18t-16 -52v-111q0 -86 -45.5 -130t-134.5 -44h-97z" />
    <glyph glyph-name="bullet" unicode="&#x2022;" horiz-adv-x="409" 
d="M364 362q0 -70 -44.5 -115t-115.5 -45q-70 0 -115 45t-45 115q0 71 45 115.5t115 44.5q48 0 84.5 -21t56 -57.5t19.5 -81.5z" />
    <glyph glyph-name="guilsinglleft" unicode="&#x2039;" horiz-adv-x="361" 
d="M151 28l-122 229l122 228h185l-109 -228l109 -229h-185z" />
    <glyph glyph-name="guilsinglright" unicode="&#x203a;" horiz-adv-x="361" 
d="M25 28l109 228l-109 229h185l122 -229l-122 -228h-185z" />
    <glyph glyph-name="guillemotleft" unicode="&#xab;" horiz-adv-x="626" 
d="M151 28l-122 229l122 228h185l-109 -228l109 -229h-185zM416 28l-122 229l122 228h185l-109 -228l109 -229h-185z" />
    <glyph glyph-name="guillemotright" unicode="&#xbb;" horiz-adv-x="626" 
d="M25 28l109 228l-109 229h185l122 -229l-122 -228h-185zM290 28l109 228l-109 229h185l122 -229l-122 -228h-185z" />
    <glyph glyph-name="at" unicode="@" horiz-adv-x="1018" 
d="M837 -49q-32 -56 -87 -96t-125.5 -61t-149.5 -21q-133 0 -231 54.5t-150 152.5t-52 228q0 148 70 263t187.5 177.5t261.5 62.5q127 0 221.5 -51t145 -141t50.5 -206q0 -95 -33 -166.5t-90.5 -109.5t-131.5 -38q-55 0 -91.5 20.5t-51.5 58.5q-54 -82 -142 -82
q-76 0 -119 53t-43 146q0 80 30.5 144.5t81 100t109.5 35.5q71 0 107 -55l8 45h151l-50 -296q-2 -14 -2 -20q0 -38 34 -38q44 0 74 57.5t30 142.5q0 137 -76 211.5t-216 74.5q-116 0 -203 -51t-133.5 -139t-46.5 -200q0 -150 81.5 -235t227.5 -85q60 0 106 15.5t84 48.5h164
zM569 258q3 21 3 35q0 59 -46 59q-38 0 -62 -40.5t-24 -106.5q0 -40 11.5 -58t37.5 -18q60 0 75 97z" />
    <glyph glyph-name="periodcentered" unicode="&#xb7;" horiz-adv-x="269" 
d="M48 278v191h174v-191h-174z" />
    <glyph glyph-name="hyphen.case" horiz-adv-x="410" 
d="M39 274v167h332v-167h-332z" />
    <glyph glyph-name="endash.case" horiz-adv-x="500" 
d="M0 277v160h500v-160h-500z" />
    <glyph glyph-name="emdash.case" horiz-adv-x="1000" 
d="M0 277v160h1000v-160h-1000z" />
    <glyph glyph-name="parenleft.case" horiz-adv-x="343" 
d="M166 -72q-61 90 -93.5 200.5t-32.5 228.5t32.5 228.5t93.5 200.5h175q-57 -103 -84.5 -208t-27.5 -221t27.5 -221t84.5 -208h-175z" />
    <glyph glyph-name="parenright.case" horiz-adv-x="343" 
d="M2 -72q57 103 84.5 208t27.5 221t-27.5 221t-84.5 208h175q61 -90 93.5 -200.5t32.5 -228.5t-32.5 -228.5t-93.5 -200.5h-175z" />
    <glyph glyph-name="slash.case" horiz-adv-x="428" 
d="M8 -10l233 734h179l-233 -734h-179z" />
    <glyph glyph-name="backslash.case" horiz-adv-x="428" 
d="M241 -10l-233 734h179l233 -734h-179z" />
    <glyph glyph-name="bracketleft.case" horiz-adv-x="382" 
d="M65 -72v858h296v-154h-114v-550h114v-154h-296z" />
    <glyph glyph-name="bracketright.case" horiz-adv-x="382" 
d="M20 -72v154h114v550h-114v154h296v-858h-296z" />
    <glyph glyph-name="braceleft.case" horiz-adv-x="387" 
d="M271 -72q-89 0 -134.5 44t-45.5 130v111q0 34 -16 52t-47 18h-10v148h10q31 0 47 18t16 52v111q0 86 45.5 130t134.5 44h97v-153h-53q-52 0 -52 -53v-113q0 -41 -17 -69t-50 -41q33 -13 50 -41t17 -69v-113q0 -53 52 -53h53v-153h-97z" />
    <glyph glyph-name="braceright.case" horiz-adv-x="387" 
d="M19 -72v153h53q52 0 52 53v113q0 41 17 69t50 41q-33 13 -50 41t-17 69v113q0 53 -52 53h-53v153h97q89 0 134.5 -44t45.5 -130v-111q0 -34 16 -52t47 -18h10v-148h-10q-31 0 -47 -18t-16 -52v-111q0 -86 -45.5 -130t-134.5 -44h-97z" />
    <glyph glyph-name="bullet.case" horiz-adv-x="409" 
d="M364 357q0 -70 -44.5 -115t-115.5 -45q-70 0 -115 45t-45 115q0 71 45 115.5t115 44.5q48 0 84.5 -21t56 -57.5t19.5 -81.5z" />
    <glyph glyph-name="guilsinglleft.case" horiz-adv-x="361" 
d="M151 128l-122 229l122 228h185l-109 -228l109 -229h-185z" />
    <glyph glyph-name="guilsinglright.case" horiz-adv-x="361" 
d="M25 128l109 228l-109 229h185l122 -229l-122 -228h-185z" />
    <glyph glyph-name="guillemotleft.case" horiz-adv-x="626" 
d="M151 128l-122 229l122 228h185l-109 -228l109 -229h-185zM416 128l-122 229l122 228h185l-109 -228l109 -229h-185z" />
    <glyph glyph-name="guillemotright.case" horiz-adv-x="626" 
d="M25 128l109 228l-109 229h185l122 -229l-122 -228h-185zM290 128l109 228l-109 229h185l122 -229l-122 -228h-185z" />
    <glyph glyph-name="at.case" horiz-adv-x="1018" 
d="M837 65q-32 -56 -87 -96t-125.5 -61t-149.5 -21q-133 0 -231 54.5t-150 152.5t-52 228q0 148 70 263t187.5 177.5t261.5 62.5q127 0 221.5 -51t145 -141t50.5 -206q0 -95 -33 -166.5t-90.5 -109.5t-131.5 -38q-55 0 -91.5 20.5t-51.5 58.5q-54 -82 -142 -82
q-76 0 -119 53t-43 146q0 80 30.5 144.5t81 100t109.5 35.5q71 0 107 -55l8 45h151l-50 -296q-2 -14 -2 -20q0 -38 34 -38q44 0 74 57.5t30 142.5q0 137 -76 211.5t-216 74.5q-116 0 -203 -51t-133.5 -139t-46.5 -200q0 -150 81.5 -235t227.5 -85q60 0 106 15.5t84 48.5h164
zM569 372q3 21 3 35q0 59 -46 59q-38 0 -62 -40.5t-24 -106.5q0 -40 11.5 -58t37.5 -18q60 0 75 97z" />
    <glyph glyph-name="periodcentered.case" horiz-adv-x="269" 
d="M48 261v191h174v-191h-174z" />
    <glyph glyph-name="questiondown.case" horiz-adv-x="538" 
d="M353 485v-21q0 -31 -7.5 -57.5t-23 -50t-52.5 -56.5q-17 -15 -31.5 -29t-23 -30.5t-8.5 -36.5q0 -29 18.5 -45t50.5 -16q70 0 82 79l167 -17q-13 -105 -80 -161t-180 -56q-112 0 -177 50.5t-65 137.5q0 44 17.5 80t55.5 74q45 45 62 64.5t23.5 34.5t6.5 43v13h165z
M356 714v-173h-169v173h169z" />
    <glyph glyph-name="exclamdown.case" horiz-adv-x="307" 
d="M55 0l18 485h161l18 -485h-197zM69 541v173h169v-173h-169z" />
    <glyph glyph-name="uni2010" unicode="&#x2010;" horiz-adv-x="410" 
d="M39 217v167h332v-167h-332z" />
    <glyph glyph-name="uni2012" unicode="&#x2012;" horiz-adv-x="592" 
d="M46 265v160h500v-160h-500z" />
    <glyph glyph-name="uni2015" unicode="&#x2015;" horiz-adv-x="1000" 
d="M0 220v160h1000v-160h-1000z" />
    <glyph glyph-name="uni00AD" unicode="&#xad;" horiz-adv-x="410" 
d="M39 217v167h332v-167h-332z" />
    <glyph glyph-name="A" unicode="A" horiz-adv-x="744" 
d="M530 0l-41 137h-241l-40 -137h-193l248 714h218l248 -714h-199zM369 536l-74 -246h147z" />
    <glyph glyph-name="B" unicode="B" horiz-adv-x="672" 
d="M66 0v714h299q257 0 257 -185q0 -53 -21.5 -89.5t-66.5 -60.5q55 -27 81 -68t26 -100q0 -102 -70.5 -156.5t-202.5 -54.5h-302zM352 144q55 0 80 19.5t25 60.5q0 40 -23.5 58t-75.5 18h-111v-156h105zM351 440q46 0 66 15t20 50t-22 50t-74 15h-94v-130h104z" />
    <glyph glyph-name="C" unicode="C" horiz-adv-x="728" 
d="M703 261q-8 -131 -92 -205t-225 -74q-162 0 -251.5 97.5t-89.5 273.5q0 178 91.5 278.5t254.5 100.5q128 0 204 -63.5t97 -188.5l-191 -22q-12 58 -39.5 83.5t-76.5 25.5q-137 0 -137 -209q0 -211 139 -211q52 0 82 29t38 85h196z" />
    <glyph glyph-name="D" unicode="D" horiz-adv-x="753" 
d="M66 0v714h281q177 0 269 -89t92 -260q0 -176 -96.5 -270.5t-275.5 -94.5h-270zM339 162q170 0 170 197q0 98 -39.5 145.5t-120.5 47.5h-91v-390h81z" />
    <glyph glyph-name="E" unicode="E" horiz-adv-x="623" 
d="M66 0v714h511v-158h-324v-114h304v-158h-304v-126h345l-16 -158h-516z" />
    <glyph glyph-name="F" unicode="F" horiz-adv-x="593" 
d="M255 260v-260h-189v714h489v-160h-300v-134h283v-160h-283z" />
    <glyph glyph-name="G" unicode="G" horiz-adv-x="751" 
d="M524 253h-114v155h291v-325q-61 -49 -140.5 -75t-165.5 -26q-168 0 -259 96.5t-91 274.5q0 120 42 205.5t120 129.5t185 44q126 0 204.5 -61t96.5 -171l-192 -19q-11 46 -37.5 67.5t-73.5 21.5q-74 0 -110 -52.5t-36 -159.5q0 -112 40 -163t128 -51q63 0 112 26v83z" />
    <glyph glyph-name="H" unicode="H" horiz-adv-x="748" 
d="M490 0v282h-232v-282h-192v714h192v-259h232v259h192v-714h-192z" />
    <glyph glyph-name="I" unicode="I" horiz-adv-x="324" 
d="M66 0v714h192v-714h-192z" />
    <glyph glyph-name="J" unicode="J" horiz-adv-x="664" 
d="M413 714h192v-451q0 -136 -75 -208.5t-215 -72.5q-138 0 -211 72t-77 212h192q4 -63 26.5 -91t69.5 -28q98 0 98 114v453z" />
    <glyph glyph-name="K" unicode="K" horiz-adv-x="716" 
d="M500 0l-171 309l-71 -79v-230h-192v714h192v-259l217 259h209l-227 -270l253 -444h-210z" />
    <glyph glyph-name="L" unicode="L" horiz-adv-x="596" 
d="M66 0v714h192v-551h316l-17 -163h-491z" />
    <glyph glyph-name="M" unicode="M" horiz-adv-x="884" 
d="M637 0v393l-127 -393h-140l-127 395v-395h-177v714h223l153 -478l154 478h222v-714h-181z" />
    <glyph glyph-name="N" unicode="N" horiz-adv-x="739" 
d="M505 0l-257 409v-409h-182v714h168l257 -409v409h182v-714h-168z" />
    <glyph glyph-name="O" unicode="O" horiz-adv-x="793" 
d="M394 -18q-110 0 -188.5 45t-119.5 128.5t-41 198.5q0 178 94 278t260 100q110 0 188.5 -45t119.5 -128.5t41 -198.5q0 -178 -94 -278t-260 -100zM396 147q76 0 114.5 53t38.5 157q0 210 -152 210q-76 0 -114.5 -53t-38.5 -157t38.5 -157t113.5 -53z" />
    <glyph glyph-name="P" unicode="P" horiz-adv-x="654" 
d="M66 0v714h267q144 0 215 -59t71 -179q0 -244 -284 -244h-83v-232h-186zM334 385q56 0 81.5 21.5t25.5 68.5t-25 67t-83 20h-81v-177h82z" />
    <glyph glyph-name="Q" unicode="Q" horiz-adv-x="793" 
d="M634 -101l-90 110q-69 -27 -150 -27q-110 0 -188.5 45t-119.5 128.5t-41 198.5q0 178 94 278t260 100q110 0 188.5 -45t119.5 -128.5t41 -198.5q0 -171 -91 -273l83 -102zM353 246l106 86l74 -92q16 45 16 117q0 210 -152 210q-76 0 -114.5 -53t-38.5 -157t38.5 -157
t114.5 -53q26 0 34 2z" />
    <glyph glyph-name="R" unicode="R" horiz-adv-x="681" 
d="M470 0l-117 246h-104v-246h-183v714h282q140 0 212.5 -57.5t72.5 -168.5q0 -69 -27 -121t-79 -82l146 -285h-203zM343 395q55 0 80 21t25 66q0 43 -27.5 63.5t-83.5 20.5h-88v-171h94z" />
    <glyph glyph-name="S" unicode="S" horiz-adv-x="670" 
d="M274 290q-122 23 -177.5 75t-55.5 143q0 108 74.5 166t212.5 58q134 0 211 -56t88 -162l-186 -19q-10 45 -36.5 65t-77.5 20q-46 0 -71 -15.5t-25 -45.5q0 -25 19 -40t61 -23l97 -19q119 -23 175.5 -76.5t56.5 -144.5q0 -113 -78 -173.5t-223 -60.5q-146 0 -225 63.5
t-87 189.5h191q6 -51 37.5 -75t90.5 -24q50 0 76 17.5t26 51.5q0 28 -19.5 44t-59.5 23z" />
    <glyph glyph-name="T" unicode="T" horiz-adv-x="650" 
d="M229 0v551h-206v163h604v-163h-206v-551h-192z" />
    <glyph glyph-name="U" unicode="U" horiz-adv-x="718" 
d="M469 714h192v-418q0 -314 -304 -314q-300 0 -300 314v418h192v-425q0 -74 26 -108t84 -34t84 34t26 108v425z" />
    <glyph glyph-name="V" unicode="V" horiz-adv-x="728" 
d="M256 0l-241 714h206l145 -487l145 487h202l-241 -714h-216z" />
    <glyph glyph-name="W" unicode="W" horiz-adv-x="992" 
d="M600 0l-103 457l-101 -457h-190l-191 714h204l92 -466l100 461h177l102 -461l89 466h198l-185 -714h-192z" />
    <glyph glyph-name="X" unicode="X" horiz-adv-x="725" 
d="M501 0l-147 241l-139 -241h-207l235 375l-218 339h216l121 -208l121 208h206l-216 -346l244 -368h-216z" />
    <glyph glyph-name="Y" unicode="Y" horiz-adv-x="690" 
d="M250 0v277l-240 437h208l129 -273l131 273h202l-237 -437v-277h-193z" />
    <glyph glyph-name="Z" unicode="Z" horiz-adv-x="625" 
d="M32 0v138l322 418h-315v158h544v-138l-322 -418h342l-17 -158h-554z" />
    <glyph glyph-name="a" unicode="a" horiz-adv-x="585" 
d="M366 0v57q-35 -37 -73 -54t-86 -17q-82 0 -129.5 42.5t-47.5 115.5q0 83 62 126.5t190 49.5l79 4v21q0 69 -67 69q-62 0 -71 -52l-163 13q27 166 242 166q119 0 176 -53t57 -162v-326h-169zM360 222l-58 -3q-51 -3 -74.5 -17.5t-23.5 -43.5q0 -48 59 -48q45 0 71 25.5
t26 68.5v18z" />
    <glyph glyph-name="b" unicode="b" horiz-adv-x="634" 
d="M55 0v714h181v-241q54 68 148 68q100 0 155 -71t55 -200q0 -90 -27 -154.5t-76.5 -98t-116.5 -33.5q-94 0 -143 70v-54h-176zM236 256q0 -68 21 -98t65 -30q89 0 89 134q0 133 -88 133q-43 0 -66 -33q-21 -30 -21 -91v-15z" />
    <glyph glyph-name="c" unicode="c" horiz-adv-x="577" 
d="M549 202q-10 -106 -73 -162t-173 -56q-126 0 -194.5 71.5t-68.5 202.5q0 134 71 208.5t197 74.5q102 0 163 -51t72 -145l-173 -17q-7 37 -23 53.5t-44 16.5q-80 0 -80 -136q0 -135 80 -135q31 0 49.5 19.5t21.5 55.5h175z" />
    <glyph glyph-name="d" unicode="d" horiz-adv-x="634" 
d="M403 0v59q-55 -75 -153 -75q-100 0 -155 71t-55 200q0 90 27 154.5t76.5 98t116.5 33.5q88 0 138 -62v235h181v-714h-176zM398 269q0 68 -21 98t-65 30q-89 0 -89 -134q0 -133 88 -133q44 0 66 33q21 30 21 91v15z" />
    <glyph glyph-name="e" unicode="e" horiz-adv-x="600" 
d="M556 169q-16 -92 -79 -138.5t-171 -46.5q-130 0 -198 69t-68 201q0 135 71 211t197 76q119 0 185.5 -69.5t66.5 -194.5v-57h-346q4 -56 25 -81t65 -25q68 0 83 55h169zM393 323q-2 47 -22.5 68.5t-62.5 21.5q-84 0 -94 -90h179z" />
    <glyph glyph-name="f" unicode="f" horiz-adv-x="412" 
d="M99 0v364h-84v141h84v16q0 95 55 148t153 53q62 0 120 -18l-23 -128q-37 8 -61 8q-63 0 -63 -61v-18h114v-141h-114v-364h-181z" />
    <glyph glyph-name="g" unicode="g" horiz-adv-x="634" 
d="M398 84q-54 -63 -148 -63q-100 0 -155 66t-55 186q0 124 59 196t161 72q94 0 143 -66v51h176v-461q0 -137 -66 -203.5t-203 -66.5q-232 0 -249 185h177q7 -54 74 -54q49 0 67.5 29.5t18.5 106.5v22zM398 287q0 54 -21 81q-23 29 -66 29q-42 0 -65 -30t-23 -85t22.5 -84.5
t64.5 -29.5q41 0 67 31q21 26 21 75v13z" />
    <glyph glyph-name="h" unicode="h" horiz-adv-x="610" 
d="M379 0v322q0 37 -14 53.5t-45 16.5q-36 0 -60 -23q-24 -24 -24 -65v-304h-181v714h181v-245q59 72 154 72q83 0 126.5 -49t43.5 -141v-351h-181z" />
    <glyph glyph-name="i" unicode="i" horiz-adv-x="291" 
d="M55 0v525h181v-525h-181zM54 583v131h183v-131h-183z" />
    <glyph glyph-name="j" unicode="j" horiz-adv-x="296" 
d="M60 525h181v-515q0 -96 -47 -145t-139 -49q-61 0 -125 18l24 130q32 -7 52 -7q28 0 41 14.5t13 45.5v508zM59 583v131h183v-131h-183z" />
    <glyph glyph-name="k" unicode="k" horiz-adv-x="618" 
d="M424 0l-132 240l-60 -55v-185h-177v714h177v-349l165 160h203l-185 -177l200 -348h-191z" />
    <glyph glyph-name="l" unicode="l" horiz-adv-x="291" 
d="M55 0v714h181v-714h-181z" />
    <glyph glyph-name="m" unicode="m" horiz-adv-x="890" 
d="M659 0v333q0 31 -11.5 45t-38.5 14q-32 0 -51 -19q-20 -20 -20 -55v-318h-181v333q0 31 -11.5 45t-38.5 14q-32 0 -51 -19q-20 -20 -20 -55v-318h-181v525h176v-61q54 77 147 77q49 0 84.5 -21t53.5 -61q32 42 71.5 62t89.5 20q80 0 121.5 -48t41.5 -140v-353h-181z" />
    <glyph glyph-name="n" unicode="n" horiz-adv-x="610" 
d="M379 0v322q0 37 -14 53.5t-45 16.5q-36 0 -60 -23q-24 -24 -24 -65v-304h-181v525h176v-62q59 78 159 78q83 0 126.5 -49t43.5 -141v-351h-181z" />
    <glyph glyph-name="o" unicode="o" horiz-adv-x="624" 
d="M310 -16q-128 0 -199 72.5t-71 203.5q0 133 72.5 207t201.5 74q128 0 199 -73t71 -204q0 -132 -72 -206t-202 -74zM312 127q89 0 89 136q0 135 -89 135t-89 -136q0 -135 89 -135z" />
    <glyph glyph-name="p" unicode="p" horiz-adv-x="634" 
d="M55 -194v720h176v-59q55 74 153 74q100 0 155 -71t55 -200q0 -90 -27 -154.5t-76.5 -98t-116.5 -33.5q-87 0 -138 63v-241h-181zM236 256q0 -68 21 -98t65 -30q89 0 89 134q0 133 -88 133q-43 0 -66 -33q-21 -30 -21 -91v-15z" />
    <glyph glyph-name="q" unicode="q" horiz-adv-x="634" 
d="M398 -194v246q-54 -68 -148 -68q-100 0 -155 71t-55 200q0 90 27 154.5t76.5 98t116.5 33.5q94 0 143 -70v55h176v-720h-181zM398 269q0 68 -21 98t-65 30q-89 0 -89 -134q0 -133 88 -133q44 0 66 33q21 30 21 91v15z" />
    <glyph glyph-name="r" unicode="r" horiz-adv-x="443" 
d="M55 0v525h176v-64q27 37 63 55t84 18q28 0 51 -5l-20 -155q-21 6 -56 6q-53 0 -82 -21q-35 -26 -35 -90v-269h-181z" />
    <glyph glyph-name="s" unicode="s" horiz-adv-x="549" 
d="M350 364q-7 29 -25 41.5t-52 12.5q-32 0 -48.5 -10.5t-16.5 -29.5q0 -16 13 -25t47 -15l60 -11q105 -19 150 -57t45 -109q0 -177 -239 -177q-122 0 -186.5 46.5t-70.5 137.5h171q10 -54 84 -54q34 0 49.5 9.5t15.5 31.5q0 17 -12 26.5t-39 14.5l-61 10q-102 16 -149.5 56
t-47.5 108q0 82 61 126.5t174 44.5q106 0 168 -40.5t76 -119.5z" />
    <glyph glyph-name="t" unicode="t" horiz-adv-x="423" 
d="M412 10q-61 -19 -124 -19q-100 0 -145 46.5t-45 151.5v195h-84v141h84v138h181v-138h114v-141h-114v-187q0 -32 14 -46.5t46 -14.5q25 0 50 6z" />
    <glyph glyph-name="u" unicode="u" horiz-adv-x="605" 
d="M374 0v62q-57 -78 -157 -78q-81 0 -124 49t-43 141v351h181v-322q0 -37 13.5 -53.5t43.5 -16.5q34 0 58 23q23 24 23 65v304h181v-525h-176z" />
    </font>
</defs>
</svg>
