<svg width="1920" height="691" viewBox="0 0 1920 691" fill="none" xmlns="http://www.w3.org/2000/svg">
<g clip-path="url(#clip0_8192_41090)">
<path d="M0 50C0 22.3858 22.3858 0 50 0H1870C1897.61 0 1920 22.3858 1920 50V691H0V50Z" fill="url(#paint0_linear_8192_41090)"/>
<path d="M0 50C0 22.3858 22.3858 0 50 0H1870C1897.61 0 1920 22.3858 1920 50V691H0V50Z" fill="url(#paint1_linear_8192_41090)"/>
<path d="M0 50C0 22.3858 22.3858 0 50 0H1870C1897.61 0 1920 22.3858 1920 50V691H0V50Z" fill="url(#paint2_linear_8192_41090)"/>
<g opacity="0.1" clip-path="url(#clip1_8192_41090)">
<path d="M47.8711 796.64C47.8711 1253.79 325.062 1644.52 719.375 1812.54C945.812 1703.13 1121.5 1503.86 1144.92 1328.03C1195.67 1042.8 1039.51 788.826 738.895 726.309C734.991 726.309 727.183 722.402 723.279 722.402C711.567 722.402 567.115 722.401 453.897 695.051C453.897 695.051 387.527 745.845 414.856 843.527C414.856 843.527 266.5 687.236 360.198 476.242C360.198 476.242 407.048 378.559 563.211 276.97L567.115 273.063C610.061 222.269 707.663 136.308 856.017 65.9764C930.195 30.8113 1059.03 -16.0768 1199.58 -27.7986C1832.04 -86.4081 2163.89 378.559 2183.41 409.819C2023.34 -12.1696 1621.22 -309.124 1152.73 -309.124C543.691 -309.124 47.8711 187.102 47.8711 796.64Z" fill="#EDEDED"/>
<path d="M1780.95 1703.12C1925.4 1601.52 2042.52 1468.67 2124.51 1312.38C1995.68 968.543 1698.96 687.218 1304.65 601.259C1429.58 636.424 1960.53 886.49 1839.52 1531.2C1827.79 1593.71 1808.28 1648.41 1780.95 1703.12Z" fill="#EDEDED"/>
<path d="M1582.18 214.427C1265.95 171.448 1000.47 253.5 789.646 401.977C789.646 401.977 852.112 366.811 945.81 331.646C961.427 394.163 1012.18 444.957 1078.55 456.679C1172.25 476.216 1258.14 421.513 1277.66 335.553C1281.56 312.109 1281.56 288.666 1277.66 265.221C1871.08 245.685 2195.12 683.302 2253.68 820.057C2253.68 812.243 2253.68 804.428 2253.68 796.614C2253.68 714.56 2245.87 636.414 2230.25 562.175C2109.23 417.606 1859.37 245.685 1582.18 214.427Z" fill="#EDEDED"/>
</g>
</g>
<defs>
<linearGradient id="paint0_linear_8192_41090" x1="1740.5" y1="24.0001" x2="20" y2="706" gradientUnits="userSpaceOnUse">
<stop offset="0.0712209" stop-color="#0143A6"/>
<stop offset="0.420023" stop-color="#014DA4"/>
<stop offset="1" stop-color="#012F6F"/>
</linearGradient>
<linearGradient id="paint1_linear_8192_41090" x1="1395.5" y1="198.5" x2="1631" y2="724.5" gradientUnits="userSpaceOnUse">
<stop stop-color="#0094DA" stop-opacity="0"/>
<stop offset="1" stop-color="#0094DA"/>
</linearGradient>
<linearGradient id="paint2_linear_8192_41090" x1="592" y1="421" x2="127" y2="-219" gradientUnits="userSpaceOnUse">
<stop stop-color="#0297DC" stop-opacity="0"/>
<stop offset="1" stop-color="#0297DC"/>
</linearGradient>
<clipPath id="clip0_8192_41090">
<rect width="1920" height="691" fill="white"/>
</clipPath>
<clipPath id="clip1_8192_41090">
<rect width="1875" height="691" fill="white" transform="translate(45)"/>
</clipPath>
</defs>
</svg>
