<svg width="176" height="80" viewBox="0 0 176 80" fill="none" xmlns="http://www.w3.org/2000/svg">
<path d="M134.815 80C157.316 80 175.556 62.0914 175.556 40C175.556 17.9086 157.316 0 134.815 0C112.314 0 94.0742 17.9086 94.0742 40C94.0742 62.0914 112.314 80 134.815 80Z" fill="white"/>
<path d="M96.915 39.9997C96.915 55.3519 106.396 68.5448 119.914 74.2196C127.678 70.5198 133.7 63.8838 134.545 57.8404C136.261 48.1761 130.897 39.71 120.611 37.6166C120.423 37.5771 120.222 37.5244 120.021 37.4454C119.659 37.4454 114.644 37.4981 110.781 36.4842C110.728 36.5237 108.569 38.209 109.454 41.448C109.454 41.448 104.304 36.1682 107.576 29.0846C107.576 29.0846 109.159 25.7403 114.55 22.317C114.59 22.2644 114.63 22.2248 114.67 22.1722C116.105 20.5 119.565 17.5376 124.581 15.1939C127.142 14.0616 131.527 12.4421 136.449 12.0339C158.12 10.059 169.506 25.7272 170.243 26.7673C164.812 12.7449 150.999 2.79102 134.813 2.79102C113.879 2.79102 96.915 19.4467 96.915 39.9997Z" fill="#0047BA"/>
<path d="M156.461 70.5497C161.41 67.1659 165.486 62.6629 168.329 57.3963C163.85 45.8492 153.725 36.3166 140.194 33.4727C144.459 34.6181 162.777 43.0711 158.567 64.8617C158.084 66.8762 157.373 68.7722 156.475 70.5497H156.461Z" fill="#0047BA"/>
<path d="M149.541 20.3798C138.692 18.9578 129.559 21.7096 122.371 26.6339C122.371 26.6339 124.49 25.4489 127.749 24.3034C128.231 26.3442 129.988 28.069 132.348 28.5562C135.513 29.2014 138.584 27.3844 139.201 24.4877C139.362 23.6977 139.335 22.9209 139.134 22.1836C159.504 21.5779 170.595 36.285 172.7 40.8274C172.7 40.5509 172.7 40.2744 172.7 39.9979C172.7 37.2725 172.405 34.626 171.842 32.0717C167.658 27.2 159.102 21.4331 149.541 20.3929V20.3798Z" fill="#0047BA"/>
<path d="M6.49063 45.9863H9.9237L16.4143 62.958H12.5387L11.1575 59.0344H5.10936L3.72809 62.958H0L6.49063 45.9863ZM10.2187 56.1114L8.11329 50.0285L6.03468 56.1114H10.2187Z" fill="white"/>
<path d="M18.5202 45.9863H24.9841C27.6259 45.9863 29.6911 46.6973 31.1663 48.1061C32.6414 49.515 33.379 51.6084 33.379 54.3734C33.379 55.7822 33.1778 57.0199 32.7621 58.0864C32.3464 59.1529 31.7563 60.0482 30.9785 60.7724C30.2007 61.4965 29.262 62.0495 28.1489 62.4182C27.0358 62.7869 25.7753 62.9712 24.3672 62.9712H18.5068V45.9995L18.5202 45.9863ZM24.4476 59.9297C25.3864 59.9297 26.1776 59.798 26.8481 59.5347C27.5052 59.2714 28.0416 58.9027 28.4574 58.4024C28.8731 57.9152 29.1681 57.3227 29.3693 56.6512C29.5704 55.9797 29.6643 55.2161 29.6643 54.3866C29.6643 53.5571 29.5838 52.8198 29.4095 52.1351C29.2352 51.4636 28.9669 50.8975 28.6049 50.4366C28.2294 49.9758 27.76 49.6203 27.17 49.3701C26.5799 49.12 25.8557 48.9883 24.9975 48.9883H22.1411V59.9165H24.4611L24.4476 59.9297Z" fill="white"/>
<path d="M36.2607 45.9863H39.5061L46.627 57.1121V45.9863H50.1405V62.958H46.922L39.7877 51.9376V62.958H36.2742V45.9863H36.2607Z" fill="white"/>
<path d="M18.5213 35.1378V20.1016H22.1287V38.2451H7.0956C4.69514 38.2451 2.92497 37.7316 1.77167 36.7178C0.604968 35.6908 0.0283203 34.1503 0.0283203 32.0568C0.0283203 30.9113 0.269708 29.8843 0.752482 29.0022C1.23526 28.12 1.94601 27.4222 2.88474 26.9218C3.82346 26.4083 4.94994 26.1318 6.26416 26.0528L6.67988 29.0812C5.52659 29.1602 4.69514 29.4367 4.19896 29.9106C3.70277 30.3715 3.44797 31.0956 3.44797 32.0568C3.44797 33.1233 3.72959 33.9001 4.29283 34.4004C4.85607 34.8876 5.74115 35.1378 6.94809 35.1378H18.5347H18.5213ZM15.1687 27.4353V28.6335H10.5689V27.4353H11.1321V26.6848C11.1321 26.0792 11.3065 25.6052 11.6551 25.276C12.0038 24.9469 12.4866 24.7757 13.1303 24.7757C13.774 24.7757 14.2165 24.9074 14.5116 25.1707C14.82 25.434 15.0077 25.8817 15.0882 26.5005L13.9215 26.6585C13.8813 26.3688 13.8142 26.1713 13.7203 26.066C13.6131 25.9607 13.4387 25.8948 13.1973 25.8948C12.6609 25.8948 12.3927 26.1977 12.3927 26.7902V27.4485H15.1553L15.1687 27.4353Z" fill="white"/>
<path d="M56.5237 25.6108V35.1434H36.7299V31.5358C36.7299 29.5476 36.2606 28.073 35.3084 27.0855C34.3563 26.098 32.908 25.6108 30.9635 25.6108C29.1128 25.6108 27.6645 26.1375 26.5917 27.1908C25.5188 28.2441 24.9824 29.6661 24.9824 31.4568C24.9824 33.5766 25.6529 35.4331 26.994 36.5522C28.335 37.6846 30.2527 38.2375 32.7739 38.2375H33.2432V38.6325C33.2432 40.0019 33.0689 40.805 32.7202 41.2659L34.4904 43.9913C34.7988 43.807 35.067 43.6095 35.3084 43.3593C36.2606 42.3982 36.7433 40.2257 36.7433 38.2244H60.0238V25.5977H56.5371L56.5237 25.6108ZM33.2432 35.1434H32.157C29.7029 35.1434 28.4825 33.7609 28.4825 31.4568C28.4825 30.5088 28.6837 29.7846 29.0994 29.2711C29.5151 28.7576 30.1186 28.5075 30.9098 28.5075C31.5133 28.5075 31.9827 28.5996 32.3045 28.7971C32.6264 28.9946 32.8677 29.337 33.0153 29.8505C33.1628 30.3639 33.2298 31.3646 33.2298 32.3916V35.1302L33.2432 35.1434Z" fill="white"/>
<path d="M60.0101 23.8921V20.4688H56.5234V23.8921H60.0101Z" fill="white"/>
<path d="M76.5318 35.1327V33.3025C76.5318 31.7489 76.2368 30.5902 75.6334 29.8529C75.0433 29.1024 74.118 28.7338 72.8842 28.7338C72.093 28.7338 71.2079 28.8918 70.2424 29.1946L69.4109 26.1663C70.5776 25.7976 71.8382 25.6133 73.1658 25.6133C75.3786 25.6133 77.0683 26.2453 78.2484 27.5224C79.4285 28.7864 80.0186 30.6166 80.0186 32.9866V38.2532H62.6387V35.159H76.5184L76.5318 35.1327Z" fill="white"/>
<path d="M86.9826 19.271V20.4691H82.3828V19.271H82.946V18.5205C82.946 17.9148 83.1204 17.4408 83.4691 17.1117C83.8177 16.7825 84.3005 16.6113 84.9442 16.6113C85.5879 16.6113 86.0304 16.743 86.3255 17.0063C86.6339 17.2697 86.8217 17.7173 86.9021 18.3361L85.7354 18.4941C85.6952 18.2045 85.6281 18.007 85.5343 17.9017C85.427 17.7963 85.2526 17.7305 85.0112 17.7305C84.4748 17.7305 84.2066 18.0333 84.2066 18.6258V19.2841H86.9692L86.9826 19.271Z" fill="white"/>
<path d="M86.4857 21.8145H82.999V38.2331H86.4857V21.8145Z" fill="white"/>
<path d="M61.3529 63.3764C60.0655 63.3764 58.9122 63.1657 57.893 62.7575C56.8738 62.3494 56.0155 61.7569 55.3048 60.98C54.594 60.2032 54.0442 59.2684 53.6687 58.1756C53.2932 57.0827 53.1055 55.8451 53.1055 54.4626C53.1055 53.0801 53.2932 51.8424 53.6687 50.7496C54.0442 49.6568 54.594 48.722 55.3182 47.9451C56.0423 47.1683 56.9006 46.5758 57.9198 46.1677C58.939 45.7595 60.0789 45.5488 61.3529 45.5488C62.6269 45.5488 63.7936 45.7595 64.8128 46.1677C65.8319 46.5758 66.6902 47.1683 67.3875 47.9451C68.0849 48.722 68.6213 49.6568 68.9968 50.7496C69.3723 51.8424 69.56 53.0801 69.56 54.4626C69.56 55.8451 69.3723 57.0827 69.0102 58.1756C68.6481 59.2684 68.1117 60.2032 67.4144 60.98C66.717 61.7569 65.8588 62.3494 64.8396 62.7575C63.8204 63.1657 62.6671 63.3764 61.3529 63.3764ZM61.3395 60.3349C62.8548 60.3349 63.9813 59.8214 64.7323 58.8076C65.4699 57.7937 65.8454 56.3454 65.8454 54.4626C65.8454 52.5798 65.4699 51.1446 64.7323 50.1308C63.9947 49.1038 62.8548 48.6035 61.3395 48.6035C59.8241 48.6035 58.6976 49.117 57.9466 50.1308C57.2091 51.1578 56.8336 52.5929 56.8336 54.4626C56.8336 56.3322 57.2091 57.7937 57.9466 58.8076C58.6842 59.8214 59.8241 60.3349 61.3395 60.3349Z" fill="white"/>
<path d="M87.1506 57.0827C87.0702 57.9912 86.8556 58.8207 86.5069 59.5844C86.1582 60.348 85.6889 61.0195 85.0854 61.5857C84.4819 62.1519 83.7444 62.5864 82.8593 62.9024C81.9742 63.2183 80.955 63.3764 79.8017 63.3764C78.5009 63.3764 77.3476 63.1657 76.3552 62.7312C75.3629 62.3099 74.5314 61.7042 73.8609 60.9274C73.1904 60.1505 72.6808 59.2157 72.3455 58.1097C72.0103 57.0037 71.8359 55.7924 71.8359 54.4626C71.8359 53.1328 72.0237 51.8424 72.3992 50.7496C72.7747 49.6568 73.2977 48.722 73.995 47.9451C74.6924 47.1683 75.5238 46.5758 76.5162 46.1677C77.4951 45.7595 78.6082 45.5488 79.8554 45.5488C80.955 45.5488 81.9071 45.6805 82.7252 45.957C83.5432 46.2203 84.2271 46.6153 84.777 47.1157C85.3402 47.6291 85.7828 48.2348 86.118 48.9458C86.4533 49.6568 86.7081 50.46 86.869 51.3421L83.2884 51.7898C83.1141 50.7891 82.7654 50.0123 82.2558 49.433C81.7462 48.8668 80.9416 48.5771 79.8419 48.5771C78.4607 48.5771 77.4013 49.0906 76.6771 50.1045C75.9529 51.1315 75.6043 52.5666 75.6043 54.4363C75.6043 56.3059 75.9932 57.7674 76.7576 58.7812C77.522 59.795 78.5546 60.3085 79.8419 60.3085C80.955 60.3085 81.773 60.032 82.296 59.4659C82.8191 58.8997 83.1409 58.0966 83.275 57.0564H87.1506V57.0827Z" fill="white"/>
</svg>
