<svg width="19" height="14" viewBox="0 0 19 14" fill="none" xmlns="http://www.w3.org/2000/svg">
<path fill-rule="evenodd" clip-rule="evenodd" d="M9.00039 0.150391C8.53095 0.150391 8.15039 0.530949 8.15039 1.00039C8.15039 1.46983 8.53095 1.85039 9.00039 1.85039H13.5004C15.5162 1.85039 17.1504 3.48455 17.1504 5.50039C17.1504 7.51623 15.5162 9.15039 13.5004 9.15039H3.05247L4.60143 7.60143C4.93338 7.26949 4.93338 6.7313 4.60143 6.39935C4.26949 6.0674 3.7313 6.0674 3.39935 6.39935L0.39935 9.39935C0.0674042 9.7313 0.0674042 10.2695 0.39935 10.6014L3.39935 13.6014C3.7313 13.9334 4.26949 13.9334 4.60143 13.6014C4.93338 13.2695 4.93338 12.7313 4.60143 12.3993L3.05247 10.8504H13.5004C16.4551 10.8504 18.8504 8.45511 18.8504 5.50039C18.8504 2.54567 16.4551 0.150391 13.5004 0.150391H9.00039Z" fill="#0047BA"/>
</svg>
