<svg width="32" height="32" viewBox="0 0 120 120" fill="white" xmlns="http://www.w3.org/2000/svg">
    <path d="M60,120C26.9,120,0,93.1,0,60S26.9,0,60,0s60,26.9,60,60S93.1,120,60,120z M60,5C29.7,5,5,29.7,5,60s24.7,55,55,55 s55-24.7,55-55S90.3,5,60,5z"/>
    <path d="M60,120c-19.3,0-34.4-26.4-34.4-60S40.7,0,60,0s34.4,26.4,34.4,60S79.3,120,60,120z M60,5C43.8,5,30.5,29.7,30.5,60 s13.2,55,29.5,55s29.5-24.7,29.5-55S76.2,5,60,5z"/>
    <rect x="12.2" y="25.6" width="95.6" height="5"/>
    <rect x="12.2" y="89.5" width="95.6" height="5"/>
    <rect x="2.5" y="57.5" width="115" height="5"/>
    <rect x="57.5" y="2.5" width="5" height="115"/>
</svg>
