<svg width="22" height="22" viewBox="0 0 22 22" fill="none" xmlns="http://www.w3.org/2000/svg">
<path d="M16.5003 5.50065H14.667C14.667 3.47482 13.0262 1.83398 11.0003 1.83398C8.97449 1.83398 7.33366 3.47482 7.33366 5.50065H5.50033C4.49199 5.50065 3.66699 6.32565 3.66699 7.33398V18.334C3.66699 19.3423 4.49199 20.1673 5.50033 20.1673H16.5003C17.5087 20.1673 18.3337 19.3423 18.3337 18.334V7.33398C18.3337 6.32565 17.5087 5.50065 16.5003 5.50065ZM11.0003 3.66732C12.0087 3.66732 12.8337 4.49232 12.8337 5.50065H9.16699C9.16699 4.49232 9.99199 3.66732 11.0003 3.66732ZM16.5003 18.334H5.50033V7.33398H7.33366V9.16732C7.33366 9.67148 7.74616 10.084 8.25033 10.084C8.75449 10.084 9.16699 9.67148 9.16699 9.16732V7.33398H12.8337V9.16732C12.8337 9.67148 13.2462 10.084 13.7503 10.084C14.2545 10.084 14.667 9.67148 14.667 9.16732V7.33398H16.5003V18.334Z" fill="#0047BA"/>
</svg>
