<svg width="196" height="91" viewBox="0 0 196 91" fill="none" xmlns="http://www.w3.org/2000/svg">
<path d="M7.25422 52.3164H11.0912L18.3454 71.6217H14.0138L12.4701 67.1586H5.71045L4.16668 71.6217H0L7.25422 52.3164ZM11.4209 63.8337L9.06778 56.9143L6.74463 63.8337H11.4209Z" fill="#0047BA"/>
<path d="M20.6986 52.3164H27.9228C30.8755 52.3164 33.1836 53.1252 34.8323 54.7277C36.481 56.3302 37.3054 58.7116 37.3054 61.8567C37.3054 63.4593 37.0805 64.8671 36.6159 66.0802C36.1513 67.2934 35.4918 68.3118 34.6225 69.1355C33.7532 69.9593 32.704 70.5883 31.46 71.0076C30.216 71.427 28.8071 71.6367 27.2334 71.6367H20.6836V52.3314L20.6986 52.3164ZM27.3233 68.177C28.3725 68.177 29.2568 68.0272 30.0062 67.7277C30.7406 67.4282 31.3401 67.0088 31.8047 66.4397C32.2694 65.8855 32.5991 65.2116 32.8239 64.4477C33.0487 63.6839 33.1537 62.8153 33.1537 61.8717C33.1537 60.9282 33.0637 60.0894 32.8689 59.3106C32.674 58.5468 32.3743 57.9028 31.9696 57.3786C31.5499 56.8544 31.0254 56.45 30.3659 56.1655C29.7064 55.8809 28.8971 55.7312 27.9378 55.7312H24.7454V68.162H27.3383L27.3233 68.177Z" fill="#0047BA"/>
<path d="M40.5273 52.3164H44.1545L52.1131 64.9719V52.3164H56.04V71.6217H52.4429L44.4692 59.086V71.6217H40.5423V52.3164H40.5273Z" fill="#0047BA"/>
<path d="M20.6988 39.9748V22.8711H24.7306V43.5093H7.92898C5.24612 43.5093 3.26769 42.9252 1.97872 41.772C0.67476 40.6038 0.0302734 38.8515 0.0302734 36.4702C0.0302734 35.1672 0.300059 33.999 0.839629 32.9955C1.3792 31.9921 2.17357 31.1983 3.22273 30.6292C4.2719 30.0451 5.53089 29.7305 6.99972 29.6407L7.46435 33.0854C6.17538 33.1752 5.24612 33.4898 4.69156 34.0289C4.137 34.5531 3.85223 35.3769 3.85223 36.4702C3.85223 37.6833 4.16698 38.5669 4.79648 39.1361C5.42598 39.6902 6.41519 39.9748 7.76411 39.9748H20.7138H20.6988ZM16.9518 31.2133V32.5762H11.8109V31.2133H12.4404V30.3596C12.4404 29.6706 12.6352 29.1315 13.0249 28.757C13.4146 28.3826 13.9542 28.1879 14.6736 28.1879C15.393 28.1879 15.8876 28.3377 16.2174 28.6372C16.5621 28.9368 16.7719 29.446 16.8619 30.1499L15.5579 30.3296C15.5129 30.0001 15.438 29.7755 15.3331 29.6557C15.2132 29.5358 15.0183 29.461 14.7486 29.461C14.149 29.461 13.8493 29.8054 13.8493 30.4794V31.2282H16.9368L16.9518 31.2133Z" fill="#0047BA"/>
<path d="M63.1748 29.1322V39.9755H41.0524V35.8718C41.0524 33.6103 40.5278 31.9329 39.4637 30.8096C38.3995 29.6863 36.7808 29.1322 34.6075 29.1322C32.5392 29.1322 30.9205 29.7312 29.7214 30.9294C28.5224 32.1276 27.9229 33.7451 27.9229 35.7819C27.9229 38.1932 28.6723 40.305 30.1711 41.578C31.6699 42.866 33.8132 43.4951 36.6309 43.4951H37.1555V43.9444C37.1555 45.502 36.9607 46.4156 36.571 46.9398L38.5494 50.04C38.8941 49.8303 39.1939 49.6057 39.4637 49.3211C40.5278 48.2278 41.0674 45.7566 41.0674 43.4801H67.0867V29.1172H63.1898L63.1748 29.1322ZM37.1555 39.9755H35.9415C33.1986 39.9755 31.8347 38.4029 31.8347 35.7819C31.8347 34.7036 32.0596 33.8799 32.5242 33.2958C32.9888 32.7117 33.6633 32.4271 34.5476 32.4271C35.222 32.4271 35.7466 32.5319 36.1063 32.7566C36.466 32.9812 36.7358 33.3706 36.9007 33.9547C37.0656 34.5388 37.1405 35.6771 37.1405 36.8453V39.9605L37.1555 39.9755Z" fill="#0047BA"/>
<path d="M67.0717 27.1831V23.2891H63.1748V27.1831H67.0717Z" fill="#0047BA"/>
<path d="M85.5364 39.9768V37.895C85.5364 36.1277 85.2067 34.8097 84.5322 33.971C83.8728 33.1173 82.8386 32.698 81.4597 32.698C80.5754 32.698 79.5862 32.8777 78.507 33.2222L77.5778 29.7775C78.8817 29.3581 80.2906 29.1484 81.7744 29.1484C84.2475 29.1484 86.1359 29.8673 87.4549 31.3201C88.7738 32.7579 89.4333 34.8397 89.4333 37.5355V43.5263H70.0088V40.0067H85.5214L85.5364 39.9768Z" fill="#0047BA"/>
<path d="M97.2122 21.9277V23.2906H92.0713V21.9277H92.7008V21.074C92.7008 20.3851 92.8956 19.8459 93.2853 19.4715C93.675 19.097 94.2146 18.9023 94.934 18.9023C95.6534 18.9023 96.148 19.0521 96.4778 19.3517C96.8225 19.6512 97.0323 20.1604 97.1223 20.8643L95.8183 21.044C95.7733 20.7146 95.6984 20.4899 95.5935 20.3701C95.4736 20.2503 95.2787 20.1754 95.0089 20.1754C94.4094 20.1754 94.1097 20.5199 94.1097 21.1938V21.9427H97.1972L97.2122 21.9277Z" fill="#0047BA"/>
<path d="M96.6576 24.8164H92.7607V43.4927H96.6576V24.8164Z" fill="#0047BA"/>
<path d="M68.5702 72.0991C67.1313 72.0991 65.8424 71.8595 64.7033 71.3952C63.5642 70.9309 62.605 70.257 61.8106 69.3733C61.0162 68.4897 60.4017 67.4263 59.982 66.1832C59.5624 64.9401 59.3525 63.5323 59.3525 61.9597C59.3525 60.3871 59.5624 58.9793 59.982 57.7362C60.4017 56.4931 61.0162 55.4298 61.8256 54.5461C62.6349 53.6625 63.5942 52.9885 64.7333 52.5242C65.8723 52.0599 67.1463 51.8203 68.5702 51.8203C69.9941 51.8203 71.298 52.0599 72.4371 52.5242C73.5762 52.9885 74.5354 53.6625 75.3148 54.5461C76.0942 55.4298 76.6937 56.4931 77.1134 57.7362C77.5331 58.9793 77.7429 60.3871 77.7429 61.9597C77.7429 63.5323 77.5331 64.9401 77.1284 66.1832C76.7237 67.4263 76.1242 68.4897 75.3448 69.3733C74.5654 70.257 73.6062 70.9309 72.4671 71.3952C71.328 71.8595 70.039 72.0991 68.5702 72.0991ZM68.5552 68.6394C70.2489 68.6394 71.5079 68.0553 72.3472 66.9021C73.1715 65.7489 73.5912 64.1014 73.5912 61.9597C73.5912 59.818 73.1715 58.1855 72.3472 57.0323C71.5229 55.8641 70.2489 55.295 68.5552 55.295C66.8616 55.295 65.6026 55.8791 64.7632 57.0323C63.9389 58.2005 63.5192 59.833 63.5192 61.9597C63.5192 64.0864 63.9389 65.7489 64.7632 66.9021C65.5876 68.0553 66.8616 68.6394 68.5552 68.6394Z" fill="#0047BA"/>
<path d="M97.4074 64.9401C97.3174 65.9735 97.0776 66.9171 96.688 67.7858C96.2983 68.6544 95.7737 69.4182 95.0992 70.0623C94.4248 70.7063 93.6004 71.2005 92.6112 71.5599C91.622 71.9194 90.4829 72.0991 89.1939 72.0991C87.7401 72.0991 86.4511 71.8595 85.342 71.3653C84.2329 70.886 83.3036 70.197 82.5542 69.3134C81.8048 68.4298 81.2353 67.3664 80.8606 66.1083C80.4859 64.8503 80.291 63.4724 80.291 61.9597C80.291 60.447 80.5009 58.9793 80.9205 57.7362C81.3402 56.4931 81.9247 55.4298 82.7041 54.5461C83.4835 53.6625 84.4127 52.9885 85.5219 52.5242C86.616 52.0599 87.86 51.8203 89.2539 51.8203C90.4829 51.8203 91.547 51.9701 92.4613 52.2846C93.3756 52.5841 94.14 53.0335 94.7545 53.6026C95.384 54.1867 95.8786 54.8756 96.2533 55.6844C96.628 56.4931 96.9128 57.4067 97.0926 58.4102L93.0908 58.9194C92.896 57.7811 92.5063 56.8975 91.9367 56.2385C91.3672 55.5945 90.4679 55.265 89.2389 55.265C87.6951 55.265 86.5111 55.8491 85.7017 57.0023C84.8924 58.1705 84.5027 59.803 84.5027 61.9298C84.5027 64.0565 84.9373 65.7189 85.7916 66.8722C86.646 68.0254 87.8 68.6095 89.2389 68.6095C90.4829 68.6095 91.3972 68.295 91.9817 67.651C92.5662 67.007 92.9259 66.0934 93.0758 64.9102H97.4074V64.9401Z" fill="#0047BA"/>
<path d="M150.687 91C175.712 91 196 70.629 196 45.5C196 20.371 175.712 0 150.687 0C125.661 0 105.374 20.371 105.374 45.5C105.374 70.629 125.661 91 150.687 91Z" fill="white"/>
<path d="M108.536 45.5007C108.536 62.9638 119.081 77.9707 134.116 84.4258C142.752 80.2172 149.449 72.6689 150.389 65.7944C152.298 54.8014 146.332 45.1712 134.892 42.7898C134.683 42.7449 134.459 42.685 134.235 42.5951C133.833 42.5951 128.254 42.655 123.959 41.5018C123.899 41.5467 121.498 43.4638 122.482 47.1481C122.482 47.1481 116.754 41.1424 120.394 33.0848C120.394 33.0848 122.154 29.2806 128.15 25.3866C128.195 25.3267 128.239 25.2818 128.284 25.2219C129.88 23.3198 133.728 19.95 139.306 17.2841C142.155 15.9961 147.033 14.1539 152.507 13.6896C176.61 11.4431 189.273 29.2656 190.093 30.4488C184.052 14.4984 168.69 3.17578 150.687 3.17578C127.404 3.17578 108.536 22.1216 108.536 45.5007Z" fill="#0047BA"/>
<path d="M174.76 80.2454C180.264 76.3964 184.798 71.2742 187.96 65.2834C182.979 52.1487 171.718 41.3053 156.668 38.0703C161.411 39.3733 181.785 48.9885 177.102 73.7754C176.565 76.0669 175.775 78.2235 174.775 80.2454H174.76Z" fill="#0047BA"/>
<path d="M167.064 23.1831C154.998 21.5656 144.84 24.6958 136.846 30.2972C136.846 30.2972 139.202 28.9493 142.827 27.6463C143.364 29.9677 145.318 31.9297 147.943 32.4838C151.463 33.2177 154.878 31.1509 155.564 27.8559C155.743 26.9573 155.714 26.0737 155.49 25.235C178.146 24.546 190.481 41.2753 192.823 46.4423C192.823 46.1278 192.823 45.8133 192.823 45.4988C192.823 42.3986 192.495 39.3882 191.868 36.4827C187.215 30.9412 177.699 24.3813 167.064 23.1981V23.1831Z" fill="#0047BA"/>
</svg>
