<svg width="16" height="16" viewBox="0 0 16 16" fill="none" xmlns="http://www.w3.org/2000/svg">
<path d="M8 0C5.87855 0 3.84315 0.843067 2.34299 2.34299C0.842989 3.84299 0 5.87835 0 8C0 10.1216 0.843067 12.1568 2.34299 13.657C3.84299 15.157 5.87835 16 8 16C10.1216 16 12.1568 15.1569 13.657 13.657C15.157 12.157 16 10.1216 16 8C15.9977 5.87914 15.1546 3.84532 13.6546 2.34535C12.1546 0.845351 10.1209 0.00236308 8 0ZM8.82078 11.8977H7.17924C6.84001 11.8977 6.56386 11.6216 6.56386 11.2823C6.56386 10.9423 6.84001 10.6669 7.17924 10.6669H7.38463V6.97462H7.17924C6.84001 6.97462 6.56386 6.69848 6.56386 6.35924C6.56386 6.01923 6.84001 5.74385 7.17924 5.74385H8.00002C8.3377 5.7477 8.6108 6.02077 8.6154 6.35924V10.6669H8.8208C9.16003 10.6669 9.43618 10.9423 9.43618 11.2823C9.43618 11.6216 9.16002 11.8977 8.82078 11.8977ZM7.83616 3.48692C8.08462 3.48692 8.30923 3.63692 8.40462 3.86692C8.5 4.09693 8.44693 4.36153 8.27077 4.53768C8.09539 4.71383 7.83 4.76615 7.60078 4.67076C7.37077 4.57614 7.22078 4.35152 7.22078 4.1023C7.22462 3.76461 7.49769 3.49153 7.83616 3.48692Z" fill="#0047BA"/>
</svg>
